<svg height="100%" stroke-miterlimit="10" style="fill-rule:nonzero;clip-rule:evenodd;stroke-linecap:round;stroke-linejoin:round;" version="1.1" viewBox="0 0 180 75.7599" width="100%" xml:space="preserve" xmlns="http://www.w3.org/2000/svg" xmlns:xlink="http://www.w3.org/1999/xlink">
<g opacity="1" id="portal">
<path d="M83.4938 63.7945C83.3352 63.4773 83.2708 63.506 83.0348 63.27C83.3073 62.8612 84.4937 63.2961 84.8709 63.5978C85.9611 64.4701 88.6361 65.0003 90.1167 65.106C92.6434 65.2865 94.0828 63.9557 96.4118 63.5322C98.2524 63.1976 100.162 63.4784 101.986 63.0732C103.212 62.8006 103.32 62.2101 104.412 61.565C104.732 61.3757 105.158 61.5487 105.527 61.4995C106.533 61.3653 107.834 61.0145 108.674 60.3847C110.297 59.1679 111.651 57.75 112.018 55.729C112.168 54.9046 112.162 54.0899 112.477 53.3028C113.03 51.9212 114.355 50.9803 114.576 49.4339C114.743 48.2658 114.323 47.0277 114.576 45.893C114.89 44.4776 115.953 43.6724 115.953 42.0897C115.953 41.2504 115.166 40.5072 115.166 39.7291C115.166 39.1774 115.411 38.6616 115.297 38.0897C115.116 37.1851 114.472 36.4303 114.248 35.5324C113.911 34.1841 114.313 32.96 114.313 31.598C114.313 29.6078 112.41 27.8458 111.035 26.7455C112.301 24.2127 111.087 21.3557 109.264 19.5324C108.665 18.9334 107.894 18.6423 107.363 17.9587C106.879 17.3367 106.794 16.6356 106.51 15.9259C105.808 14.1702 104.108 13.0774 102.313 12.7784C101.57 12.6544 100.735 12.7208 100.018 12.5161C98.9225 12.203 97.8293 11.356 96.8708 10.8767C94.9812 9.93191 92.4186 11.2046 90.4446 11.2046C87.9608 11.2046 86.025 10.0636 83.2971 10.7456C82.0243 11.0638 80.9308 11.7187 79.9528 12.5816C79.3699 13.096 78.6902 14.1432 77.8545 14.3521C75.0049 15.0645 72.1405 15.6071 69.9857 17.7619C68.6974 19.0502 68.8889 21.1915 67.8217 22.6144C67.1817 23.4678 65.788 24.323 65.5267 25.3685C65.1144 27.0174 65.5383 28.7704 65.0677 30.4176C64.856 31.1583 64.2037 31.7094 64.0185 32.4504C63.6489 33.9289 63.166 35.2454 63.166 36.8438C63.166 38.7476 64.1496 40.4573 64.1496 42.352C64.1496 43.6133 63.0948 44.6383 62.9693 45.893C62.8404 47.1821 63.0982 47.8968 63.8873 48.8438C64.1458 49.154 64.6974 49.658 64.8054 50.0897C65.1127 51.3188 64.8357 53.0591 65.6578 54.1552C66.47 55.2382 67.4656 55.504 68.3463 56.3847C68.6939 56.7323 68.4438 58.2851 68.9365 58.9421C69.8232 60.1243 70.5621 60.1314 71.5594 60.8437C71.9666 61.1346 72.3434 61.8244 72.6742 62.1552C73.1916 62.6726 74.1732 62.7204 74.8381 62.9421C76.8333 63.6072 77.4163 64.2536 79.8873 64.2536C80.3806 64.2536 83.3452 63.9432 83.4938 63.7945Z" fill="#a3d056" fill-rule="nonzero" opacity="1" stroke="none"/>
<path d="M86.9036 35.3356C87.3872 34.8521 87.8398 34.0088 88.7397 34.5488C88.9653 34.6841 89.1582 34.9679 89.3954 35.0733C92.1675 36.3054 89.6794 40.5013 87.1659 39.6635C86.5677 39.4641 86.2143 39.1663 85.7233 38.7455C85.7889 38.6471 85.7889 38.6471 85.8545 38.5487C86.408 38.6871 87.1907 38.983 87.6249 38.5487C86.5142 37.438 85.0676 36.8008 85.0676 35.0078C85.0676 34.5721 85.3395 34.0332 85.5922 33.6963C87.1061 31.6777 88.5695 30.1266 91.4282 31.2701C93.1825 31.9718 94.4727 33.6399 94.838 35.4668C94.9495 36.0244 94.798 37.1316 95.1659 37.4996C95.5854 37.0801 95.4938 35.3959 95.4938 34.9422C95.4938 32.9449 94.2417 30.7195 92.6085 29.6307C88.9593 27.1979 84.8357 29.8861 82.9037 33.1061C81.2346 35.8879 81.4857 40.3865 84.543 42.2209C85.6468 42.8832 87.0155 43.0077 88.2807 43.0077C89.0037 43.0077 90.1702 42.6726 90.7725 42.2209C91.6901 41.5326 93.0255 40.6842 93.3298 39.4668C94.0489 36.5905 93.8857 32.4475 89.9856 32.1225C88.2464 31.9776 86.7979 32.4163 86.5102 34.2865C86.4206 34.8689 86.4289 35.0192 86.9036 35.3356Z" fill="#89be59" fill-rule="nonzero" opacity="1" stroke="none"/>
<path d="M94.0511 27.9914C94.4757 28.8405 96.7859 31.3282 96.4774 32.2537C96.1319 31.9082 95.798 31.6189 95.3626 31.4012C95.297 31.4668 95.297 31.4668 95.2315 31.5324C95.6693 32.4081 95.9374 34.9924 96.4118 35.4668C96.4774 35.4012 96.4774 35.4012 96.5429 35.3356C97.8477 35.988 97.6705 39.7434 97.3954 40.8438C97.3013 41.2202 96.7263 42.2731 97.002 42.5487C97.1331 42.4504 97.1331 42.4504 97.2642 42.352C97.3298 42.4176 97.3298 42.4176 97.3954 42.4832C97.0502 43.1735 96.8792 43.7206 96.2806 44.3192C95.2609 45.3389 93.735 45.619 92.6741 46.6799C91.8079 47.546 91.7761 48.8438 90.1823 48.8438C88.6928 48.8438 90.1325 47.0551 90.0512 46.811C90.0102 46.688 89.2623 46.7487 89.461 46.4176C89.4839 46.3795 90.5867 45.4317 89.9856 45.3684C88.9585 45.2603 87.169 45.4371 86.3135 44.5815C85.822 45.0729 81.8306 44.1721 84.2151 45.7618C84.1495 45.8274 84.1495 45.8274 84.084 45.893C83.3407 45.5213 82.3395 45.46 81.7233 44.8438C81.4674 45.0997 81.7302 45.2708 81.3299 45.4995C80.6338 45.8973 79.5546 44.8855 79.4283 44.2536C79.3815 44.0201 79.4917 43.1485 79.3627 43.0077C78.4969 42.0633 77.1921 40.8171 76.8709 39.5323C76.7712 39.1337 76.4378 38.7179 76.3463 38.352C76.2038 37.7821 76.3217 37.0815 75.8873 36.6471C75.8436 36.6908 75.7588 36.7165 75.7561 36.7783C75.7144 37.7391 75.7373 38.7019 75.7561 39.6635C75.8052 42.1648 77.5444 44.796 79.2315 46.4831C79.6923 46.9439 81.0637 47.5861 81.2643 48.188C81.6604 48.188 83.6908 47.9911 82.8381 48.8438C83.2415 49.2472 84.7376 49.4466 85.3299 49.5651C87.9815 50.0954 90.2703 50.1111 92.4118 48.5815C93.2955 47.9503 93.9496 47.1748 94.7069 46.4176C94.7414 46.383 94.7901 46.3424 94.838 46.352C95.3303 46.4505 94.9041 47.3578 95.3626 47.6635C96.432 46.5941 97.6172 45.4401 98.7724 44.5159C99.1796 44.1902 99.4745 42.5505 99.6249 42.0241C100.09 40.3972 99.9163 39.0285 100.149 37.3028C100.166 37.1803 100.324 37.128 100.412 37.0406C99.9621 36.3661 100.373 35.6243 99.9528 35.2045C99.5061 35.6512 99.8216 35.8864 99.8216 36.7127C99.8216 37.3275 98.8753 40.2164 98.4446 40.6471C97.9892 40.1917 98.3893 39.0926 98.5101 38.5487C98.8639 36.9567 99.8165 34.6092 98.4446 33.2373C98.5101 33.1717 98.5101 33.1717 98.5757 33.1061C98.9135 33.4439 99.1323 33.851 99.4282 34.2209C99.5265 34.1225 99.5265 34.1225 99.6249 34.0242C99.7233 34.1225 99.7233 34.1225 99.8216 34.2209C100.013 34.0297 99.91 33.6817 100.018 33.434C100.105 33.2358 100.345 33.1458 100.477 32.975C100.642 32.7631 100.015 32.1473 99.9528 31.9914C99.4153 30.6476 97.9329 29.1795 96.6085 28.3849C95.9328 27.9794 94.677 27.3655 94.0511 27.9914Z" fill="#89be59" fill-rule="nonzero" opacity="1" stroke="none"/>
<path d="M84.7397 29.893C84.9692 30.1553 84.9692 30.1553 85.1987 30.4176C88.0015 28.5491 91.3095 28.3317 93.7889 30.8111C94.7712 31.7934 95.191 33.5509 95.297 34.8766C95.3319 35.3129 95.541 35.8786 95.2315 36.1881C94.9048 35.8614 94.8391 34.8465 94.6413 34.352C94.0407 32.8506 92.3805 31.0544 90.6413 30.9422C88.5173 30.8052 85.9449 31.4986 85.3299 33.9586C85.2509 34.2743 84.9065 34.6569 84.8709 34.9422C84.6872 36.4114 86.3703 37.8216 87.3626 38.4832C86.8127 39.0331 85.8519 38.0923 85.461 38.4832C86.8349 40.5439 90.3657 40.1244 90.6413 37.3684C90.6644 37.138 90.4276 33.91 89.3299 35.0078C89.5357 35.3165 89.9585 35.9529 89.6577 36.2537C89.404 35.9999 88.9281 35.3827 88.4774 35.2701C87.8233 35.1065 87.0659 35.4375 86.6413 34.9422C86.4446 34.7127 86.5838 34.2833 86.6413 34.0242C87.0021 32.4008 88.4421 32.1881 89.92 32.1881C90.6556 32.1881 91.4771 32.6481 92.0184 33.1061C94.3659 35.0925 94.1386 39.0515 92.0184 41.1717C89.786 43.4041 85.7333 43.4767 83.4938 41.2373C82.5293 40.2728 82.4252 39.1269 82.1168 37.893C81.896 37.0097 81.8895 35.7245 82.3135 34.8766C80.7152 33.2783 80.9364 36.4083 80.9364 37.4996C80.9364 39.0017 81.7097 40.4104 82.5758 41.5651C82.933 41.2079 83.6878 42.0005 84.0184 42.2209C85.2756 43.059 86.8834 43.8239 88.4118 43.9258C91.4308 44.127 93.3714 41.7099 95.1659 39.4668C95.4984 39.6884 95.3114 39.8746 95.5593 40.1225C96.8922 38.7897 96.6122 35.6126 96.2151 34.0242C96.0726 33.4541 95.3818 32.1962 95.5593 31.6635C95.9647 31.9338 96.309 32.257 96.6741 32.5816C96.9813 32.2743 96.5157 31.6091 96.3462 31.2701C95.7298 30.0373 94.7516 28.7102 93.8544 27.6635C92.7165 28.4222 92.5569 28.5923 92.0184 27.3357C91.8589 26.9636 91.2162 26.9729 91.4938 26.4176C91.1036 26.0275 90.001 26.5218 89.5266 26.6799C87.7452 27.2737 85.9806 28.4453 84.7397 29.893Z" fill="#4e6e31" fill-rule="nonzero" opacity="1" stroke="none"/>
<path d="M86.6413 19.0734C85.6852 20.0296 87.4235 20.46 87.2315 20.8439C86.8457 21.6155 84.8478 21.3145 84.2151 21.6308C83.3655 22.0556 83.0736 23.0346 82.4446 23.6636C81.9965 24.1117 81.6058 23.5172 81.2643 23.6636C81.1446 23.7149 80.6167 23.9774 80.4774 24.057C79.95 24.3584 79.8748 25.6296 79.5594 26.1554C78.9733 27.1322 78.2489 27.422 77.5922 28.1881C76.6238 29.3179 76.2152 32.2213 76.2152 33.5652C76.2152 34.0195 76.4882 34.7348 76.1496 35.0733C75.7127 34.6365 75.5925 33.6476 75.2316 33.1061C74.1915 34.1462 74.6176 36.442 74.6414 37.6307C74.6426 37.6925 74.7288 37.7181 74.7725 37.7619C74.8381 37.6963 74.8381 37.6963 74.9037 37.6307C75.2726 37.8766 74.9943 38.2665 74.9693 38.6799C74.9362 39.2258 74.8647 39.7737 74.9037 40.3192C74.9137 40.4588 75.132 40.5113 75.166 40.6471C75.4271 41.6916 75.7445 43.1015 76.4119 43.9913C77.421 45.3368 78.1516 46.8612 79.7561 47.6635C80.1323 47.8516 81.0113 48.3099 81.3299 47.9913C80.6216 47.2831 79.6499 46.7703 78.9037 46.0241C77.3389 44.4593 76.3786 42.349 76.0184 40.1881C75.8792 39.3529 75.8602 38.5896 75.8873 37.6963C75.8892 37.6345 75.9747 37.6089 76.0184 37.5651C76.254 37.8007 76.1027 38.0147 76.2152 38.352C76.5734 39.4269 77.2135 40.4726 77.8545 41.434C78.2136 41.0749 80.5126 42.9726 81.2643 42.2209C80.7281 41.6846 80.1485 41.2577 79.6905 40.6471C79.1624 40.9112 78.4238 39.4757 78.1824 39.0733C77.2467 37.5138 76.6926 35.3837 77.1988 33.6963C77.2567 33.5033 77.1874 33.2486 77.3299 33.1061C77.6479 33.4242 77.5236 33.2656 77.7233 33.5652C78.0403 33.2482 78.0084 32.3313 78.0512 31.8602C78.148 30.7952 78.6616 29.5904 79.1004 28.7127C79.5982 27.717 80.7012 26.7262 81.5922 26.0898C81.9961 25.8012 82.726 25.5577 83.0348 25.1718C83.363 24.7616 82.1049 25.1121 81.9856 25.1718C81.92 25.1062 81.92 25.1062 81.8545 25.0406C82.208 24.6871 84.1183 22.911 84.8053 23.598C85.2362 23.2748 85.4615 22.8547 85.9856 22.68C85.9856 22.1151 87.7698 21.6777 88.2151 21.4996C89.9212 20.8172 92.3998 20.789 93.9856 21.1062C94.5996 21.229 95.8039 21.9197 96.2151 21.3029C96.4144 21.4026 96.458 21.3222 96.6085 21.1718C95.9008 20.4641 91.7392 20.5287 91.0348 20.4505C90.7495 20.4188 89.4846 20.6052 89.2643 20.3849C89.6857 19.9635 88.2384 18.8111 87.7561 18.8111C87.3565 18.8111 87.0127 19.2591 86.6413 19.0734Z" fill="#60a041" fill-rule="nonzero" opacity="1" stroke="none"/>
<path d="M82.9037 27.8603C82.6105 27.5671 82.9296 26.4968 83.1004 26.1554C82.459 25.514 80.6658 27.8728 80.1496 28.6471C79.4341 29.7203 78.7187 31.2946 78.6414 32.6471C78.6001 33.3702 78.9568 34.2989 78.4447 34.8111C78.2807 34.6471 78.2807 34.6471 78.1168 34.4832C77.4654 35.1345 77.831 36.6185 78.0512 37.4996C78.6744 39.9925 80.6209 42.9422 83.4282 42.9422C83.7867 42.9422 83.9939 42.5015 84.2807 42.2864C83.9646 41.9704 83.0473 41.1326 82.5758 41.3684C81.7314 40.524 81.3752 39.1714 81.1987 38.0242C80.6203 34.2642 82.48 30.7757 85.0676 28.1881C86.1318 27.1239 87.512 26.6991 88.6741 25.8275C88.543 25.6963 88.543 25.6963 88.4118 25.5652C87.5345 26.4425 87.4404 24.9906 87.0348 24.9095C86.6219 24.8269 84.1732 26.6823 83.8873 26.9422C83.5554 27.2439 83.2315 27.5543 82.9037 27.8603Z" fill="#89be59" fill-rule="nonzero" opacity="1" stroke="none"/>
<path d="M72.6742 47.4667C72.2469 47.894 72.4229 49.2099 71.4283 48.7126C71.1476 48.9934 71.0935 48.9163 70.8381 49.1717C73.342 51.6755 75.6063 54.0475 78.7069 55.5979C78.9936 55.3112 78.5681 54.9583 79.1004 54.7454C79.9104 54.4214 79.8576 55.4646 79.3627 55.7946C80.1244 56.5563 82.3133 56.6658 83.2971 56.7126C84.6339 56.7763 85.796 56.647 87.1004 56.647C87.8526 56.647 89.3808 56.8049 90.2479 56.5159C90.7347 56.3536 91.1776 55.9228 91.6905 55.7946C92.5392 55.5824 93.94 55.9057 94.5102 55.3356C94.0736 54.899 93.3729 55.5098 92.9364 55.0733C92.8708 55.1388 92.8708 55.1388 92.8052 55.2044C92.6324 55.0316 92.321 55.1325 92.0839 55.0733C91.7106 54.9799 92.042 54.7777 91.7561 54.6143C91.3119 54.3604 88.2081 54.7454 87.6905 54.7454C86.3238 54.7454 84.6991 54.2661 83.4282 53.6306C82.9001 53.3666 81.6515 52.956 81.461 52.3848C80.8029 52.3848 80.1567 52.1026 79.4938 52.0569C79.0136 52.0238 78.5326 51.9913 78.0512 51.9913C77.7545 51.9913 77.2976 52.2767 77.002 52.188C76.8836 52.1525 76.857 51.9648 76.7397 51.9257C76.198 51.7452 75.6183 52.2469 75.166 51.7946C75.5712 50.9842 76.6337 51.1793 77.1988 50.6143C76.815 50.2305 76.1569 50.0416 75.6906 49.7618C74.5768 49.0935 73.6063 48.3988 72.6742 47.4667Z" fill="#89be59" fill-rule="nonzero" opacity="1" stroke="none"/>
<path d="M94.1823 24.975C94.735 25.804 97.6234 25.7345 98.6413 26.5488C99.0842 26.9031 99.4657 27.6916 99.0347 28.1226C99.3649 28.4527 99.1121 29.0524 99.4937 29.434C99.9146 29.0132 99.5067 28.1752 99.9528 27.7291C100.728 28.5044 101.982 28.7096 102.904 29.6307C103.141 29.8679 103.035 30.2206 103.166 30.4832C102.765 30.8845 102.099 29.713 101.527 29.8275C101.329 29.8669 101.341 30.4061 101.199 30.5488C102.018 31.3681 104.635 34.4569 103.297 35.7947C102.8 35.2975 102.79 34.3042 102.248 33.7619C101.899 34.1106 102.589 35.6936 102.641 36.1881C102.814 37.8309 102.576 39.3913 102.576 41.0405C102.576 41.6288 103.099 42.9455 102.838 43.4668C103.204 43.833 103.16 44.3136 103.559 44.7127C104.312 44.1479 103.554 42.6178 103.625 41.7618C103.813 39.5029 103.606 36.7049 104.346 34.4832C105.466 35.603 105.675 37.6982 106.051 39.2045C106.167 39.6697 105.937 40.2707 106.313 40.6471C108.759 38.2012 105.816 36.2951 105.264 34.0897C105.047 33.2214 105.527 33.0445 105.461 32.2537C105.38 31.2766 104.378 30.2184 103.953 29.3685C104.018 29.3029 104.018 29.3029 104.084 29.2373C104.566 29.7195 104.83 30.4999 105.395 30.8766C105.65 30.6224 105.016 26.4315 104.608 26.0242C104.246 26.3869 104.044 26.6241 103.756 27.0078C102.895 26.1464 101.829 25.8499 100.936 25.1062C100.318 25.7242 100.22 24.4805 99.8872 24.6472C99.762 24.7098 99.7595 24.9366 99.6249 24.975C99.4167 25.0345 98.7887 24.8138 98.5757 24.7783C97.3447 24.5731 95.1707 23.9866 94.1823 24.975Z" fill="#89be59" fill-rule="nonzero" opacity="1" stroke="none"/>
<path d="M100.412 32.9094C100.176 33.1453 99.9788 33.4411 99.8872 33.7619C99.8271 33.972 99.5172 34.0008 99.3626 34.1553C99.1747 34.3432 99.9369 35.3675 99.9528 35.4668C100.025 35.92 99.913 36.3865 99.9528 36.8438C99.9675 37.0139 100.24 37.0384 100.346 37.1717C100.659 37.563 100.982 38.5983 101.002 39.1389C101.042 40.1876 101.068 41.237 101.068 42.2864C101.068 43.4511 100.341 44.4064 100.084 45.434C99.9436 45.9953 100.139 46.7343 100.018 47.3356C99.5666 49.5944 97.7564 51.8647 95.6249 52.7782C95.0766 53.0132 93.6028 53.838 93.0675 53.3028C93.3298 53.0405 93.3298 53.0405 93.5921 52.7782C93.2181 52.4042 92.0755 53.0028 91.5594 53.1061C89.9147 53.435 88.1802 53.558 86.5102 53.6306C85.2463 53.6856 83.8601 53.1264 82.6414 52.7782C82.3172 52.6856 81.6333 52.3436 81.3955 52.5815C81.9693 53.4422 84.8466 54.3247 85.8545 54.5487C87.1036 54.8263 88.3425 54.9494 89.6577 54.811C90.4952 54.7228 91.2244 54.2869 92.0839 54.2208C92.6506 54.1772 93.2341 54.0975 93.7889 54.2208C93.8119 54.2259 94.3657 54.4248 94.379 54.4175C95.7117 53.6906 96.8238 53.0199 98.2478 52.4503C99.6052 51.9074 100.734 46.8056 102.445 48.5159C102.27 48.8654 101.848 49.1124 101.592 49.3684C101.202 49.7581 101.259 51.1744 101.986 50.811C103.396 50.1059 103.519 47.6409 103.69 46.352C103.735 46.0191 104.001 45.3511 103.756 45.1061C103.335 45.5268 101.375 48.1018 100.346 47.0733C100.762 46.658 101.186 46.2514 101.592 45.8274C101.854 45.5545 102.282 45.1249 102.051 44.7782C101.962 44.8529 101.089 45.6958 100.936 45.2372C100.806 44.8449 101.305 44.4374 101.395 44.1225C101.608 43.3796 101.751 42.4735 101.854 41.6963C102.083 39.9796 101.976 38.3432 101.527 36.8438C101.154 35.6031 101.425 33.9222 100.412 32.9094Z" fill="#60a041" fill-rule="nonzero" opacity="1" stroke="none"/>
<path d="M96.5429 35.2045C96.087 35.6605 96.4178 37.2074 96.2806 37.893C95.8501 40.0455 94.5653 41.9966 92.543 43.0077C92.0108 43.2738 91.1099 43.8322 90.5102 43.5323C90.0092 44.0333 89.0799 43.8602 88.4774 43.8602C87.3906 43.8602 86.2178 43.2878 85.2643 42.811C85.1306 42.7442 84.3895 42.1604 84.2807 42.2209C84.1045 42.3187 83.9747 42.4832 83.8217 42.6143C83.7561 42.5487 83.7561 42.5487 83.6905 42.4832C83.5922 42.5815 83.5922 42.5815 83.4938 42.6799C84.1852 44.0627 86.5243 44.9854 87.9528 45.3028C88.5332 45.4318 89.6105 45.2556 89.9856 45.6307C89.7924 45.8883 89.2348 46.3946 89.3299 46.6799C89.4906 47.162 90.4232 46.5274 90.7725 46.8766C91.5574 46.4841 91.9314 45.3087 92.6741 44.7782C93.5333 44.1645 94.8428 44.38 95.5593 43.6635C94.7224 42.8265 95.659 42.1263 96.0839 43.4012C96.4311 43.2276 96.8297 42.8785 97.0675 42.6143C97.1565 42.5155 97.002 42.3538 97.002 42.2209C97.002 41.9283 97.3113 41.4003 97.3954 41.1061C97.8047 39.6734 98.332 36.099 96.5429 35.2045Z" fill="#a3d056" fill-rule="nonzero" opacity="1" stroke="none"/>
<path d="M78.9692 47.9258C78.9037 47.9913 78.9037 47.9913 78.8381 48.0569C79.2433 48.8674 79.8578 49.7859 80.6086 50.2864C80.455 50.4399 80.5332 50.4236 80.3463 50.4175C79.7124 50.3971 79.0789 50.352 78.4447 50.352C77.7397 50.352 77.1274 50.6253 76.4774 50.811C76.2052 50.8888 74.9268 51.4705 75.0348 51.7946C75.2673 52.4919 78.7791 52.1225 79.4283 52.1225C80.6079 52.1225 81.8483 52.6547 82.9692 52.9749C84.0962 53.2969 85.2559 53.481 86.379 53.7618C87.6643 54.0831 90.6432 53.5154 92.0184 53.1716C93.3672 52.8344 94.532 52.3046 95.6905 51.5323C96.0589 51.2867 96.8359 50.9728 96.4118 50.5487C95.4242 51.0425 94.5495 51.5166 93.5266 51.9257C92.9045 52.1746 92.1469 52.1565 91.5594 52.4503C91.4938 52.3848 91.4938 52.3848 91.4282 52.3192C91.6809 52.0665 92.6913 51.0249 92.2807 50.6143C89.7926 52.273 87.4067 52.199 84.4774 51.4667C83.7615 51.2878 82.7905 51.1359 82.1823 50.6798C81.0449 49.8268 79.991 48.9475 78.9692 47.9258Z" fill="#c6e773" fill-rule="nonzero" opacity="1" stroke="none"/>
<path d="M86.379 22.2209C86.5736 22.4155 87.2044 23.6297 86.2479 23.2045C86.0133 23.1003 85.9586 22.7841 85.7889 22.6144C85.5733 22.7222 85.7291 22.627 85.5266 22.8111C85.3689 22.9544 83.0976 25.3447 83.8217 25.8275C83.9338 25.9023 86.138 24.6649 86.5102 24.516C86.8512 24.3796 87.9443 23.7482 88.2807 23.8603C88.5725 23.9576 88.65 24.279 89.002 24.1226C89.4644 23.917 89.0648 23.665 89.461 23.4668C90.4929 22.9509 92.6683 22.9423 93.6577 22.9423C94.0518 22.9423 94.4451 22.9787 94.838 23.0078C95.4202 23.0509 97.7224 23.8612 98.1167 23.4668C96.3368 19.907 89.2234 20.3247 86.379 22.2209Z" fill="#89be59" fill-rule="nonzero" opacity="1" stroke="none"/>
<path d="M82.0512 49.4995C81.788 49.7627 81.4115 49.7458 81.1332 50.0241C82.7926 51.6835 87.896 52.5465 89.8544 52.0569C90.6773 51.8512 91.3534 51.3753 92.0184 50.8766C92.1167 50.9421 92.1167 50.9421 92.2151 51.0077C92.1058 51.2263 91.9965 51.4449 91.8872 51.6634C92.2292 52.0054 94.941 49.6865 94.7725 48.8438C94.7603 48.7832 94.7 48.7322 94.6413 48.7126C94.2067 48.5678 93.9726 48.3718 93.6577 48.0569C94.1954 47.2504 94.4878 47.5835 95.2315 47.3356C95.2315 45.0649 93.861 47.1978 93.002 48.0569C92.6083 48.4506 91.7964 49.0304 91.2315 49.1717C90.6653 49.3132 89.9947 49.7384 89.461 49.8274C87.3743 50.1752 84.1208 50.5343 82.0512 49.4995Z" fill="#4e6e31" fill-rule="nonzero" opacity="1" stroke="none"/>
<path d="M76.0184 54.2864C75.931 54.2427 75.8436 54.199 75.7561 54.1552C75.3774 54.534 76.1778 55.1742 76.4119 55.4667C76.1232 55.8276 76.2517 55.8525 76.084 56.188C76.3151 56.4191 76.8338 57.1431 77.1988 56.7782C77.1113 56.647 77.0239 56.5159 76.9365 56.3847C77.002 56.3192 77.002 56.3192 77.0676 56.2536C77.4611 56.6142 77.4611 56.6142 77.8545 56.9749C77.0258 57.8036 78.3082 58.4229 79.0348 57.6962C79.432 58.0934 80.1618 58.0814 80.6742 58.2864C82.7424 59.1137 85.3595 59.3646 87.6905 59.0733C88.0264 59.0313 91.5226 58.3735 90.9036 57.6306C90.3488 56.9648 88.8423 57.4387 88.084 57.5651C85.8465 57.938 85.1063 57.5235 83.2971 57.106C83.0129 57.0405 82.6508 57.1155 82.4446 56.9093C82.5758 56.7782 82.5758 56.7782 82.7069 56.647C82.1827 56.1228 79.6867 56.3153 78.9037 55.5323C78.702 55.6331 78.8132 55.5707 78.5758 55.729C78.6086 55.7946 78.6086 55.7946 78.6414 55.8601C77.9909 56.5106 77.4946 55.5547 76.8709 55.1388C77.0348 54.9421 77.0348 54.9421 77.1988 54.7454C76.8873 54.4339 76.3873 53.9175 76.0184 54.2864Z" fill="#c6e773" fill-rule="nonzero" opacity="1" stroke="none"/>
<path d="M76.2807 19.4013C77.5508 20.6714 76.2834 20.2458 76.084 20.8439C75.9687 21.1898 76.2215 21.3559 76.084 21.6308C76.2709 21.8177 76.1809 21.7105 76.3463 21.9586C77.716 20.5889 77.7636 19.2333 80.0184 19.0078C80.453 18.9644 80.8046 18.876 81.1332 19.2046C80.5933 19.7445 79.7311 19.7542 79.2315 20.2537C79.4811 20.7529 78.6049 21.4632 79.0348 21.8931C79.6958 21.2321 80.534 21.7787 81.3955 21.4341C82.5658 20.9659 82.3593 19.6217 83.0348 18.8111C83.1622 18.6582 83.5483 18.531 83.625 18.3521C83.7827 17.9841 83.2795 17.8755 83.1004 17.6964C83.6924 17.0057 84.7355 16.718 85.2643 16.057C85.4008 15.8864 85.0161 15.6958 84.8709 15.5324C84.7661 15.4146 84.6076 14.8328 84.4774 14.8111C83.9043 14.7156 82.6139 15.1283 82.3135 15.7292C81.8734 16.6093 82.2105 16.9694 81.3299 17.7619C81.1089 17.9609 79.9988 18.1252 79.8217 18.0898C79.6671 18.0589 79.5843 17.8052 79.4283 17.8275C77.7683 18.0646 77.5464 18.2147 76.2807 19.4013Z" fill="#89be59" fill-rule="nonzero" opacity="1" stroke="none"/>
<path d="M78.6414 26.1554C78.0078 26.7889 75.8984 28.2915 75.625 28.975C75.1098 30.2629 75.5752 32.2379 74.5102 33.3029C74.1824 33.6307 73.6545 33.4351 73.2643 33.5652C73.2643 35.9883 72.7905 38.2852 73.3299 40.7127C73.4243 41.1372 73.4726 41.7734 73.7889 42.0897C74.2609 41.6178 73.9092 40.5102 73.9857 39.8602C74.0543 39.2768 74.8381 37.9847 74.8381 37.6963C74.8381 36.6469 74.7725 35.5982 74.7725 34.5488C74.7725 34.1612 74.8785 33.5904 75.166 33.3029C75.7094 33.6651 75.5197 34.8921 76.1496 35.2701C76.5346 35.5011 76.3928 32.7451 76.4119 32.516C76.528 31.1222 76.9672 28.9443 77.9856 27.9258C77.722 27.3985 79.1361 26.6501 78.6414 26.1554Z" fill="#89be59" fill-rule="nonzero" opacity="1" stroke="none"/>
<path d="M98.1167 32.4504C98.0511 32.516 98.0511 32.516 97.9856 32.5816C98.6097 33.8297 99.2009 34.8784 98.9692 36.3848C98.7813 37.6061 97.5108 40.3691 98.4446 41.3028C99.0742 40.6732 99.1225 38.1331 99.8872 37.3684C99.9415 37.4227 100.16 40.5711 99.6905 41.0405C99.9751 41.6098 98.5857 44.6271 98.2478 45.3028C98.0793 45.64 97.4713 46.3623 97.7888 46.6799C98.3206 46.414 98.682 46.8871 98.9692 47.27C101.092 45.1472 101.199 42.0743 101.199 39.2045C101.199 38.602 100.749 37.2421 100.215 36.975C100.117 37.0733 100.117 37.0733 100.018 37.1717C99.588 36.7414 99.9313 35.6658 99.8216 35.0078C99.6623 34.0522 98.7229 33.124 98.1167 32.4504Z" fill="#a3d056" fill-rule="nonzero" opacity="1" stroke="none"/>
<path d="M87.3626 26.4176C86.8717 26.9086 86.135 27.2112 85.5922 27.6635C84.547 28.5345 81.0911 32.3109 81.3299 34.2209C81.3612 34.4718 82.0485 34.7827 82.2479 34.9422C82.5284 34.6617 82.5472 34.0063 82.7725 33.6307C83.4311 32.5331 84.1311 31.1731 85.2643 30.4176C85.1331 30.2428 85.002 30.0679 84.8709 29.893C86.2831 28.4808 87.6302 27.4869 89.461 26.8767C90.0446 26.6821 90.8248 26.6621 91.3626 26.4176C91.5494 26.3327 91.6501 26.0581 91.8872 26.0242C92.3847 25.9531 92.1493 26.1741 92.4774 26.2209C94.9825 26.5788 97.0554 26.6545 99.1003 28.1881C99.6208 27.6676 98.6602 27.2827 98.2478 27.0078C97.2036 26.3117 95.8488 25.8266 94.5757 25.6308C93.6832 25.4935 92.8898 25.434 91.9528 25.434C90.9681 25.434 89.8484 25.7906 88.9364 26.1554C88.6692 26.2622 88.0386 26.7364 87.7561 26.6799C87.6833 26.6654 87.4217 26.4767 87.3626 26.4176Z" fill="#9fba94" fill-rule="nonzero" opacity="1" stroke="none"/>
<path d="M88.9364 24.057C89.3996 24.5202 90.5647 24.0208 91.1659 23.9914C91.8649 23.9573 92.5645 23.9259 93.2643 23.9259C93.3575 23.9259 93.4788 24.0748 93.5266 24.1226C93.1076 24.5415 92.0905 24.6078 91.4938 24.7783C90.069 25.1854 88.5966 25.6606 87.3626 26.4832C87.4495 26.6135 87.7004 26.8578 87.8872 26.8111C89.2721 26.4649 90.374 25.7225 91.8872 25.6308C94.6228 25.465 96.9998 26.1143 99.1003 27.7947C99.8458 27.2977 99.0697 26.7032 98.6413 26.4176C97.4538 25.626 95.4297 25.9601 94.4446 24.975C95.1533 24.2663 98.2033 25.1507 98.6413 24.7127C98.3618 24.4332 97.5158 23.9241 97.1331 23.8603C97.0262 23.8425 95.6829 24.0495 95.3626 23.7291C95.6503 23.4414 95.9964 23.5543 96.3462 23.2045C95.9239 22.7822 94.1944 22.9176 93.7233 22.8767C93.1818 22.8296 90.0186 22.8503 89.3299 23.4013C89.0399 23.6332 89.1972 23.7962 88.9364 24.057Z" fill="#568645" fill-rule="nonzero" opacity="1" stroke="none"/>
<path d="M71.1004 24.3193C71.3281 24.4711 71.5323 24.5448 71.7562 24.7127C72.1793 24.2896 71.9789 24.4592 72.6086 24.3193C72.7283 24.2927 73.2097 23.3382 73.3299 23.2045C73.7524 22.7351 75.4473 21.2139 75.625 20.3849C75.6665 20.1913 75.505 19.985 75.5594 19.7947C75.5694 19.7596 76.8034 19.0098 76.9365 18.8767C76.6436 18.4374 79.2145 16.7783 77.9201 16.7783C75.8553 16.7783 72.9177 20.0665 72.0184 21.5652C71.6647 22.1548 71.5269 22.9254 71.166 23.4668C70.9933 23.7259 70.5202 23.5582 70.4447 23.8603C70.3257 24.3362 70.7346 24.6852 71.1004 24.3193Z" fill="#c6e773" fill-rule="nonzero" opacity="1" stroke="none"/>
<path d="M100.215 32.057C100.117 32.1553 100.117 32.1553 100.018 32.2537C101.33 34.8765 102.033 38.1826 101.854 41.0405C101.794 41.999 100.669 45.0299 100.936 45.5651C101.179 45.4437 102.003 44.9179 102.117 44.9749C103.612 43.48 102.657 41.2512 102.707 39.4012C102.743 38.0555 103.089 33.6011 101.461 32.516C101.144 32.3044 100.579 32.2389 100.215 32.057Z" fill="#4e6e31" fill-rule="nonzero" opacity="1" stroke="none"/>
<path d="M100.149 45.4995C99.6278 46.0212 99.0186 46.9657 98.838 47.5979C98.7654 47.8519 98.4734 47.6574 98.3134 47.7946C98.0027 48.0609 97.7205 48.3286 97.3954 48.5815C96.6294 49.1773 96.1348 50.1408 95.4938 50.9421C95.7718 51.2201 95.9238 50.8911 96.2151 50.7454C96.2806 50.811 96.2806 50.811 96.3462 50.8766C95.4676 51.7552 94.0021 51.9748 93.3298 52.647C93.3954 52.7126 93.3954 52.7126 93.461 52.7782C92.0002 54.239 94.9504 53.4683 95.4938 53.1061C97.0115 52.0943 98.4529 50.9283 99.4282 49.3028C99.6869 48.8715 99.7038 48.2531 99.8872 47.7946C100.084 47.3023 100.556 45.9063 100.149 45.4995Z" fill="#4e6e31" fill-rule="nonzero" opacity="1" stroke="none"/>
<path d="M83.1659 59.729C83.5708 60.1338 84.2062 60.1713 84.7397 60.3847C85.1677 60.5559 85.2553 60.7841 85.6577 61.106C86.2959 61.6165 87.6332 61.7003 88.4118 62.0896C89.3139 61.1875 85.6037 61.0829 86.0512 60.188C86.1782 59.934 87.2537 60.1575 87.4938 60.2536C88.3995 60.6159 91.1499 61.466 91.6249 60.5159C91.2923 60.1832 91.2366 59.9308 90.9036 59.5978C91.4069 59.0946 92.5219 59.3322 93.1987 59.1388C94.2021 58.8521 94.9701 58.0887 95.6905 57.3683C95.7462 57.3126 95.8216 57.2504 95.8216 57.1716C95.8216 56.7231 94.5339 57.1377 94.3134 57.1716C93.7584 57.257 92.7913 57.1434 92.3462 57.4995C91.7447 57.9807 91.4507 58.8807 90.6413 59.2044C88.9284 59.8896 86.9525 59.6678 85.1331 59.5978C84.8209 59.5858 83.5719 59.323 83.1659 59.729Z" fill="#89be59" fill-rule="nonzero" opacity="1" stroke="none"/>
<path d="M74.5758 44.6471C74.6742 44.5815 74.6742 44.5815 74.7725 44.5159C72.3135 39.5978 72.4044 32.9534 75.4938 28.3193C75.3519 28.1774 75.0743 27.6504 74.8381 27.7291C73.9971 28.0095 72.7411 32.117 72.543 32.9094C71.6431 36.5092 71.9858 41.6254 74.5758 44.6471Z" fill="#f7fbf0" fill-rule="nonzero" opacity="1" stroke="none"/>
<path d="M117.199 38.4176C117.264 38.352 117.264 38.352 117.33 38.2865C116.321 36.2692 117.33 35.1336 117.461 33.3029C117.524 32.4202 117.592 31.796 117.33 31.0078C117.224 30.6897 116.971 30.436 116.936 30.0898C116.837 29.0967 117.285 28.3048 116.477 27.598C115.266 26.5377 114.969 29.1796 114.969 29.6307C114.969 30.4907 115.823 31.1582 115.887 32.057C116.101 35.05 115.196 36.1646 117.199 38.4176Z" fill="#89be59" fill-rule="nonzero" opacity="1" stroke="none"/>
<path d="M71.4939 43.0077C71.1352 43.3665 70.8792 45.3439 71.166 45.6307C71.5346 45.4464 72.5629 47.3941 72.8053 47.6635C73.4776 48.4104 75.9378 50.5304 77.1332 50.6798C78.0461 50.794 79.4702 50.4831 80.2807 50.4831C80.8109 50.4831 80.5449 50.6779 80.8053 50.4175C80.1969 49.6874 79.3618 50.155 78.4447 49.893C76.977 49.4736 75.7456 48.48 74.8381 47.27C74.3624 47.5079 73.8025 46.4863 73.5266 46.1553C72.6975 45.1604 72.1772 44.0327 71.4939 43.0077Z" fill="#60a041" fill-rule="nonzero" opacity="1" stroke="none"/>
<path d="M73.9857 12.6472C72.9064 12.8631 72.1491 13.3035 71.3627 14.0898C70.9942 14.4584 70.9323 15.0448 70.5758 15.4013C69.8108 16.1663 68.9156 16.7475 68.3463 17.6964C68.056 18.1802 67.3114 19.8746 67.6906 20.2537C67.9499 19.9944 67.9491 19.4731 68.1496 19.139C68.7696 18.1057 69.5919 17.1457 70.6414 16.516C71.0262 16.2852 71.4404 16.2477 71.8217 16.057C72.3409 15.7974 72.5854 15.0956 73.1988 14.9423C74.2138 14.6885 75.3545 14.9505 76.1496 14.1554C76.785 13.5199 75.77 12.8704 73.9857 12.6472Z" fill="#89be59" fill-rule="nonzero" opacity="1" stroke="none"/>
<path d="M98.5101 44.5159C97.4454 45.5807 96.4542 46.6336 95.297 47.5979C95.8099 48.6236 94.8798 48.3667 94.6413 48.8438C94.1703 49.7858 93.6621 50.3476 92.8052 51.2044C92.4858 51.5239 92.0203 51.4648 91.7561 51.729C91.4977 51.9874 91.3948 52.254 91.1003 52.4503C91.4268 52.9401 95.1042 51.6596 95.6905 51.0733C95.6577 51.0077 95.6577 51.0077 95.6249 50.9421C95.9339 50.6332 97.1924 49.3621 96.8052 48.9749C96.5675 49.0938 96.3743 49.1904 96.1495 49.3028C96.0839 49.2372 96.0839 49.2372 96.0184 49.1717C96.3236 48.5612 97.7584 47.1903 97.8544 46.6143C97.8974 46.3565 97.8533 46.1568 98.0511 45.893C98.2434 45.6367 98.7538 44.7595 98.5101 44.5159Z" fill="#60a041" fill-rule="nonzero" opacity="1" stroke="none"/>
<path d="M75.166 27.4012C75.5241 27.0431 75.8327 26.617 76.1496 26.2209C75.9853 26.0567 75.9204 26.1229 75.7561 25.9586C77.0234 24.6914 76.9781 23.0414 77.9856 21.6308C78.9502 20.2805 80.1945 20.2743 81.2643 19.2046C79.4458 17.3861 76.9548 20.6761 76.2807 22.0242C76.0722 22.4413 75.2698 22.9806 75.2316 23.4013C75.1781 23.9894 75.1997 24.5821 75.166 25.1718C75.1442 25.5522 74.8637 27.099 75.166 27.4012Z" fill="#c6e773" fill-rule="nonzero" opacity="1" stroke="none"/>
<path d="M92.0184 67.3355C92.6156 67.9327 95.309 66.3996 96.0839 66.0896C98.0451 65.3051 100.035 65.8929 102.051 65.8929C102.989 65.8929 103.806 65.2066 104.477 64.647C104.171 64.3409 102.036 64.7355 101.461 64.647C100.826 64.5493 100.202 64.2964 99.5593 64.2536C96.5285 64.0515 96.0815 65.1337 93.7233 66.5486C93.2327 66.843 92.3947 66.9592 92.0184 67.3355Z" fill="#89be59" fill-rule="nonzero" opacity="1" stroke="none"/>
<path d="M77.7889 41.3684C78.0748 41.9402 78.8682 42.743 79.2971 43.1389C79.3292 43.1685 79.3892 43.1584 79.4283 43.1389C79.9046 42.9007 80.2984 42.6883 80.8053 43.1389C81.6011 43.8463 81.3641 44.0283 81.6578 44.9094C81.8162 45.3846 84.0804 45.924 84.543 46.1553C84.6086 46.0897 84.6086 46.0897 84.6741 46.0241C84.3404 45.6904 83.9842 45.414 83.625 45.1061C84.2259 44.2047 85.6163 45.4098 86.3135 44.7127C85.8387 44.2379 84.1038 42.9849 83.625 42.7454C83.3506 42.6082 83.0137 42.811 82.7069 42.811C82.1279 42.811 81.6942 42.1553 81.1987 42.1553C80.6931 42.1553 80.4231 42.2465 79.9528 42.0897C79.4317 41.916 78.2077 40.9496 77.7889 41.3684Z" fill="#4e6e31" fill-rule="nonzero" opacity="1" stroke="none"/>
<path d="M79.1004 28.5816C78.3356 29.3464 78.1219 31.2498 77.8545 32.3193C77.7802 32.6165 77.9107 32.8532 77.6578 33.1061C77.4265 32.8749 77.544 32.9509 77.3299 32.8438C76.9606 33.2131 77.2793 33.114 77.0676 33.6963C76.3853 35.5726 77.2268 37.7712 78.3135 39.4012C78.6124 39.8495 79.0946 40.9113 79.6905 40.7127C78.9789 39.2893 78.1134 38.1294 78.0512 36.4504C78.0294 35.8602 77.6992 35.0975 78.1168 34.6799C78.3049 34.8053 78.3817 34.9763 78.5758 35.0733C79.1331 34.5161 78.6862 33.5005 78.7069 32.7127C78.7511 31.0355 80.397 29.8782 79.1004 28.5816Z" fill="#4e6e31" fill-rule="nonzero" opacity="1" stroke="none"/>
<path d="M83.6905 25.5652C83.4389 25.8168 83.0438 25.9594 82.9037 26.2865C82.8653 26.3759 82.4564 28.3828 82.9037 27.9914C84.2796 26.7874 85.4218 25.8799 86.9692 25.1062C87.2567 24.9624 87.3842 24.4189 87.6905 24.3849C88.4304 24.3027 88.9133 25.0638 88.3463 25.6308C88.5542 25.8387 88.5383 25.9465 88.8053 25.8931C89.6259 25.7289 93.2856 24.6259 93.7233 24.1881C93.6355 24.0711 93.4633 23.8007 93.2643 23.7947C92.587 23.7742 91.9089 23.7778 91.2315 23.7947C90.5824 23.8109 89.7679 24.2019 89.1331 24.1226C88.8196 24.0834 88.6292 23.805 88.3463 23.6636C88.0845 23.5327 86.7234 24.2455 86.4446 24.3849C85.9258 24.6443 84.108 25.9827 83.6905 25.5652Z" fill="#60a041" fill-rule="nonzero" opacity="1" stroke="none"/>
<path d="M92.0184 36.2537C91.7728 36.4993 91.9096 36.4211 91.6249 36.516C91.6249 37.5042 89.5099 40.7371 88.543 40.2537C88.1877 40.6089 87.6038 40.5155 87.1659 40.7782C90.401 44.0133 94.4061 38.3003 92.0184 36.2537Z" fill="#a3d056" fill-rule="nonzero" opacity="1" stroke="none"/>
<path d="M104.215 34.0897C103.864 34.4404 104.149 35.0496 104.149 35.5324C104.149 37.1956 103.675 39.0414 103.559 40.7127C103.517 41.3293 103.358 41.1019 103.625 41.3684C103.781 41.2122 103.76 41.1245 103.822 40.9094C103.948 40.4687 104.026 39.9766 104.215 39.5979C104.539 38.9499 105.264 39.957 105.264 40.3192C105.264 40.7275 104.734 41.3626 105.133 41.7618C105.538 41.3573 106.091 41.0757 106.379 40.5815C106.545 40.2966 106.168 39.4309 106.117 39.0733C105.971 38.0528 105.149 34.5569 104.215 34.0897Z" fill="#60a041" fill-rule="nonzero" opacity="1" stroke="none"/>
<path d="M100.084 21.4996C99.9855 21.598 99.9855 21.598 99.8872 21.6964C100.33 22.5816 101.412 22.9488 101.92 23.7947C102.319 24.4603 102.01 25.5245 102.576 26.0898C102.978 25.8212 102.88 25.0462 103.035 24.5816C103.365 24.9118 104.046 26.0713 104.608 25.6963C104.417 25.4087 104.525 25.5627 104.281 25.2373C104.823 24.6947 105.673 25.5684 105.986 25.9586C106.793 25.4203 104.77 23.8323 104.477 23.598C103.945 23.1722 103.387 22.7699 102.904 22.2865C102.751 22.1343 102.508 21.5691 102.313 21.4996C101.606 21.2469 100.803 21.8593 100.084 21.4996Z" fill="#c6e773" fill-rule="nonzero" opacity="1" stroke="none"/>
<path d="M62.3791 32.057C62.0508 32.3853 62.0116 33.7299 61.789 34.2865C61.1942 35.7734 60.2438 37.2612 60.4119 38.9422C60.5306 40.1288 61.5189 40.8964 62.1169 41.893C62.6142 42.7219 62.4901 43.6886 62.9037 44.5159C63.1437 44.276 63.2648 43.6758 63.2972 43.3356C63.5104 41.0965 61.7794 40.279 61.5923 38.2209C61.4884 37.0781 62.9746 32.6524 62.3791 32.057Z" fill="#89be59" fill-rule="nonzero" opacity="1" stroke="none"/>
<path d="M74.9037 37.4996C73.0617 39.3415 73.7335 42.2789 74.5758 44.3848C74.7635 44.8541 76.5592 46.8604 77.1332 46.2864C76.161 44.342 75.5769 42.6185 75.0348 40.4504C75.013 40.3629 75.2646 37.6638 74.9037 37.4996Z" fill="#4e6e31" fill-rule="nonzero" opacity="1" stroke="none"/>
<path d="M91.2971 26.3521C91.8618 27.4815 92.1604 29.2467 93.8544 27.7947C93.9856 27.9258 93.9856 27.9258 94.1167 28.057C94.94 27.2337 95.9933 28.3486 96.7397 28.6471C97.0853 28.7854 97.3289 28.189 97.5921 27.9258C97.5484 27.8384 97.5047 27.751 97.461 27.6635C97.6539 27.4706 97.7926 27.5942 97.9856 27.4012C96.7328 26.1484 94.0101 26.3963 92.4774 26.0898C92.1415 26.0226 92.3907 25.8211 91.8872 25.8931C91.6642 25.9249 91.4098 26.2393 91.2971 26.3521Z" fill="#60a041" fill-rule="nonzero" opacity="1" stroke="none"/>
<path d="M97.5265 41.7618C97.1703 42.1181 96.5764 43.4835 96.0184 43.2045C95.1995 44.0233 93.8468 43.784 92.8708 44.5159C91.9993 45.1696 91.5487 46.2498 90.7069 46.811C91.0499 47.3255 91.6404 47.5478 92.0184 47.9258C92.5573 47.5665 92.9078 46.5773 93.3954 46.0897C94.4602 45.0249 96.0902 45.0311 97.002 43.6635C97.2479 43.2946 97.8502 42.0855 97.5265 41.7618Z" fill="#c4de52" fill-rule="nonzero" opacity="1" stroke="none"/>
<path d="M101.199 56.2536C101.264 56.3192 101.264 56.3192 101.33 56.3847C103.74 55.1796 104.242 53.3149 105.33 51.1389C105.015 50.8242 104.08 51.1587 103.69 51.27C101.427 51.9167 102.007 54.6376 101.199 56.2536Z" fill="#89be59" fill-rule="nonzero" opacity="1" stroke="none"/>
<path d="M68.6742 43.6635C68.4667 43.871 67.981 43.935 67.8873 44.1225C67.4861 44.925 67.7562 45.9138 67.7562 46.811C67.7562 47.2579 70.4155 48.8467 70.9037 49.2372C71.1388 49.0021 71.1758 49.0963 71.4939 48.7782C71.2238 48.5082 71.1393 48.0836 71.4283 47.7946C71.1451 47.2283 70.9863 47.2215 70.3791 46.6143C69.6797 45.9149 69.2755 44.0644 68.6742 43.6635Z" fill="#73b544" fill-rule="nonzero" opacity="1" stroke="none"/>
<path d="M100.74 56.5159C99.7344 56.851 98.8938 57.0503 98.1167 57.8274C97.4091 58.535 97.326 59.3046 96.3462 59.7946C96.0147 59.463 96.5189 59.0492 96.2151 58.7454C95.2036 59.7569 94.0653 60.3893 92.8708 61.106C92.5784 61.2815 92.8107 61.6908 92.543 61.9585C92.9347 62.3503 94.2443 61.7922 94.7725 61.6962C96.4298 61.3949 96.9895 59.8726 98.1167 58.7454C98.66 58.2021 99.3046 58.109 99.9528 57.8929C100.352 57.7599 100.988 56.889 100.74 56.5159Z" fill="#89be59" fill-rule="nonzero" opacity="1" stroke="none"/>
<path d="M116.74 46.1553C116.484 46.4109 116.613 48.3366 116.412 49.0405C115.831 51.0743 114.19 52.4935 113.526 54.4831C113.358 54.9898 112.97 56.287 113.33 56.647C113.753 56.224 114.078 55.2299 114.445 54.6798C115.889 52.5129 117.818 50.1228 117.199 47.3356C117.116 46.9659 117.009 46.4249 116.74 46.1553Z" fill="#89be59" fill-rule="nonzero" opacity="1" stroke="none"/>
<path d="M109.133 52.2536C107.273 53.2545 105.797 54.4205 105.199 56.5159C105.064 56.9868 104.978 57.5531 104.674 57.9585C104.487 58.2074 103.901 58.616 103.953 58.8765C103.979 59.009 104.122 59.1721 104.281 59.0733C105.39 58.3799 105.74 57.3246 106.445 56.3847C107.087 55.5277 107.921 54.9086 108.674 54.1552C109.067 53.7623 109.739 51.9274 109.133 52.2536Z" fill="#c6e773" fill-rule="nonzero" opacity="1" stroke="none"/>
<path d="M72.2152 25.3685C71.6194 25.9642 70.7549 30.2231 70.8381 31.1389C70.8786 31.5844 71.5896 30.9032 71.625 30.8766C72.032 31.148 71.5688 31.4762 71.8873 31.7947C71.5602 32.1218 71.8005 34.1341 72.2807 34.6143C72.4157 34.4793 72.8591 31.7173 72.8053 31.6635C72.3929 31.9935 72.4043 31.8796 71.9529 31.7291C72.7271 30.9549 72.1281 29.5451 72.1496 28.4504C72.1575 28.0493 72.3794 27.7285 72.543 27.4012C72.1937 27.0519 71.9844 25.9271 72.4119 25.4996C72.3135 25.434 72.3135 25.434 72.2152 25.3685Z" fill="#89be59" fill-rule="nonzero" opacity="1" stroke="none"/>
<path d="M103.887 12.3193C104.141 12.5736 104.648 12.5292 105.002 12.6472C105.703 12.881 106.309 13.2326 106.838 13.762C108.336 15.2598 108.471 17.3242 110.248 18.7455C110.346 18.68 110.346 18.68 110.445 18.6144C108.483 16.6531 109.575 13.2986 105.92 12.3849C105.355 12.2437 104.292 11.9145 103.887 12.3193Z" fill="#89be59" fill-rule="nonzero" opacity="1" stroke="none"/>
<path d="M112.805 20.2537C111.358 21.0879 112.802 23.0854 113.002 24.3849C113.107 25.067 112.871 25.6128 112.871 26.2865C112.871 26.6735 113.245 27.4407 113.658 27.5324C114.884 27.8049 114.212 26.5745 114.182 26.1554C114.127 25.3756 114.274 24.4493 113.985 23.7291C113.761 23.1688 113.215 22.7465 113.067 22.1554C112.932 21.6125 113.194 20.0296 112.805 20.2537Z" fill="#89be59" fill-rule="nonzero" opacity="1" stroke="none"/>
<path d="M104.215 16.1882C104.04 16.363 103.845 16.5197 103.69 16.7128C103.656 16.756 104 17.5867 104.018 17.6964C104.176 18.6442 104.008 20.1124 104.74 20.8439C105.138 20.4452 104.739 19.9269 105.133 19.5324C106.002 20.4012 106.579 21.4462 107.559 22.2865C108.2 21.6461 106.986 21.1945 106.576 20.6472C105.91 19.7595 105.954 18.6281 105.395 17.6964C105.059 17.1352 104.606 16.7095 104.215 16.1882Z" fill="#c6e773" fill-rule="nonzero" opacity="1" stroke="none"/>
<path d="M100.608 29.7619C100.445 29.9258 100.445 29.9258 100.281 30.0898C100.53 30.5878 101.654 32.0652 101.395 32.5816C101.795 32.9814 101.854 33.8492 102.379 34.0242C102.379 34.5024 102.977 35.7367 103.297 36.057C103.602 35.8534 103.58 35.3686 103.625 35.0078C103.856 33.1561 102.446 31.8511 101.33 30.5488C100.836 29.9724 101.079 30.2323 100.608 29.7619Z" fill="#c6e773" fill-rule="nonzero" opacity="1" stroke="none"/>
<path d="M81.7889 25.3685C82.071 25.2274 82.4111 25.1885 82.7069 25.0406C82.7725 25.1062 82.7725 25.1062 82.8381 25.1718C82.0755 25.9343 80.6605 26.2482 80.1496 27.2701C80.4774 27.598 80.4774 27.598 80.8053 27.9258C81.0946 27.6366 82.432 25.6181 83.1004 26.2865C83.9012 25.4857 84.1837 24.5142 84.8709 23.598C84.2335 22.7482 81.4026 24.7891 81.7889 25.3685Z" fill="#4e6e31" fill-rule="nonzero" opacity="1" stroke="none"/>
<path d="M72.084 41.893C71.8259 42.1511 71.4283 42.6851 71.4283 43.0733C71.4283 43.879 74.3671 47.264 74.7725 47.4667C74.8381 47.4012 74.8381 47.4012 74.9037 47.3356C74.7989 47.126 74.7589 47.1143 74.8381 46.8766C75.0794 46.8766 75.1055 47.0026 75.2971 46.811C73.8361 45.35 73.3257 43.4451 72.084 41.893Z" fill="#4e6e31" fill-rule="nonzero" opacity="1" stroke="none"/>
<path d="M68.3463 48.6471C67.6728 49.3206 70.2022 52.6865 70.707 53.2372C71.0309 53.5906 71.3516 53.9474 71.6906 54.2864C72.0125 54.6083 72.4052 55.2111 72.8053 54.811C71.2463 53.2519 70.3135 49.6306 68.3463 48.6471Z" fill="#89be59" fill-rule="nonzero" opacity="1" stroke="none"/>
<path d="M106.707 48.6471C105.757 48.9636 105.615 49.7191 106.313 50.4175C105.449 52.1461 108.346 53.2595 108.346 50.7454C108.346 50.3801 107.8 50.1926 107.625 49.9585C107.298 49.5226 108.101 49.2455 106.707 48.6471Z" fill="#f7fbf0" fill-rule="nonzero" opacity="1" stroke="none"/>
<path d="M92.3462 55.5979C92.5661 56.0376 92.5357 57.473 92.6085 57.4995C93.4903 57.8201 95.8487 57.3142 96.2806 56.4503C95.7963 55.966 92.7417 55.2024 92.3462 55.5979Z" fill="#60a041" fill-rule="nonzero" opacity="1" stroke="none"/>
<path d="M79.9528 42.6799C78.2914 42.9899 79.6044 45.6963 81.0676 45.6963C81.3546 45.6963 81.5855 45.4669 81.7233 45.2372C82.4287 44.0617 80.808 42.5203 79.9528 42.6799Z" fill="#a3d056" fill-rule="nonzero" opacity="1" stroke="none"/>
<path d="M110.51 45.3684C110.143 45.5521 110.135 45.925 109.854 46.2208C108.755 47.3808 108.088 47.9198 107.297 48.9749C107.55 49.3539 107.361 50.352 107.953 50.352C108.107 50.352 108.706 49.311 108.805 49.1717C109.271 48.5201 111.431 46.2896 110.51 45.3684Z" fill="#c6e773" fill-rule="nonzero" opacity="1" stroke="none"/>
<path d="M98.4446 18.6144C98.3462 18.7128 98.3462 18.7128 98.2478 18.8111C99.0641 20.4436 99.7805 20.9312 101.789 20.8439C101.851 20.8412 101.892 20.768 101.92 20.7128C102.023 20.5067 101.686 20.1743 101.592 20.057C100.692 18.9315 100.112 18.68 98.4446 18.6144Z" fill="#89be59" fill-rule="nonzero" opacity="1" stroke="none"/>
<path d="M75.166 23.2045C74.3133 24.0572 73.4115 28.3353 74.0512 28.975C75.2815 28.1548 75.1606 26.4786 75.2316 25.2373C75.2561 24.8083 75.5433 23.5819 75.166 23.2045Z" fill="#60a041" fill-rule="nonzero" opacity="1" stroke="none"/>
<path d="M95.297 39.2701C94.3971 39.72 93.6986 41.1308 93.002 41.8274C92.2554 42.574 91.3689 43.0254 90.5102 43.5979C90.9672 44.0549 91.6351 43.56 92.0839 43.3356C93.1771 42.789 96.6061 40.5791 95.297 39.2701Z" fill="#89be59" fill-rule="nonzero" opacity="1" stroke="none"/>
<path d="M98.5757 24.9095C98.9436 24.9095 99.3563 24.9391 99.6905 25.1062C99.8773 24.9193 99.7873 25.0265 99.9528 24.7783C100.253 25.0783 100.509 25.665 101.002 25.1718C100.344 23.8551 99.0624 23.5324 97.7233 23.5324C97.3484 23.5324 96.6713 22.9759 96.3462 23.0734C96.2687 23.0967 95.1269 23.6512 95.2315 23.8603C95.4206 24.2385 98.2034 23.7925 98.5757 24.9095Z" fill="#60a041" fill-rule="nonzero" opacity="1" stroke="none"/>
<path d="M73.9857 55.5323C73.8183 55.6997 73.7255 55.6296 73.5266 55.729C73.2757 55.4781 73.3346 54.7454 72.7398 54.7454C71.6171 54.7454 72.1428 55.9672 73.0021 56.2536C73.0021 58.5521 76.0865 57.0421 73.9201 55.5979C74.1148 55.4031 74.3548 55.4254 74.5758 55.2044C75.8852 53.895 71.7109 54.0158 73.9857 55.5323Z" fill="#f7fbf0" fill-rule="nonzero" opacity="1" stroke="none"/>
<path d="M99.9528 27.2045C99.5655 27.5918 99.7929 28.1431 99.6249 28.6471C99.4119 29.2862 98.9601 29.1945 98.838 29.4996C98.8137 29.5605 98.8033 29.6407 98.838 29.6963C99.1278 30.1601 99.7144 30.2448 100.084 30.6144C100.51 31.0405 100.823 31.5878 101.199 32.057C101.757 31.4987 100.12 30.5439 100.608 29.893C100.999 30.1531 100.753 29.9649 101.264 30.5488C101.368 30.4793 101.566 30.2865 101.592 30.1553C101.606 30.0876 101.554 30.0221 101.527 29.9586C101.369 29.5906 101.238 29.72 100.936 29.3685C100.423 28.77 100.488 27.7393 99.9528 27.2045Z" fill="#a3d056" fill-rule="nonzero" opacity="1" stroke="none"/>
<path d="M74.5758 24.057C72.7846 25.8483 72.8724 25.5843 73.0676 28.1226C73.1035 28.5884 72.9995 29.1692 73.3299 29.4996C73.5605 29.3843 73.9749 29.0037 73.9857 28.7127C74.0059 28.1666 73.9686 27.6196 73.9857 27.0734C74 26.6138 74.7355 24.2167 74.5758 24.057Z" fill="#c6e773" fill-rule="nonzero" opacity="1" stroke="none"/>
<path d="M65.7234 57.3028C66.0553 57.0538 65.9845 56.9761 66.3136 56.647C65.9855 56.2096 65.5251 55.9241 65.1332 55.5323C64.6569 55.056 64.69 54.279 64.1496 53.8929C63.4991 53.4283 62.9937 54.425 63.166 54.9421C63.5421 56.0704 64.7964 56.6847 65.7234 57.3028Z" fill="#a3d056" fill-rule="nonzero" opacity="1" stroke="none"/>
<path d="M82.0512 49.5651C82.3837 49.8976 85.045 50.1299 85.5266 50.1553C86.1163 50.1863 86.7065 50.2208 87.2971 50.2208C87.7429 50.2208 88.2933 50.2738 88.6085 49.9585C88.9408 50.1247 89.3317 50.0878 89.5921 49.8274C89.5484 49.7837 89.5228 49.699 89.461 49.6962C88.522 49.6545 87.581 49.7147 86.6413 49.6962C86.2387 49.6883 82.9695 48.7472 82.9037 48.7782C82.5538 48.9429 82.373 49.3506 82.0512 49.5651Z" fill="#60a041" fill-rule="nonzero" opacity="1" stroke="none"/>
<path d="M63.8218 24.516C62.3032 25.2753 63.4675 27.9116 63.625 29.1717C63.6705 29.5354 63.5129 30.1087 63.7562 30.3521C64.6512 29.457 64.0185 27.524 64.0185 26.4176C64.0185 25.491 64.9907 25.3571 63.8218 24.516Z" fill="#89be59" fill-rule="nonzero" opacity="1" stroke="none"/>
<path d="M81.461 46.352C81.0192 46.5729 80.6431 47.2461 81.3299 47.5323C81.7125 47.6917 82.2218 47.4274 82.6414 47.5323C83.4653 47.7383 85.6878 49.6662 86.5758 48.7782C86.2017 48.4041 85.3668 48.4945 84.8709 48.1225C84.1938 47.6147 83.3078 46.4176 81.461 46.352Z" fill="#c6e773" fill-rule="nonzero" opacity="1" stroke="none"/>
<path d="M97.3298 27.6635C97.3735 27.751 97.4173 27.8384 97.461 27.9258C97.1331 28.2537 97.1331 28.2537 96.8052 28.5816C97.2559 29.2576 98.1128 29.6523 98.6413 30.2865C98.8708 30.0898 98.8708 30.0898 99.1003 29.893C98.7636 29.388 99.8954 29.2796 99.297 28.2537C98.9056 27.5827 97.9046 27.0888 97.3298 27.6635Z" fill="#4e6e31" fill-rule="nonzero" opacity="1" stroke="none"/>
<path d="M79.2315 20.2537C78.0989 20.4396 77.4412 21.9953 77.1332 23.0734C77.0613 23.3248 76.5873 24.7737 77.3955 24.4504C78.1866 24.134 79.7238 20.173 79.2315 20.2537Z" fill="#60a041" fill-rule="nonzero" opacity="1" stroke="none"/>
<path d="M75.4938 20.3849C74.3758 21.5029 73.2327 22.94 72.543 24.3193C72.8826 24.6589 72.7311 24.4827 73.0021 24.8439C75.0121 23.8389 74.5937 22.1864 75.8217 20.7128C75.6578 20.5488 75.6578 20.5488 75.4938 20.3849Z" fill="#89be59" fill-rule="nonzero" opacity="1" stroke="none"/>
<path d="M90.2479 46.5487C89.1218 46.9855 89.0417 48.9749 90.5758 48.9749C90.9613 48.9749 92.2673 48.1352 92.0839 47.8602C91.7919 47.4222 91.2877 47.171 90.9036 46.811C90.6601 46.5827 90.5391 46.4358 90.2479 46.5487Z" fill="#c6e773" fill-rule="nonzero" opacity="1" stroke="none"/>
<path d="M74.7725 27.7291C74.9873 28.0154 75.148 28.033 75.3627 28.3193C75.9693 27.8644 76.3502 27.0425 76.8709 26.4832C77.6916 25.6017 78.316 25.0478 79.166 24.3193C78.7891 23.754 78.0131 24.502 77.6578 24.7783C76.55 25.6399 75.6095 26.6131 74.7725 27.7291Z" fill="#e2f0d7" fill-rule="nonzero" opacity="1" stroke="none"/>
<path d="M63.2972 50.2864C61.754 50.7015 63.046 53.6073 63.9529 53.0405C64.9524 52.4158 64.4827 49.9675 63.2972 50.2864Z" fill="#89be59" fill-rule="nonzero" opacity="1" stroke="none"/>
<path d="M66.3136 56.5159C65.8752 56.9542 66.0081 56.9525 65.7234 57.2372C66.0684 57.5822 66.5147 57.5888 66.8381 57.9585C67.0997 58.2574 67.0808 58.8274 67.2316 59.2044C67.5384 59.9715 68.1131 60.5018 68.6742 61.106C68.7726 61.0405 68.7726 61.0405 68.8709 60.9749C67.8834 59.9874 68.2309 58.9892 67.8217 57.7618C67.5695 57.0049 66.8758 56.8907 66.3136 56.5159Z" fill="#89be59" fill-rule="nonzero" opacity="1" stroke="none"/>
<path d="M72.543 27.2701C71.3692 28.4439 72.9339 30.617 71.7562 31.7947C72.2021 32.2406 72.4539 31.6517 72.8709 31.8602C73.2388 31.4923 72.8286 31.4703 72.8053 31.1389C72.7242 29.9833 72.8257 28.8218 72.8053 27.6635C72.8003 27.3779 72.7451 27.4048 72.543 27.2701Z" fill="#60a041" fill-rule="nonzero" opacity="1" stroke="none"/>
<path d="M100.608 28.1226C99.4338 28.5293 102.719 30.8946 103.166 30.7455C103.511 30.6304 103.215 29.8308 103.035 29.6307C102.422 28.9505 101.451 27.8309 100.608 28.1226Z" fill="#4e6e31" fill-rule="nonzero" opacity="1" stroke="none"/>
<path d="M98.6413 30.2209C99.1995 30.9652 99.6074 31.6045 100.084 32.3193C100.487 31.9164 101.216 32.8921 101.592 32.516C101.153 31.637 99.6258 29.2364 98.6413 30.2209Z" fill="#568645" fill-rule="nonzero" opacity="1" stroke="none"/>
<path d="M86.6413 18.0242C86.9364 18.3193 86.9364 18.3193 87.2315 18.6144C88.0957 18.1823 90.2262 18.3082 90.5102 18.0242C89.7532 16.5102 87.6347 17.2792 86.6413 18.0242Z" fill="#c6e773" fill-rule="nonzero" opacity="1" stroke="none"/>
<path d="M62.0513 28.7783C61.0081 28.9852 61.4827 31.1389 62.5759 31.1389C63.4806 31.1389 63.4699 28.4969 62.0513 28.7783Z" fill="#89be59" fill-rule="nonzero" opacity="1" stroke="none"/>
<path d="M86.9692 35.4668C88.1498 34.8765 89.105 35.6697 89.7889 36.5815C90.3807 35.9897 89.2734 34.6311 88.7397 34.4176C88.4548 34.3037 88.1285 34.352 87.8217 34.352C87.3671 34.352 86.716 35.0869 86.9692 35.4668Z" fill="#f7fbf0" fill-rule="nonzero" opacity="1" stroke="none"/>
<path d="M89.3954 60.9093C88.1047 61.0333 88.1597 63.0715 89.7233 62.8109C90.979 62.6017 90.1087 60.8408 89.3954 60.9093Z" fill="#f7fbf0" fill-rule="nonzero" opacity="1" stroke="none"/>
<path d="M111.363 41.9586C110.212 42.1878 110.745 43.7946 111.822 43.7946C112.825 43.7946 112.917 41.6489 111.363 41.9586Z" fill="#f7fbf0" fill-rule="nonzero" opacity="1" stroke="none"/>
<path d="M97.5265 46.811C97.2393 47.0983 95.3639 49.4339 96.1495 49.4339C96.8357 49.4339 97.9031 48.2681 98.379 47.8602C98.0295 47.5107 97.8362 47.1206 97.5265 46.811Z" fill="#a3d056" fill-rule="nonzero" opacity="1" stroke="none"/>
<path d="M92.543 12.9095C91.4083 13.2052 91.879 14.8781 93.0675 14.68C94.2904 14.4762 93.4752 12.6666 92.543 12.9095Z" fill="#f7fbf0" fill-rule="nonzero" opacity="1" stroke="none"/>
<path d="M106.838 62.5486C105.923 62.6682 104.888 64.407 106.576 64.2536C107.518 64.1679 108.184 62.3728 106.838 62.5486Z" fill="#89be59" fill-rule="nonzero" opacity="1" stroke="none"/>
<path d="M92.4118 18.1554C89.5996 19.3786 95.7726 19.926 94.0511 18.5488C93.8591 18.3952 93.497 18.3447 93.2643 18.2865C92.9639 18.2114 92.7062 18.0273 92.4118 18.1554Z" fill="#e1eb60" fill-rule="nonzero" opacity="1" stroke="none"/>
<path d="M92.0184 26.2209C90.9896 26.4178 92.1894 26.9731 92.2151 27.2045C92.2562 27.5749 92.0727 28.0678 92.6741 28.1881C93.1873 28.2908 93.9696 27.8283 93.6577 27.2045C93.3725 26.6341 93.0586 26.8355 92.6085 26.7455C92.3813 26.7001 92.2966 26.1677 92.0184 26.2209Z" fill="#f7fbf0" fill-rule="nonzero" opacity="1" stroke="none"/>
<path d="M94.4446 47.2044C92.7316 47.6276 93.7377 49.0901 94.9692 48.8438C96.0545 48.6267 95.4487 46.9564 94.4446 47.2044Z" fill="#e1eb60" fill-rule="nonzero" opacity="1" stroke="none"/>
<path d="M84.8053 17.3685C83.8866 17.7756 84.1308 19.5137 85.3954 19.0078C86.5372 18.5511 85.6217 17.0068 84.8053 17.3685Z" fill="#f7fbf0" fill-rule="nonzero" opacity="1" stroke="none"/>
<path d="M94.2479 14.8111C93.309 14.9879 93.522 16.516 94.5757 16.516C95.7061 16.516 95.6383 14.5494 94.2479 14.8111Z" fill="#f7fbf0" fill-rule="nonzero" opacity="1" stroke="none"/>
<path d="M87.6905 24.2537C86.6392 24.5236 87.0165 26.019 88.1495 25.8931C89.2572 25.77 88.5819 24.0249 87.6905 24.2537Z" fill="#f7fbf0" fill-rule="nonzero" opacity="1" stroke="none"/>
<path d="M99.6249 52.647C98.9738 52.5277 98.3818 54.1701 99.4282 54.2864C100.882 54.4479 100.752 52.8536 99.6249 52.647Z" fill="#f7fbf0" fill-rule="nonzero" opacity="1" stroke="none"/>
<path d="M80.2151 27.2045C79.0572 28.3625 78.8547 28.2458 79.6905 29.4996C80.1513 29.0389 80.5076 28.4052 80.8709 27.8603C80.543 27.5324 80.543 27.5324 80.2151 27.2045Z" fill="#568645" fill-rule="nonzero" opacity="1" stroke="none"/>
<path d="M102.182 57.1716C101.182 57.433 101.494 58.9749 102.641 58.7454C103.658 58.542 102.999 56.9582 102.182 57.1716Z" fill="#f7fbf0" fill-rule="nonzero" opacity="1" stroke="none"/>
<path d="M91.8872 60.647C90.7802 60.8993 91.3402 62.2208 92.3462 62.2208C93.1428 62.2208 93.0695 60.3776 91.8872 60.647Z" fill="#f7fbf0" fill-rule="nonzero" opacity="1" stroke="none"/>
<path d="M80.084 53.1716C79.3103 53.5591 79.5658 54.7454 80.6086 54.7454C80.7964 54.7454 81.1573 54.3444 81.1987 54.2864C81.6805 53.6119 80.4814 52.9726 80.084 53.1716Z" fill="#f7fbf0" fill-rule="nonzero" opacity="1" stroke="none"/>
<path d="M75.8873 19.3357C75.6931 19.4311 75.5198 19.5986 75.4283 19.7947C74.6825 21.3927 78.2861 20.9516 76.4774 19.4013C76.3211 19.2673 76.0294 19.2659 75.8873 19.3357Z" fill="#f7fbf0" fill-rule="nonzero" opacity="1" stroke="none"/>
<path d="M77.1332 54.6798C76.5401 55.2729 76.9354 55.3893 77.6578 55.9913C78.1622 56.4116 79.2207 56.0734 78.7725 55.4011C78.3589 55.6079 77.4994 54.863 77.1332 54.6798Z" fill="#a3d056" fill-rule="nonzero" opacity="1" stroke="none"/>
<path d="M82.7725 63.0732C83.0146 63.3153 83.2553 63.6077 83.4938 63.9257C84.0956 63.7251 84.8357 64.2232 85.2643 63.7945C84.8014 63.3316 83.2709 62.5748 82.7725 63.0732Z" fill="#89be59" fill-rule="nonzero" opacity="1" stroke="none"/>
<path d="M97.92 46.4831C96.9455 46.7779 97.9825 48.2224 98.7069 47.8602C99.5581 47.4345 98.4889 46.311 97.92 46.4831Z" fill="#f7fbf0" fill-rule="nonzero" opacity="1" stroke="none"/>
<path d="M92.0184 14.9423C91.804 14.9797 91.4938 15.2712 91.4938 15.5324C91.4938 16.0429 92.0942 16.5967 92.6085 16.2538C93.3696 15.7464 92.7354 14.8171 92.0184 14.9423Z" fill="#f7fbf0" fill-rule="nonzero" opacity="1" stroke="none"/>
<path d="M71.625 47.5323C70.627 47.8041 71.3394 49.3748 72.084 48.9094C72.8959 48.4019 72.3713 47.3291 71.625 47.5323Z" fill="#f7fbf0" fill-rule="nonzero" opacity="1" stroke="none"/>
<path d="M72.1496 24.1881C71.4084 24.5587 71.6713 25.0869 72.1496 25.5652C72.9111 25.1844 73.304 25.0759 72.1496 24.1881Z" fill="#f7fbf0" fill-rule="nonzero" opacity="1" stroke="none"/>
<path d="M65.33 22.5488C64.8955 22.6075 63.9046 24.092 65.0677 23.9259C65.7909 23.8225 66.3806 22.407 65.33 22.5488Z" fill="#89be59" fill-rule="nonzero" opacity="1" stroke="none"/>
<path d="M104.346 39.3356C103.745 39.6161 104.35 41.0064 105.133 40.7127C105.969 40.3991 104.833 39.1085 104.346 39.3356Z" fill="#f7fbf0" fill-rule="nonzero" opacity="1" stroke="none"/>
<path d="M79.1004 54.6143C78.3657 54.7894 78.6028 55.9977 79.4283 55.8601C80.3581 55.7052 79.8214 54.4424 79.1004 54.6143Z" fill="#e2f0d7" fill-rule="nonzero" opacity="1" stroke="none"/>
<path d="M67.9529 42.9422C67.1826 43.138 67.5789 44.2321 68.3463 44.1225C69.2041 43.9999 68.6193 42.7728 67.9529 42.9422Z" fill="#f7fbf0" fill-rule="nonzero" opacity="1" stroke="none"/>
<path d="M110.379 40.7127C109.584 40.9242 109.942 42.2405 110.707 41.893C111.458 41.5516 111.005 40.5461 110.379 40.7127Z" fill="#f7fbf0" fill-rule="nonzero" opacity="1" stroke="none"/>
<path d="M110.838 52.2536C110.152 52.4059 110.385 53.4339 111.1 53.4339C111.869 53.4339 111.605 52.0831 110.838 52.2536Z" fill="#f7fbf0" fill-rule="nonzero" opacity="1" stroke="none"/>
<path d="M86.4446 22.1554C85.952 22.0899 85.4493 23.136 86.2479 23.3357C87.1789 23.5684 87.1084 22.2436 86.4446 22.1554Z" fill="#e2f0d7" fill-rule="nonzero" opacity="1" stroke="none"/>
<path d="M97.5265 14.6144C96.7987 14.7996 96.9794 15.8448 97.7888 15.7292C98.5128 15.6257 98.1549 14.4545 97.5265 14.6144Z" fill="#f7fbf0" fill-rule="nonzero" opacity="1" stroke="none"/>
<path d="M97.5265 20.3849C96.0149 21.6126 98.7251 21.7328 98.2478 20.7783C98.0729 20.4284 97.7738 20.1841 97.5265 20.3849Z" fill="#f7fbf0" fill-rule="nonzero" opacity="1" stroke="none"/>
<path d="M83.6905 19.0078C82.96 19.0446 82.9827 20.1882 83.7561 20.1882C84.6208 20.1882 84.2296 18.9807 83.6905 19.0078Z" fill="#f7fbf0" fill-rule="nonzero" opacity="1" stroke="none"/>
<path d="M95.5593 42.5487C94.9934 42.4342 94.7307 43.3464 95.4282 43.6635C95.9033 43.8794 96.6393 42.7672 95.5593 42.5487Z" fill="#c6e773" fill-rule="nonzero" opacity="1" stroke="none"/>
<path d="M70.707 33.3684C70.0455 33.4831 70.1603 34.5415 70.9037 34.4176C71.5831 34.3044 71.2858 33.2681 70.707 33.3684Z" fill="#f7fbf0" fill-rule="nonzero" opacity="1" stroke="none"/>
<path d="M102.182 14.6144C101.601 14.86 101.996 16.062 102.576 15.598C103.087 15.1888 102.745 14.3768 102.182 14.6144Z" fill="#f7fbf0" fill-rule="nonzero" opacity="1" stroke="none"/>
<path d="M67.8217 33.1061C67.3745 33.2818 67.5328 34.4309 68.2152 34.0897C69.054 33.6703 68.3106 32.9141 67.8217 33.1061Z" fill="#f7fbf0" fill-rule="nonzero" opacity="1" stroke="none"/>
<path d="M76.8053 46.6799C76.6613 46.7361 76.578 46.8904 76.4774 47.0077C75.7562 47.8492 78.4808 47.771 77.1988 46.7454C77.0679 46.6408 76.9644 46.6178 76.8053 46.6799Z" fill="#f7fbf0" fill-rule="nonzero" opacity="1" stroke="none"/>
</g>
<g id="text">
<text fill="currentColor" font-family="ArialRoundedMTBold" font-size="64" opacity="1" stroke="none" text-anchor="start" transform="matrix(1 0 0 1 14.6118 0)" x="0" y="0">
<tspan textLength="38.0312" x="0" y="61">4</tspan>
</text>
<text fill="currentColor" font-family="ArialRoundedMTBold" font-size="64" opacity="1" stroke="none" text-anchor="start" transform="matrix(1 0 0 1 124.357 0)" x="0" y="0">
<tspan textLength="38.0312" x="0" y="61">4</tspan>
</text>
</g>
</svg>
