<?xml version="1.0" standalone="no"?>
<!DOCTYPE svg PUBLIC "-//W3C//DTD SVG 20010904//EN"
 "http://www.w3.org/TR/2001/REC-SVG-20010904/DTD/svg10.dtd">
<svg version="1.0" xmlns="http://www.w3.org/2000/svg"
 width="2048.000000pt" height="2048.000000pt" viewBox="0 0 2048.000000 2048.000000"
 preserveAspectRatio="xMidYMid meet">

<g transform="translate(0.000000,2048.000000) scale(0.100000,-0.100000)"
fill="#000000" stroke="none">
<path d="M9815 20463 c-1835 -87 -3514 -610 -5038 -1570 -892 -563 -1722
-1291 -2408 -2113 -1324 -1588 -2138 -3554 -2323 -5610 -55 -604 -55 -1271 0
-1870 247 -2728 1579 -5232 3717 -6989 1364 -1120 3048 -1884 4787 -2170 588
-97 1059 -135 1685 -135 517 0 840 19 1315 80 1964 250 3830 1080 5340 2374
1056 906 1913 2008 2525 3245 588 1192 922 2413 1031 3775 34 435 29 1176 -12
1645 -193 2208 -1075 4250 -2559 5925 -177 199 -645 665 -845 841 -503 442
-990 800 -1535 1127 -1452 870 -3063 1357 -4774 1442 -181 9 -744 11 -906 3z
m955 -1963 c1265 -87 2468 -447 3554 -1062 482 -274 906 -572 1341 -944 189
-161 662 -634 823 -821 672 -786 1157 -1605 1511 -2554 469 -1261 624 -2619
451 -3959 -109 -835 -368 -1714 -729 -2465 -65 -135 -71 -143 -157 -224 -115
-109 -301 -257 -434 -347 -305 -206 -686 -385 -1010 -474 -63 -17 -125 -35
-138 -41 -13 -5 -30 -9 -39 -9 -20 0 -63 38 -63 56 0 18 -137 399 -161 447
-59 116 -188 341 -236 409 -54 77 -54 78 -42 118 15 49 69 115 115 138 61 31
453 420 642 637 101 116 192 218 203 227 11 9 43 24 72 33 28 10 82 35 119 56
199 117 332 302 374 522 14 75 14 81 -7 145 -23 71 -87 204 -125 262 -22 32
-24 45 -24 162 0 159 21 307 66 465 32 116 34 130 34 283 0 140 -10 239 -75
762 l-75 600 -56 127 c-210 471 -532 941 -875 1278 -85 83 -117 105 -344 239
-220 130 -284 163 -529 267 -256 108 -298 123 -485 168 -186 46 -227 52 -421
66 -241 18 -269 16 -765 -38 -230 -25 -312 -39 -460 -76 -372 -92 -729 -262
-1035 -494 -311 -236 -682 -655 -1003 -1132 l-176 -262 -35 -320 -34 -320 -65
-186 c-49 -139 -76 -237 -107 -395 -41 -202 -42 -212 -31 -289 26 -175 101
-365 205 -515 86 -124 113 -174 126 -232 l12 -55 -65 -84 c-36 -46 -90 -109
-121 -139 l-56 -54 0 -116 c0 -140 20 -287 49 -358 81 -204 282 -341 500 -342
56 0 65 3 83 25 11 14 26 25 33 25 22 0 142 -138 213 -245 108 -163 312 -369
532 -539 252 -194 473 -316 768 -422 113 -41 212 -79 219 -85 15 -13 17 -38 5
-57 -13 -20 -316 48 -517 116 -230 77 -265 72 -334 -48 -171 -295 -252 -462
-339 -701 -49 -134 -102 -289 -116 -344 -18 -67 -48 -264 -92 -604 -35 -277
-64 -514 -64 -527 0 -13 -9 -33 -20 -44 -43 -43 -56 -23 -95 141 -18 79 -58
245 -89 369 -30 124 -120 493 -200 820 -79 327 -192 759 -250 960 -57 201
-175 610 -261 910 -175 612 -330 1111 -348 1122 -6 4 -88 36 -182 72 -118 45
-220 76 -335 101 -202 44 -832 210 -880 231 -19 9 -56 34 -82 56 l-48 40 0
148 0 149 158 82 c207 109 383 241 558 420 l131 134 132 59 c73 32 192 78 264
102 72 24 141 53 152 64 15 16 20 34 20 75 0 51 -3 57 -46 102 -25 26 -64 71
-87 99 -46 57 -142 218 -142 239 0 8 10 25 23 39 19 22 57 33 294 86 149 33
274 60 276 60 3 0 10 23 17 50 14 58 7 109 -21 160 -11 19 -48 121 -83 227
l-64 192 28 39 c16 22 41 48 57 59 15 11 125 57 243 102 157 60 260 107 380
174 l165 92 3 41 c2 33 -2 48 -23 73 -15 17 -35 31 -44 31 -32 0 -399 217
-508 301 -243 187 -253 196 -253 238 0 25 7 44 19 55 11 10 104 46 208 80 368
122 711 281 1065 494 194 117 216 139 187 191 -18 32 26 11 -564 263 -543 232
-543 231 -517 294 7 17 236 244 517 514 278 267 505 491 505 498 0 23 -47 60
-81 66 -19 3 -167 21 -330 40 -162 19 -433 58 -602 87 l-307 54 -15 37 c-20
50 -19 96 3 135 9 17 183 318 386 668 389 672 386 666 323 673 -23 3 -1130
-400 -1221 -444 -65 -31 -144 -6 -167 53 -19 50 -78 335 -103 493 -51 331 -70
722 -50 1053 6 108 6 115 -15 136 -11 11 -33 21 -48 21 -14 0 -87 -32 -162
-72 -266 -140 -518 -311 -756 -513 -118 -101 -387 -369 -455 -454 -44 -55 -73
-67 -108 -45 -24 14 -722 858 -730 882 -5 17 317 135 623 228 683 209 1394
327 2145 358 136 6 642 -3 800 -14z m-4090 -1025 c-56 -246 -121 -448 -235
-733 -18 -44 -39 -62 -74 -62 -11 0 -112 45 -225 99 -144 70 -269 121 -420
173 -119 40 -216 76 -216 79 0 19 487 322 747 465 154 85 474 246 479 241 1
-1 -24 -119 -56 -262z m-1427 -918 c48 -118 92 -229 98 -248 32 -109 68 -321
74 -436 7 -126 7 -128 -16 -149 -32 -28 -84 -48 -110 -41 -17 5 -1170 -95
-1351 -117 -21 -2 -38 0 -38 5 0 40 640 695 885 906 186 161 348 292 360 292
6 1 50 -95 98 -212z m-1307 -1365 c100 -109 260 -289 356 -402 170 -199 177
-210 261 -374 68 -133 87 -179 87 -210 -1 -80 -23 -100 -356 -329 -407 -280
-794 -573 -794 -601 0 -19 38 -34 323 -130 432 -145 567 -218 765 -410 98 -94
222 -257 222 -291 0 -28 7 -21 -434 -488 -197 -209 -292 -317 -294 -334 -5
-37 17 -82 47 -97 14 -7 213 -75 441 -151 454 -151 466 -157 489 -240 16 -59
14 -86 -14 -141 -13 -27 -58 -173 -100 -325 -66 -245 -75 -286 -75 -363 0 -47
3 -86 8 -86 4 0 126 9 272 20 278 21 407 24 508 14 l60 -7 31 -111 c27 -101
30 -128 33 -296 2 -102 7 -190 10 -195 4 -7 39 -8 100 -3 119 9 223 49 326
123 48 35 84 55 102 55 20 0 61 -25 137 -84 141 -108 313 -206 482 -276 121
-49 138 -59 164 -97 24 -33 31 -55 34 -110 5 -60 2 -76 -20 -119 -14 -28 -42
-63 -62 -78 -26 -20 -228 -92 -733 -261 -775 -258 -786 -263 -867 -372 -37
-51 -49 -80 -93 -243 -200 -725 -604 -2136 -614 -2146 -14 -13 -151 -40 -268
-54 -109 -12 -389 -4 -500 15 -444 74 -839 289 -1138 618 -103 113 -137 173
-253 452 -281 678 -477 1421 -568 2155 -49 388 -55 513 -55 1015 0 502 6 624
55 1015 150 1213 574 2397 1225 3422 149 235 496 720 513 717 3 0 88 -89 187
-197z m2893 -782 c41 -6 117 -26 170 -46 319 -119 531 -427 531 -770 0 -90 -3
-108 -36 -192 l-36 -92 -176 5 c-100 3 -258 17 -363 31 l-187 26 -188 -30
c-104 -17 -234 -33 -289 -36 -55 -4 -123 -9 -150 -12 l-51 -6 -46 89 c-64 123
-77 217 -49 353 68 329 322 594 641 670 88 21 128 23 229 10z m1891 -341 c238
-43 446 -126 634 -252 101 -68 116 -82 147 -146 59 -118 29 -281 -69 -374 -27
-26 -35 -29 -89 -25 -32 2 -137 21 -233 41 -126 27 -309 52 -654 91 -263 30
-482 58 -486 63 -36 40 -29 321 10 408 28 62 116 150 174 176 96 42 383 51
566 18z m-2968 -2959 c10 -19 18 -54 18 -77 0 -24 16 -85 39 -145 21 -57 59
-157 83 -223 56 -148 236 -523 265 -552 11 -11 24 -34 27 -50 7 -30 -7 -83
-22 -83 -16 0 -161 209 -215 311 -97 182 -214 526 -243 711 -14 97 -15 119 -4
133 18 21 30 15 52 -25z m-4664 -816 c65 -74 -17 -174 -113 -138 -20 8 -45 56
-45 86 0 78 104 113 158 52z m18401 10 c25 -21 31 -33 31 -67 0 -57 -30 -87
-85 -87 -93 0 -127 121 -46 165 39 21 66 18 100 -11z m-6208 -41 c319 -331
360 -829 101 -1227 -307 -469 -915 -612 -1405 -330 -254 146 -389 301 -484
556 -38 102 -47 138 -51 211 -4 79 -2 96 22 157 23 57 32 70 54 74 56 11 354
48 539 66 192 19 453 64 593 102 186 50 407 208 440 313 21 66 83 133 125 135
6 0 36 -26 66 -57z m1183 -117 c61 -71 179 -160 261 -198 33 -15 160 -53 282
-83 262 -65 482 -93 804 -103 202 -7 206 -7 247 -34 48 -32 77 -86 76 -143 0
-22 -17 -105 -38 -185 -34 -125 -48 -161 -107 -265 -57 -100 -85 -136 -166
-217 -137 -135 -270 -212 -452 -262 -119 -33 -144 -36 -259 -36 -252 1 -457
55 -637 168 -185 117 -327 291 -406 499 -39 103 -41 114 -46 248 -5 119 -2
155 16 240 49 223 124 366 255 486 l51 47 34 -52 c19 -28 57 -78 85 -110z
m-5472 -1543 c29 -34 246 -409 346 -599 55 -105 168 -337 250 -515 126 -273
169 -377 266 -659 129 -371 125 -345 63 -442 -26 -41 -344 -381 -634 -678 -24
-24 -24 -25 -39 -6 -7 11 -14 34 -14 51 0 28 28 60 228 262 125 127 269 270
321 318 l94 87 -33 156 c-19 93 -54 217 -87 306 -71 198 -393 873 -634 1329
-104 197 -189 364 -189 371 0 15 20 36 35 36 7 0 19 -8 27 -17z m-336 -174
c38 -96 67 -237 133 -644 49 -306 64 -428 86 -705 14 -184 35 -385 45 -446 22
-121 26 -278 10 -388 -6 -37 -13 -72 -15 -77 -10 -16 -63 12 -73 39 -6 15 -22
173 -37 352 -34 427 -139 1389 -165 1512 -12 53 -24 128 -27 166 -5 66 5 268
13 259 2 -2 16 -33 30 -68z m-1498 -354 c2 -152 -3 -293 -13 -415 -9 -102 -20
-309 -25 -460 -7 -236 -21 -406 -45 -587 -7 -48 -25 -56 -49 -21 -14 19 -16
77 -16 433 1 371 4 449 34 823 32 398 33 413 56 437 13 14 31 24 40 23 13 -3
15 -35 18 -233z m-746 -1962 c146 -92 388 -323 388 -370 0 -97 -122 -175 -166
-107 -15 22 -16 31 -5 59 11 32 9 37 -44 118 -41 64 -76 103 -138 153 -45 37
-88 74 -94 82 -16 20 -17 64 -1 80 15 15 12 16 60 -15z m6986 -275 c2 -34 -8
-76 -42 -169 -52 -145 -73 -237 -81 -369 -5 -83 1 -141 49 -465 76 -515 88
-654 90 -1055 1 -359 7 -407 66 -572 11 -32 20 -83 20 -115 0 -76 24 -220 45
-269 39 -93 39 -153 0 -168 -26 -10 -44 5 -71 57 -14 28 -40 68 -59 88 -41 46
-60 82 -69 133 -4 21 -19 56 -33 77 -17 26 -28 61 -34 111 -5 40 -30 156 -55
257 -79 317 -77 307 -78 696 -1 382 -4 410 -56 465 -24 25 -33 30 -44 21 -25
-21 -45 -122 -43 -221 l2 -95 -62 -140 c-73 -167 -92 -233 -133 -470 -32 -187
-62 -290 -86 -299 -25 -9 -61 37 -90 114 -19 53 -40 88 -70 119 -24 24 -46 51
-49 60 -2 9 -22 102 -44 207 -59 281 -121 457 -216 613 -24 40 -39 83 -51 146
-22 118 -32 145 -54 145 -33 0 -57 -89 -64 -235 -26 -506 -72 -852 -133 -1005
-52 -133 -72 -222 -84 -370 -8 -111 -19 -174 -46 -270 -37 -131 -56 -167 -73
-140 -19 31 -30 125 -58 490 -19 256 -26 386 -19 410 5 19 28 69 52 110 72
124 85 177 85 342 0 291 66 648 160 868 50 117 62 131 111 128 25 -1 45 4 58
16 11 10 74 109 141 221 127 213 153 246 172 227 8 -8 2 -57 -21 -184 -37
-209 -38 -228 -7 -304 14 -33 28 -89 31 -125 4 -35 18 -113 31 -174 13 -60 37
-209 54 -331 30 -227 65 -412 81 -429 21 -22 39 27 63 185 32 196 57 297 103
405 19 44 80 208 135 365 55 157 124 332 153 390 29 58 67 144 83 192 17 48
41 106 53 130 31 62 162 238 174 234 6 -1 11 -23 13 -48z m-7611 -189 c73 -26
200 -84 283 -128 82 -45 160 -81 173 -81 12 -1 38 -9 57 -18 49 -24 76 -81 84
-184 4 -46 18 -126 32 -178 13 -52 24 -122 24 -156 0 -138 -130 -524 -207
-614 -19 -22 -95 -94 -169 -161 l-134 -121 71 -79 c67 -74 249 -218 301 -238
39 -15 208 -206 296 -336 45 -66 127 -171 182 -234 55 -62 130 -161 166 -219
79 -126 164 -320 164 -374 0 -42 -18 -57 -49 -42 -37 18 -114 121 -161 216
-57 116 -162 236 -332 380 -76 64 -117 107 -133 138 -36 70 -56 84 -113 77
-54 -6 -63 -3 -79 33 -6 14 -33 50 -61 80 -51 57 -142 108 -229 130 -26 7 -72
34 -117 70 -73 58 -132 90 -165 90 -9 0 -21 4 -28 8 -9 5 -73 396 -73 444 0 5
9 7 19 3 21 -6 154 56 230 108 67 46 97 83 151 192 27 55 60 118 72 140 20 35
23 52 20 143 -2 96 -5 111 -43 203 -32 75 -53 111 -87 144 -25 25 -54 45 -64
45 -23 0 -72 24 -116 58 -18 14 -50 28 -72 32 -50 9 -187 -12 -300 -46 -114
-35 -158 -59 -166 -89 -9 -38 34 -273 62 -334 13 -29 24 -72 24 -95 0 -23 9
-60 21 -81 34 -66 49 -115 74 -239 19 -98 28 -124 49 -143 14 -13 26 -27 26
-31 0 -4 13 -94 29 -199 l28 -193 -27 0 c-45 0 -54 -21 -40 -92 6 -34 16 -149
21 -257 9 -211 22 -330 39 -362 19 -34 40 -180 40 -270 0 -158 -60 -369 -105
-369 -14 0 -16 4 -35 80 -7 25 -24 65 -40 90 -16 25 -31 63 -35 85 -4 22 -31
110 -60 195 -66 194 -91 304 -105 450 -32 348 -85 675 -138 855 -17 55 -35
150 -41 210 -22 205 -42 307 -74 370 -48 96 -77 182 -77 230 0 94 -22 199 -56
266 -44 86 -44 109 4 149 53 45 186 107 267 125 105 23 267 75 295 95 44 31
134 73 170 81 57 11 117 -1 257 -52z m1130 -568 c16 -16 47 -62 67 -101 36
-68 38 -77 34 -141 -9 -115 -72 -185 -133 -145 -14 9 -32 27 -40 40 -48 73
-20 376 36 376 4 0 21 -13 36 -29z m1482 -85 c20 -25 32 -171 31 -405 -1 -319
-1 -301 9 -301 22 0 319 175 429 253 68 48 158 105 201 127 69 34 81 37 97 26
17 -13 14 -18 -41 -82 -122 -140 -443 -461 -522 -523 -63 -48 -83 -70 -83 -88
0 -13 22 -62 50 -111 38 -67 74 -111 155 -190 82 -81 114 -121 149 -185 83
-155 211 -632 190 -714 -8 -33 -13 -38 -39 -38 -46 0 -89 67 -246 380 -146
291 -258 476 -297 494 -71 33 -99 -1 -157 -185 -57 -182 -103 -303 -123 -326
-8 -10 -24 -18 -35 -18 -18 0 -19 5 -12 118 4 64 24 274 45 466 21 191 36 354
33 362 -4 12 -14 10 -48 -11 -51 -29 -61 -31 -69 -9 -3 8 26 203 66 432 75
441 95 512 146 538 26 13 56 9 71 -10z m7066 -137 c-55 -153 -55 -155 -40
-200 23 -65 18 -129 -24 -292 -21 -84 -42 -177 -45 -207 -10 -82 8 -96 167
-125 197 -37 317 -88 317 -135 0 -9 -13 -29 -30 -45 -43 -41 -95 -42 -295 -6
-94 17 -173 31 -176 31 -4 0 -10 -55 -13 -122 -10 -177 -42 -418 -82 -608 -38
-181 -51 -230 -64 -230 -16 0 -21 37 -31 244 -8 169 -7 259 5 450 10 151 12
245 6 256 -5 10 -65 42 -132 71 -151 66 -210 71 -277 25 -53 -37 -61 -68 -31
-121 91 -157 111 -207 154 -376 58 -228 99 -426 92 -444 -7 -19 -40 -19 -55
-2 -6 8 -31 70 -55 138 -80 223 -131 320 -273 513 -42 58 -74 93 -76 85 -3 -8
-16 -110 -30 -227 -14 -117 -31 -220 -38 -228 -17 -21 -48 -17 -58 9 -5 12
-11 69 -15 127 -4 58 -8 123 -10 145 -2 22 -7 118 -11 213 -4 96 -11 188 -16
205 -5 18 -9 59 -9 92 0 51 3 61 18 61 9 1 66 2 127 4 l110 3 6 -33 c4 -17 12
-37 18 -43 17 -17 58 8 82 48 12 19 26 35 32 35 7 0 72 3 145 7 l132 6 1 -44
c2 -72 11 -95 40 -91 61 9 114 108 174 329 93 341 144 464 220 531 29 25 52
39 57 34 6 -6 -1 -39 -17 -83z m-1022 -387 c10 -45 21 -82 25 -82 4 0 37 30
72 66 74 75 130 104 201 104 104 0 151 -43 199 -184 25 -76 27 -88 13 -93 -8
-3 -63 -7 -122 -7 -103 -1 -106 0 -109 22 -2 13 -9 25 -16 28 -19 7 -61 -12
-88 -39 -21 -23 -32 -25 -154 -30 -72 -4 -134 -4 -136 -1 -3 2 -2 26 2 52 4
26 11 79 14 117 10 107 17 149 29 164 20 24 51 -28 70 -117z m-7457 -10 c19
-36 23 -66 29 -224 5 -143 11 -196 26 -242 20 -59 20 -65 4 -295 -16 -249 -39
-448 -57 -493 -6 -16 -16 -28 -24 -28 -41 0 -103 444 -122 880 -10 223 -3 347
22 384 19 29 75 68 91 63 6 -2 20 -22 31 -45z m3980 14 c3 -8 -1 -131 -10
-273 -19 -311 -13 -575 15 -705 31 -142 24 -178 -32 -178 -19 0 -36 12 -63 45
-24 29 -45 45 -60 45 -22 0 -22 1 -18 118 2 64 8 125 13 134 16 30 10 68 -16
94 -25 25 -25 25 -56 7 -34 -20 -61 -59 -79 -116 -13 -43 -5 -97 16 -97 11 0
14 -17 14 -75 0 -41 -3 -75 -7 -75 -3 0 -35 5 -71 11 -123 22 -208 86 -312
237 -77 112 -94 109 -105 -18 -13 -161 -59 -209 -94 -99 -6 20 -20 44 -30 53
-25 22 -36 7 -51 -69 -37 -186 -46 -184 -145 35 l-56 125 3 136 c3 135 3 136
-25 172 -24 32 -31 36 -48 26 -32 -17 -36 -44 -31 -195 l5 -143 -30 -53 c-16
-29 -35 -75 -42 -103 -17 -74 -70 -175 -91 -175 -26 0 -32 23 -37 135 -4 85
-2 108 16 152 34 87 50 176 48 270 -2 105 5 120 130 301 97 141 104 148 126
124 14 -16 73 -234 126 -474 24 -104 38 -126 69 -109 23 12 40 89 53 231 9
111 24 170 44 170 7 0 31 -28 53 -63 45 -71 138 -177 156 -177 15 0 45 48 98
160 48 101 66 124 92 114 21 -8 20 -33 -3 -212 -19 -150 -18 -192 6 -192 8 0
44 26 80 57 86 76 135 161 180 316 38 131 105 301 131 330 18 21 31 22 38 3z
m3084 -47 c55 -28 105 -88 140 -168 32 -73 32 -76 26 -185 -11 -169 -9 -189
19 -257 38 -92 36 -131 -11 -219 -44 -81 -139 -176 -198 -197 -43 -14 -39 -23
-60 152 -11 86 -13 147 -8 180 4 28 5 87 1 132 -8 94 -37 157 -100 219 l-39
38 -26 -60 c-41 -92 -64 -164 -64 -201 0 -32 34 -90 101 -174 16 -20 25 -57
39 -165 9 -77 16 -141 14 -143 -7 -8 -171 50 -200 71 -54 40 -102 85 -113 106
-6 12 -8 39 -5 64 5 33 -1 66 -20 128 -42 131 -43 153 -7 242 55 139 143 264
259 372 105 96 163 111 252 65z m-6206 -5 c105 -22 116 -36 63 -89 -23 -23
-46 -35 -77 -40 -48 -7 -150 -67 -192 -112 -36 -40 -165 -233 -178 -268 -8
-21 -37 -221 -40 -272 0 -1 6 -8 14 -16 12 -11 43 -13 163 -9 147 5 334 -15
357 -38 4 -4 5 -21 1 -38 -6 -28 -17 -34 -173 -97 -180 -73 -237 -108 -292
-179 -27 -35 -41 -45 -59 -43 -21 2 -31 17 -67 101 -50 114 -61 128 -131 168
-29 17 -54 35 -55 41 0 7 -2 37 -3 68 -1 33 -8 64 -18 79 -9 14 -17 32 -17 42
0 10 29 81 65 158 36 77 65 145 65 151 0 50 151 242 264 336 108 88 135 93
310 57z m8175 -1 c7 -16 60 -144 117 -285 108 -268 126 -327 208 -721 18 -87
36 -160 40 -164 9 -10 326 141 496 237 207 117 330 169 330 141 0 -25 -125
-140 -248 -228 -75 -54 -181 -137 -236 -186 -54 -48 -174 -141 -267 -207 -92
-66 -180 -135 -196 -153 -15 -19 -62 -62 -103 -97 -146 -123 -233 -217 -377
-410 -214 -286 -362 -432 -491 -484 -82 -33 -273 -142 -362 -207 -67 -49 -90
-55 -90 -22 0 23 159 181 394 391 254 228 318 303 341 404 20 89 32 112 90
168 25 25 56 61 67 80 35 58 70 90 130 121 91 46 122 84 154 186 14 48 35 135
44 193 l18 105 -23 70 c-88 262 -115 415 -115 656 0 128 25 366 45 427 7 20
21 14 34 -15z"/>
</g>
</svg>
