<?xml version="1.0" encoding="UTF-8" standalone="no"?>
<svg height="100%" stroke-miterlimit="10" style="fill-rule:nonzero;clip-rule:evenodd;stroke-linecap:round;stroke-linejoin:round;" version="1.1" viewBox="0 0 264.906 269.645" width="100%" xml:space="preserve" xmlns="http://www.w3.org/2000/svg" xmlns:xlink="http://www.w3.org/1999/xlink">
<defs/>
<g>
<path d="M148.6 13.9471C150.149 23.2452 150.924 31.3811 150.924 38.3546C150.924 45.3282 147.05 48.9118 139.302 49.1055C131.553 49.2993 125.645 49.0087 121.577 48.2339C117.509 47.459 115.378 47.3622 115.185 47.9433C114.991 48.5244 115.282 49.5898 116.056 51.1395C116.831 52.6892 119.446 56.854 123.902 63.6338C128.357 70.4137 131.166 75.2564 132.328 78.1621C133.49 81.0677 132.812 83.1017 130.294 84.264C127.776 85.4262 124.386 86.2979 120.124 86.879C115.863 87.4602 112.182 88.4287 109.083 89.7847C105.984 91.1407 104.531 92.1092 104.724 92.6904C104.918 93.2715 106.371 94.0463 109.083 95.0149C111.795 95.9834 113.829 97.2425 115.185 98.7922C116.541 100.342 119.834 102.666 125.064 105.766C127.679 107.315 130.294 108.865 132.909 110.415C132.134 111.577 131.36 112.739 130.585 113.902C129.81 115.064 129.035 116.226 128.26 117.388C116.347 107.897 104.434 98.4048 92.5207 88.913C68.6943 69.9294 55.0378 59.6628 51.551 58.1131C48.0642 56.5634 44.9648 55.6917 42.2529 55.498C39.5409 55.3043 37.507 55.498 36.151 56.0791C34.795 56.6602 33.4391 57.8225 32.0831 59.5659C30.7271 61.3093 30.3397 63.8275 30.9208 67.1206C31.502 70.4137 35.9573 79.6149 44.2868 94.7243C52.6164 109.834 57.3623 118.066 58.5245 119.422C59.6868 120.778 61.6239 121.553 64.3358 121.747C67.0478 121.941 68.888 122.522 69.8566 123.49C70.8251 124.459 71.4063 126.59 71.6 129.883C71.7937 133.176 70.5346 135.694 67.8226 137.437C65.1107 139.181 62.205 141.893 59.1057 145.573C56.0063 149.254 53.9723 152.063 53.0038 154C52.0352 155.937 50.9698 159.133 49.8076 163.588C48.6453 168.044 48.161 172.208 48.3547 176.083C48.5485 179.957 49.0327 183.347 49.8076 186.252C50.5824 189.158 51.551 191.87 52.7132 194.388C53.8755 196.906 55.1346 198.94 56.4906 200.49C57.8466 202.04 58.8151 204.558 59.3962 208.045C59.9774 211.532 61.2365 213.953 63.1736 215.309C64.1421 215.987 65.1107 216.665 66.0792 217.343C61.1396 221.895 56.2 226.447 51.2604 230.999C41.3812 240.104 35.9573 245.237 34.9887 246.399C34.0202 247.562 33.5359 248.53 33.5359 249.305C33.5359 250.08 30.4365 253.664 24.2378 260.056C21.1385 263.252 18.0391 266.448 14.9397 269.645C18.0391 266.642 21.1385 263.64 24.2378 260.637C27.3372 257.635 30.4365 254.632 33.5359 251.63C34.3108 252.695 35.0856 253.76 35.8604 254.826C37.4101 256.957 39.3472 258.797 41.6717 260.347C42.834 261.121 43.9963 261.896 45.1585 262.671C44.2868 263.737 43.4151 264.802 42.5434 265.867C41.6717 266.933 40.8 267.998 39.9284 269.064C40.2189 269.16 40.5095 269.257 40.8 269.354C41.3812 269.548 42.4466 268.676 43.9963 266.739C45.5459 264.802 46.9988 263.93 48.3547 264.124C49.7107 264.318 52.6164 261.993 57.0717 257.15C59.2994 254.729 61.527 252.308 63.7547 249.886C63.7547 250.564 63.7547 251.242 63.7547 251.92C63.7547 253.276 62.7862 256.279 60.8491 260.928C58.912 265.577 58.0403 268.192 58.234 268.773C58.3308 269.064 58.4277 269.354 58.5245 269.645C59.3962 267.804 60.2679 265.964 61.1396 264.124C62.883 260.443 64.239 256.666 65.2075 252.792C66.1761 248.918 67.4352 245.915 68.9849 243.784C69.7597 242.719 70.5346 241.654 71.3094 240.588C70.922 240.782 70.5346 240.976 70.1472 241.169C69.3723 241.557 68.6943 242.332 68.1132 243.494C67.5321 244.656 64.3358 248.24 58.5245 254.245C52.7132 260.25 48.839 262.865 46.9019 262.09C44.9648 261.315 42.9309 259.959 40.8 258.022C38.6692 256.085 37.2164 253.954 36.4416 251.63C35.6667 249.305 40.6063 243.01 51.2604 232.743C61.9145 222.476 67.8226 217.44 68.9849 217.633C70.1472 217.827 71.5031 219.086 73.0528 221.411C74.6025 223.735 76.6364 225.866 79.1547 227.803C81.6729 229.74 86.322 231.29 93.1018 232.452C99.8817 233.615 103.756 235.164 104.724 237.101C105.693 239.038 106.274 242.138 106.468 246.399C106.662 250.661 107.146 253.373 107.921 254.535C108.695 255.698 109.955 256.376 111.698 256.569C112.57 256.666 113.441 256.763 114.313 256.86C114.023 258.991 113.732 261.121 113.441 263.252C113.151 265.383 112.86 267.514 112.57 269.645C112.86 269.548 113.151 269.451 113.441 269.354C114.023 269.16 114.41 268.676 114.604 267.901C114.797 267.126 114.991 264.996 115.185 261.509C115.282 259.765 115.378 258.022 115.475 256.279C115.96 256.376 116.444 256.472 116.928 256.569C117.897 256.763 118.575 257.15 118.962 257.731C119.35 258.313 119.834 260.443 120.415 264.124C120.996 267.804 121.48 269.645 121.868 269.645C122.061 269.645 122.255 269.645 122.449 269.645C122.352 268.676 122.255 267.708 122.158 266.739C121.965 264.802 123.611 263.349 127.098 262.381C130.585 261.412 132.619 260.928 133.2 260.928C133.781 260.928 134.459 262.187 135.234 264.705C136.009 267.223 136.687 268.676 137.268 269.064C137.558 269.257 137.849 269.451 138.139 269.645C137.461 267.126 136.783 264.608 136.105 262.09C134.75 257.054 135.331 253.857 137.849 252.501C140.367 251.145 142.304 249.789 143.66 248.433C145.016 247.077 145.791 246.012 145.985 245.237C146.178 244.462 146.178 243.106 145.985 241.169C145.791 239.232 144.726 237.586 142.788 236.23C140.851 234.874 139.98 229.837 140.173 221.12C140.367 212.403 140.27 207.561 139.883 206.592C139.495 205.623 140.173 204.364 141.917 202.815C143.66 201.265 144.629 199.134 144.822 196.422C145.016 193.71 144.532 191.579 143.37 190.03C142.207 188.48 141.529 185.865 141.336 182.184C141.142 178.504 139.883 173.952 137.558 168.528C135.234 163.104 134.072 159.424 134.072 157.486C134.072 156.518 134.072 155.549 134.072 154.581C137.268 157.971 140.464 161.361 143.66 164.751C150.053 171.53 154.217 183.056 156.155 199.328C158.092 215.6 160.126 227.9 162.256 236.23C164.387 244.559 166.131 250.274 167.487 253.373C168.843 256.472 169.424 258.506 169.23 259.475C169.036 260.443 167.971 262.381 166.034 265.286C165.065 266.739 164.097 268.192 163.128 269.645C163.612 269.354 164.097 269.064 164.581 268.773C165.549 268.192 171.845 258.797 183.468 240.588C195.09 222.379 202.839 210.757 206.713 205.72C210.587 200.684 212.33 197.972 211.943 197.584C211.749 197.391 211.556 197.197 211.362 197.003C210.781 197.875 210.2 198.747 209.619 199.618C209.037 200.49 208.456 201.362 207.875 202.234C207.488 201.943 207.1 201.652 206.713 201.362C205.938 200.781 206.519 198.456 208.456 194.388C210.393 190.32 211.362 187.802 211.362 186.834C211.362 185.865 210.2 183.25 207.875 178.988C205.551 174.727 204.195 172.305 203.807 171.724C203.42 171.143 203.032 170.949 202.645 171.143C202.451 171.24 202.258 171.337 202.064 171.434C203.517 174.049 204.969 176.664 206.422 179.279C209.328 184.509 209.619 189.255 207.294 193.517C204.969 197.778 204.292 200.587 205.26 201.943C206.229 203.299 205.841 205.236 204.098 207.754C202.354 210.272 201.289 211.435 200.902 211.241C200.514 211.047 199.642 204.461 198.286 191.483C196.931 178.504 197.415 171.53 199.739 170.562C202.064 169.593 204.001 168.431 205.551 167.075C207.1 165.719 208.747 163.298 210.49 159.811C211.362 158.068 212.234 156.324 213.105 154.581C215.042 156.324 216.98 158.068 218.917 159.811C222.791 163.298 225.406 166.01 226.762 167.947C228.118 169.884 229.28 172.015 230.249 174.339C231.217 176.664 231.702 179.86 231.702 183.928C231.702 187.996 230.249 193.323 227.343 199.909C224.437 206.495 216.398 219.474 203.226 238.845C190.054 258.216 183.468 268.192 183.468 268.773C183.468 269.064 183.468 269.354 183.468 269.645C184.049 269.064 184.63 268.482 185.211 267.901C186.373 266.739 189.763 261.799 195.381 253.082C198.19 248.724 200.998 244.365 203.807 240.007C204.195 240.976 204.582 241.944 204.969 242.913C205.744 244.85 206.616 248.918 207.585 255.116C208.553 261.315 209.328 265.286 209.909 267.03C210.49 268.773 210.975 269.645 211.362 269.645C211.556 269.645 211.749 269.645 211.943 269.645C210.878 264.318 209.812 258.991 208.747 253.664C206.616 243.01 206.81 235.842 209.328 232.162C210.587 230.321 211.846 228.481 213.105 226.641C213.202 231.677 213.299 236.714 213.396 241.75C213.493 246.787 213.59 251.823 213.686 256.86C213.88 256.763 214.074 256.666 214.268 256.569C214.655 256.376 214.752 250.855 214.558 240.007C214.364 229.159 216.108 221.023 219.788 215.6C221.629 212.888 223.469 210.176 225.309 207.464C225.793 210.079 226.278 212.694 226.762 215.309C227.73 220.539 229.571 227.803 232.283 237.101C234.995 246.399 237.319 253.857 239.256 259.475C241.193 265.092 242.356 268.192 242.743 268.773C243.13 269.354 243.518 269.548 243.905 269.354C244.293 269.16 242.84 264.414 239.547 255.116C236.254 245.818 233.348 235.842 230.83 225.188C228.312 214.534 227.052 208.432 227.052 206.883C227.052 205.333 227.634 203.493 228.796 201.362C229.958 199.231 231.024 196.519 231.992 193.226C232.961 189.933 233.348 186.349 233.154 182.475C232.961 178.601 231.798 174.727 229.668 170.852C227.537 166.978 224.244 163.104 219.788 159.23C215.333 155.356 213.299 152.837 213.686 151.675C214.074 150.513 214.946 149.351 216.302 148.188C217.658 147.026 219.401 146.445 221.532 146.445C223.663 146.445 224.825 146.154 225.018 145.573C225.212 144.992 224.825 143.733 223.856 141.796C223.372 140.827 222.888 139.859 222.403 138.89C224.05 138.697 225.696 138.503 227.343 138.309C228.99 138.115 230.636 137.922 232.283 137.728C230.733 136.178 229.183 134.629 227.634 133.079C224.534 129.98 222.985 127.558 222.985 125.815C222.985 124.071 225.6 121.941 230.83 119.422C236.06 116.904 238.675 115.354 238.675 114.773C238.675 114.192 237.61 113.224 235.479 111.868C233.348 110.512 231.411 108.865 229.668 106.928C227.924 104.991 226.762 103.151 226.181 101.407C225.6 99.6639 226.665 96.952 229.377 93.2715C232.089 89.591 234.607 86.7822 236.932 84.8451C239.256 82.908 240.418 81.6489 240.418 81.0677C240.418 80.4866 238.772 79.8086 235.479 79.0338C232.186 78.2589 229.474 76.9998 227.343 75.2564C225.212 73.513 224.534 71.0917 225.309 67.9923C226.084 64.8929 228.118 59.5659 231.411 52.0112C233.057 48.2339 234.704 44.4565 236.351 40.6792C232.089 41.454 227.827 42.2288 223.566 43.0037C219.304 43.7785 215.042 44.5534 210.781 45.3282C210.975 44.2628 211.168 43.1974 211.362 42.132C211.749 40.0012 211.943 35.0616 211.943 27.3131C211.943 19.5647 211.459 14.1408 210.49 11.0415C209.522 7.94212 208.65 5.90816 207.875 4.93961C207.1 3.97106 206.519 3.48678 206.132 3.48678C205.744 3.48678 204.388 5.81131 202.064 10.4604C199.739 15.1094 197.608 18.7899 195.671 21.5018C193.734 24.2138 191.119 27.1194 187.826 30.2188C186.18 31.7685 184.533 33.3182 182.887 34.8678C180.949 32.6402 179.012 30.4125 177.075 28.1848C173.201 23.7295 167.099 17.9182 158.77 10.7509C154.605 7.16728 150.44 3.58364 146.275 0C147.05 4.64905 147.825 9.29809 148.6 13.9471ZM147.438 2.32452C151.602 6.00502 155.767 9.68551 159.932 13.366C168.261 20.727 174.17 26.4414 177.656 30.5094C179.4 32.5433 181.143 34.5773 182.887 36.6112C185.114 34.3836 187.342 32.1559 189.57 29.9282C194.025 25.4729 197.996 20.2427 201.483 14.2377C203.226 11.2352 204.969 8.23269 206.713 5.23018C207.391 7.45784 208.069 9.68551 208.747 11.9132C210.103 16.3685 210.781 21.3081 210.781 26.732C210.781 32.1559 210.49 36.9018 209.909 40.9697C209.619 43.0037 209.328 45.0376 209.037 47.0716C213.299 46.2968 217.561 45.5219 221.822 44.7471C226.084 43.9722 230.346 43.1974 234.607 42.4225C232.767 46.4905 230.927 50.5584 229.086 54.6263C225.406 62.7621 223.372 67.7986 222.985 69.7357C222.597 71.6728 223.372 73.513 225.309 75.2564C227.246 76.9998 229.861 78.4527 233.154 79.6149C234.801 80.196 236.447 80.7772 238.094 81.3583C236.06 83.586 234.026 85.8136 231.992 88.0413C227.924 92.4966 225.6 95.4023 225.018 96.7583C224.437 98.1142 224.728 100.148 225.89 102.86C227.052 105.572 229.183 108.284 232.283 110.996C233.832 112.352 235.382 113.708 236.932 115.064C234.413 116.226 231.895 117.388 229.377 118.551C224.341 120.875 221.241 121.263 220.079 119.713C218.917 118.163 217.948 117.292 217.173 117.098C216.398 116.904 216.011 115.064 216.011 111.577C216.011 108.09 216.495 105.475 217.464 103.732C218.432 101.988 218.917 99.8576 218.917 97.3394C218.917 94.8212 218.335 92.4966 217.173 90.3658C216.011 88.235 215.333 85.5231 215.139 82.23C214.946 78.9369 214.364 75.7407 213.396 72.6413C212.427 69.542 212.137 66.9269 212.524 64.7961C212.912 62.6653 212.815 61.0187 212.234 59.8565C211.652 58.6942 210.684 57.4351 209.328 56.0791C207.972 54.7231 205.744 53.3672 202.645 52.0112C199.546 50.6552 195.187 49.7835 189.57 49.3961C183.952 49.0087 179.69 49.2024 176.785 49.9772C173.879 50.7521 170.586 52.3018 166.905 54.6263C163.225 56.9508 160.416 59.0816 158.479 61.0187C156.542 62.9558 154.605 65.5709 152.668 68.864C150.731 72.1571 149.375 77.8715 148.6 86.0074C147.825 94.1432 147.825 101.988 148.6 109.543C149.375 117.098 148.987 121.553 147.438 122.909C145.888 124.265 144.726 125.912 143.951 127.849C143.176 129.786 142.788 131.432 142.788 132.788C142.788 134.144 143.176 135.694 143.951 137.437C144.726 139.181 145.5 140.44 146.275 141.215C147.05 141.99 148.503 142.764 150.634 143.539C152.765 144.314 154.217 145.961 154.992 148.479C155.767 150.997 155.961 153.322 155.573 155.452C155.186 157.583 154.411 158.649 153.249 158.649C152.668 158.649 152.087 158.649 151.505 158.649C151.602 157.099 151.699 155.549 151.796 154C151.99 150.9 151.893 149.06 151.505 148.479C151.118 147.898 148.406 147.414 143.37 147.026C140.851 146.832 138.333 146.639 135.815 146.445C136.396 145.186 136.977 143.927 137.558 142.668C138.721 140.149 139.302 138.309 139.302 137.147C139.302 135.985 139.011 134.919 138.43 133.951C137.849 132.982 134.459 131.626 128.26 129.883C125.161 129.011 122.061 128.139 118.962 127.268C121.19 125.137 123.417 123.006 125.645 120.875C130.1 116.614 132.619 113.708 133.2 112.158C133.781 110.609 131.747 108.478 127.098 105.766C122.449 103.054 119.059 100.632 116.928 98.5017C114.797 96.3709 112.57 94.8212 110.245 93.8526C109.083 93.3683 107.921 92.8841 106.758 92.3998C107.727 91.9155 108.695 91.4312 109.664 90.947C111.601 89.9784 114.701 89.2036 118.962 88.6224C123.224 88.0413 127.098 86.879 130.585 85.1357C134.072 83.3923 135.234 81.0677 134.072 78.1621C132.909 75.2564 130.488 71.0917 126.807 65.6678C123.127 60.2439 120.609 56.0791 119.253 53.1735C118.575 51.7206 117.897 50.2678 117.219 48.815C118.381 49.1055 119.543 49.3961 120.706 49.6867C123.03 50.2678 127.582 50.6552 134.362 50.8489C141.142 51.0427 145.5 51.0427 147.438 50.8489C149.375 50.6552 150.731 50.171 151.505 49.3961C152.28 48.6213 152.668 45.0376 152.668 38.6452C152.668 32.2528 151.796 24.6012 150.053 15.6905C149.181 11.2352 148.309 6.77986 147.438 2.32452ZM181.724 50.8489C182.693 50.9458 183.661 51.0427 184.63 51.1395C183.371 51.5269 182.112 51.9143 180.853 52.3018C178.334 53.0766 174.073 55.498 168.068 59.5659C162.063 63.6338 158.188 66.9269 156.445 69.4451C154.702 71.9634 153.733 74.191 153.539 76.1281C153.346 78.0652 153.346 79.2275 153.539 79.6149C153.733 80.0023 154.411 80.196 155.573 80.196C156.736 80.196 159.641 77.9684 164.29 73.513C168.939 69.0577 173.298 65.8615 177.366 63.9244C181.434 61.9873 185.405 60.9219 189.279 60.7282C193.153 60.5345 196.64 60.9219 199.739 61.8904C202.839 62.859 205.454 64.0212 207.585 65.3772C209.715 66.7332 211.362 70.4137 212.524 76.4187C213.105 79.4212 213.686 82.4237 214.268 85.4262C213.396 84.8451 212.524 84.264 211.652 83.6828C209.909 82.5206 208.263 81.7457 206.713 81.3583C205.163 80.9709 202.839 81.1646 199.739 81.9394C196.64 82.7143 194.025 84.3608 191.894 86.879C189.763 89.3973 188.504 92.2061 188.117 95.3054C187.729 98.4048 188.31 101.407 189.86 104.313C191.41 107.219 193.25 109.349 195.381 110.705C197.512 112.061 200.127 112.739 203.226 112.739C206.325 112.739 208.844 112.061 210.781 110.705C212.718 109.349 213.88 108.768 214.268 108.962C214.655 109.156 214.946 112.836 215.139 120.004C215.333 127.171 215.333 131.045 215.139 131.626C214.946 132.207 214.074 132.304 212.524 131.917C211.749 131.723 210.975 131.529 210.2 131.336C210.2 131.529 210.2 131.723 210.2 131.917C210.2 132.304 211.168 132.788 213.105 133.37C215.042 133.951 216.495 134.919 217.464 136.275C218.432 137.631 218.917 139.181 218.917 140.924C218.917 142.668 218.432 144.217 217.464 145.573C216.495 146.929 214.752 147.801 212.234 148.188C209.715 148.576 208.456 148.963 208.456 149.351C208.456 149.544 208.456 149.738 208.456 149.932C209.231 149.932 210.006 149.932 210.781 149.932C211.556 149.932 212.33 149.932 213.105 149.932C213.105 150.125 213.105 150.319 213.105 150.513C213.105 150.9 212.04 153.322 209.909 157.777C207.778 162.232 204.969 165.525 201.483 167.656C197.996 169.787 194.703 171.143 191.603 171.724C188.504 172.305 186.664 172.596 186.083 172.596C185.792 172.596 185.502 172.596 185.211 172.596C185.405 169.884 185.598 167.172 185.792 164.46C185.986 161.748 186.18 159.036 186.373 156.324C187.245 156.421 188.117 156.518 188.988 156.615C190.732 156.808 191.797 156.712 192.185 156.324C192.572 155.937 192.863 154.387 193.056 151.675C193.25 148.963 194.412 147.317 196.543 146.736C198.674 146.154 201.967 145.864 206.422 145.864C210.878 145.864 213.493 145.573 214.268 144.992C215.042 144.411 215.43 143.249 215.43 141.505C215.43 139.762 214.461 138.115 212.524 136.566C210.587 135.016 207.875 134.047 204.388 133.66C200.902 133.273 195.865 134.435 189.279 137.147C182.693 139.859 176.688 142.861 171.264 146.154C165.84 149.447 162.741 151.481 161.966 152.256C161.191 153.031 160.61 154.097 160.222 155.452C159.835 156.808 159.641 157.971 159.641 158.939C159.641 159.908 160.029 160.876 160.804 161.845C161.578 162.813 162.644 163.201 164 163.007C165.356 162.813 167.39 161.748 170.102 159.811C172.814 157.874 174.654 157.099 175.622 157.486C176.591 157.874 177.269 158.455 177.656 159.23C178.044 160.005 178.722 160.198 179.69 159.811C180.175 159.617 180.659 159.424 181.143 159.23C180.949 161.457 180.756 163.685 180.562 165.913C180.368 168.141 180.175 170.368 179.981 172.596C179.206 172.499 178.431 172.402 177.656 172.305C176.107 172.112 174.17 171.24 171.845 169.69C169.521 168.141 168.358 167.075 168.358 166.494C168.358 165.913 168.939 165.041 170.102 163.879C170.683 163.298 171.264 162.717 171.845 162.135C170.78 162.91 169.714 163.685 168.649 164.46C166.518 166.01 164.29 166.785 161.966 166.785C159.641 166.785 158.092 166.107 157.317 164.751C156.542 163.395 156.155 161.748 156.155 159.811C156.155 157.874 156.832 155.356 158.188 152.256C158.866 150.707 159.544 149.157 160.222 147.607C160.029 147.607 159.835 147.607 159.641 147.607C159.254 147.607 158.77 148.188 158.188 149.351C157.898 149.932 157.607 150.513 157.317 151.094C157.123 150.9 156.929 150.707 156.736 150.513C156.348 150.125 155.089 144.12 152.958 132.498C150.827 120.875 149.568 111.771 149.181 105.185C148.794 98.5985 149.084 91.625 150.053 84.264C151.021 76.903 152.28 71.8665 153.83 69.1546C155.38 66.4426 157.22 64.0212 159.351 61.8904C161.482 59.7596 164.097 57.7257 167.196 55.7886C170.295 53.8515 173.007 52.4955 175.332 51.7206C177.656 50.9458 179.787 50.6552 181.724 50.8489ZM192.766 51.1395C195.478 51.1395 198.48 51.8175 201.773 53.1735C205.066 54.5294 207.488 56.176 209.037 58.1131C210.587 60.0502 211.362 61.7936 211.362 63.3433C211.362 64.1181 211.362 64.8929 211.362 65.6678C210.975 65.6678 210.587 65.6678 210.2 65.6678C209.425 65.6678 208.65 65.2804 207.875 64.5055C207.1 63.7307 205.066 62.6653 201.773 61.3093C198.48 59.9533 194.8 59.2753 190.732 59.2753C186.664 59.2753 182.79 60.0502 179.109 61.5999C175.429 63.1495 171.845 65.2804 168.358 67.9923C164.871 70.7042 162.353 73.0288 160.804 74.9659C159.254 76.903 158.188 78.0652 157.607 78.4527C157.026 78.8401 156.348 78.9369 155.573 78.7432C155.186 78.6464 154.799 78.5495 154.411 78.4527C154.799 77.1935 155.186 75.9344 155.573 74.6753C156.348 72.1571 157.704 69.8325 159.641 67.7017C161.578 65.5709 164.581 63.1495 168.649 60.4376C172.717 57.7257 177.075 55.498 181.724 53.7546C186.373 52.0112 190.054 51.1395 192.766 51.1395ZM44.2868 57.2414C47.5799 57.8225 51.7447 59.6628 56.7811 62.7621C61.8176 65.8615 73.6339 74.869 92.2301 89.7847C110.826 104.7 121.19 113.32 123.321 115.645C124.386 116.807 125.451 117.97 126.517 119.132C125.161 120.197 123.805 121.263 122.449 122.328C121.093 123.393 119.737 124.459 118.381 125.524C117.703 124.071 117.025 122.619 116.347 121.166C114.991 118.26 112.86 115.161 109.955 111.868C107.049 108.575 104.046 106.347 100.947 105.185C97.8477 104.022 94.1672 103.248 89.9056 102.86C85.644 102.473 83.0289 101.407 82.0603 99.6639C81.0918 97.9205 75.8616 92.2061 66.3698 82.5206C61.6239 77.6778 56.878 72.8351 52.1321 67.9923C51.9384 68.186 51.7447 68.3797 51.551 68.5734C51.3573 68.7671 51.1635 68.9609 50.9698 69.1546C55.4252 73.6099 59.8805 78.0652 64.3358 82.5206C68.7912 86.9759 73.2465 91.4312 77.7019 95.8866C76.4427 96.274 75.1836 96.6614 73.9245 97.0488C71.4063 97.8237 69.0817 98.8891 66.9509 100.245C64.8201 101.601 62.9799 103.538 61.4302 106.056C59.8805 108.575 58.8151 110.802 58.234 112.739C57.9434 113.708 57.6528 114.676 57.3623 115.645C53.1006 107.703 48.839 99.7608 44.5774 91.8187C36.0541 75.9344 31.6957 67.1206 31.502 65.3772C31.3082 63.6338 31.4051 62.3747 31.7925 61.5999C32.1799 60.825 33.5359 59.7596 35.8604 58.4036C38.185 57.0477 40.9938 56.6602 44.2868 57.2414ZM197.705 74.0942C195.575 75.0627 194.025 76.1281 193.056 77.2904C192.088 78.4527 191.41 79.7118 191.022 81.0677C190.829 81.7457 190.635 82.4237 190.441 83.1017C190.732 83.0048 191.022 82.908 191.313 82.8111C191.894 82.6174 192.378 81.8426 192.766 80.4866C193.153 79.1306 194.025 77.8715 195.381 76.7093C196.737 75.547 198.286 74.869 200.03 74.6753C201.773 74.4816 202.742 74.0942 202.936 73.513C203.032 73.2225 203.129 72.9319 203.226 72.6413C202.839 72.6413 202.451 72.6413 202.064 72.6413C201.289 72.6413 199.836 73.1256 197.705 74.0942ZM169.23 76.9998C169.424 77.581 170.78 78.0652 173.298 78.4527C175.816 78.8401 178.141 79.9055 180.271 81.6489C181.337 82.5206 182.402 83.3923 183.468 84.264C183.468 83.9734 183.468 83.6828 183.468 83.3923C183.468 82.8111 182.79 81.9394 181.434 80.7772C180.078 79.6149 177.656 78.5495 174.17 77.581C172.426 77.0967 170.683 76.6124 168.939 76.1281C169.036 76.4187 169.133 76.7093 169.23 76.9998ZM162.838 82.23C161.094 82.8111 159.351 83.8765 157.607 85.4262C155.864 86.9759 154.508 88.7193 153.539 90.6564C152.571 92.5935 151.99 94.918 151.796 97.63C151.602 100.342 151.796 102.57 152.377 104.313C152.958 106.056 154.411 108.09 156.736 110.415C159.06 112.739 161.094 114.192 162.838 114.773C164.581 115.354 166.518 115.645 168.649 115.645C170.78 115.645 172.814 115.258 174.751 114.483C176.688 113.708 178.625 112.352 180.562 110.415C182.499 108.478 183.855 106.25 184.63 103.732C185.405 101.214 185.695 98.8891 185.502 96.7583C185.308 94.6275 184.63 92.4966 183.468 90.3658C182.305 88.235 181.046 86.5885 179.69 85.4262C178.334 84.264 176.688 83.2954 174.751 82.5206C172.814 81.7457 170.78 81.3583 168.649 81.3583C166.518 81.3583 164.581 81.6489 162.838 82.23ZM171.845 83.6828C175.332 84.4577 177.85 85.6199 179.4 87.1696C180.949 88.7193 182.112 90.4627 182.887 92.3998C183.661 94.3369 184.049 96.3709 184.049 98.5017C184.049 100.632 183.758 102.57 183.177 104.313C182.596 106.056 181.627 107.703 180.271 109.253C178.915 110.802 177.366 111.965 175.622 112.739C173.879 113.514 171.458 113.902 168.358 113.902C165.259 113.902 163.225 113.708 162.256 113.32C161.288 112.933 159.835 111.868 157.898 110.124C155.961 108.381 154.605 106.541 153.83 104.604C153.055 102.666 152.668 100.632 152.668 98.5017C152.668 96.3709 153.152 94.24 154.121 92.1092C155.089 89.9784 156.639 88.0413 158.77 86.2979C160.9 84.5545 162.741 83.4891 164.29 83.1017C165.84 82.7143 168.358 82.908 171.845 83.6828ZM203.226 82.5206C205.938 82.5206 208.166 83.0048 209.909 83.9734C211.652 84.9419 213.202 86.2979 214.558 88.0413C215.914 89.7847 216.592 92.7872 216.592 97.0488C216.592 101.31 215.914 104.313 214.558 106.056C213.202 107.8 211.846 109.059 210.49 109.834C209.134 110.609 207.1 111.093 204.388 111.287C201.676 111.48 199.739 111.383 198.577 110.996C197.415 110.609 195.865 109.543 193.928 107.8C191.991 106.056 190.732 104.507 190.151 103.151C189.57 101.795 189.182 100.439 188.988 99.0828C188.795 97.7268 188.988 95.8866 189.57 93.5621C190.151 91.2375 191.216 89.2036 192.766 87.4602C194.315 85.7168 195.768 84.4577 197.124 83.6828C198.48 82.908 200.514 82.5206 203.226 82.5206ZM197.124 95.8866C196.834 96.274 196.543 96.6614 196.253 97.0488C196.737 97.3394 197.221 97.63 197.705 97.9205C198.19 98.2111 198.674 98.5017 199.158 98.7922C199.352 98.4048 199.546 98.0174 199.739 97.63C200.127 96.8551 199.933 96.1771 199.158 95.596C198.771 95.3054 198.383 95.0149 197.996 94.7243C197.705 95.1117 197.415 95.4992 197.124 95.8866ZM172.717 97.9205C172.523 98.8891 172.814 99.5671 173.588 99.9545C173.976 100.148 174.363 100.342 174.751 100.536C174.944 99.9545 175.138 99.3734 175.332 98.7922C175.526 98.2111 175.719 97.63 175.913 97.0488C175.429 96.952 174.944 96.8551 174.46 96.7583C173.976 96.6614 173.492 96.5646 173.007 96.4677C172.91 96.952 172.814 97.4363 172.717 97.9205ZM76.8302 98.2111C78.1861 98.2111 79.4452 98.9859 80.6075 100.536C81.1886 101.31 81.7698 102.085 82.3509 102.86C80.8012 103.344 79.2515 103.829 77.7019 104.313C74.6025 105.282 71.9874 107.122 69.8566 109.834C68.7912 111.19 67.7258 112.546 66.6604 113.902C65.8855 112.836 65.1107 111.771 64.3358 110.705C62.7862 108.575 62.1082 107.219 62.3019 106.637C62.4956 106.056 63.4641 104.894 65.2075 103.151C66.9509 101.407 68.9849 100.148 71.3094 99.3734C73.6339 98.5985 75.4742 98.2111 76.8302 98.2111ZM89.0339 104.604C94.6515 104.991 99.2037 106.056 102.69 107.8C106.177 109.543 108.889 111.674 110.826 114.192C112.763 116.71 114.894 120.294 117.219 124.943C119.543 129.592 121.19 133.66 122.158 137.147C123.127 140.634 123.611 143.733 123.611 146.445C123.611 149.157 123.321 150.9 122.739 151.675C122.158 152.45 121.674 152.837 121.287 152.837C120.899 152.837 120.512 151.675 120.124 149.351C119.737 147.026 118.575 143.249 116.638 138.019C114.701 132.788 112.182 128.72 109.083 125.815C107.533 124.362 105.984 122.909 104.434 121.456C104.531 122.812 104.628 124.168 104.724 125.524C104.918 128.236 104.628 130.851 103.853 133.37C103.078 135.888 102.012 137.147 100.657 137.147C99.3005 137.147 98.332 136.856 97.7509 136.275C97.1697 135.694 96.8792 133.66 96.8792 130.173C96.8792 126.687 96.6855 124.556 96.298 123.781C96.1043 123.393 95.9106 123.006 95.7169 122.619C95.5232 122.715 95.3295 122.812 95.1358 122.909C94.9421 123.006 94.7484 123.103 94.5546 123.2C94.7484 123.587 94.9421 123.975 95.1358 124.362C95.5232 125.137 95.7169 127.074 95.7169 130.173C95.7169 133.273 95.3295 135.694 94.5546 137.437C93.7798 139.181 92.5207 140.053 90.7773 140.053C89.0339 140.053 87.6779 139.762 86.7094 139.181C85.7408 138.6 85.0628 137.05 84.6754 134.532C84.4817 133.273 84.288 132.014 84.0943 130.754C84.6754 131.336 85.2566 131.917 85.8377 132.498C86.4188 133.079 86.9999 133.66 87.5811 134.241C87.7748 134.047 87.9685 133.854 88.1622 133.66C88.3559 133.466 88.5496 133.273 88.7433 133.079C87.1937 131.82 85.644 130.561 84.0943 129.302C82.5446 128.042 80.9949 126.783 79.4452 125.524C79.9295 130.464 80.4138 135.403 80.8981 140.343C81.8666 150.222 81.4792 155.356 79.7358 155.743C78.8641 155.937 77.9924 156.13 77.1207 156.324C76.6364 154.097 76.1522 151.869 75.6679 149.641C74.6993 145.186 73.9245 140.053 73.3434 134.241C72.7622 128.43 71.8905 124.846 70.7283 123.49C69.566 122.134 68.7912 120.488 68.4038 118.551C68.0163 116.614 68.3069 114.58 69.2755 112.449C70.244 110.318 71.5031 108.671 73.0528 107.509C74.6025 106.347 76.249 105.475 77.9924 104.894C79.7358 104.313 83.4163 104.216 89.0339 104.604ZM61.4302 108.671C61.8176 108.671 62.7862 109.834 64.3358 112.158C65.8855 114.483 66.8541 116.517 67.2415 118.26C67.4352 119.132 67.6289 120.004 67.8226 120.875C66.8541 120.875 65.8855 120.875 64.917 120.875C62.9799 120.875 61.527 120.488 60.5585 119.713C59.5899 118.938 59.0088 118.163 58.8151 117.388C58.6214 116.614 58.912 114.967 59.6868 112.449C60.4616 109.931 61.0428 108.671 61.4302 108.671ZM188.407 110.415C188.214 110.802 188.504 111.771 189.279 113.32C190.054 114.87 190.441 117.873 190.441 122.328C190.441 124.556 190.441 126.783 190.441 129.011C189.763 128.914 189.085 128.817 188.407 128.72C187.051 128.527 185.986 126.783 185.211 123.49C184.436 120.197 183.758 118.357 183.177 117.97C182.887 117.776 182.596 117.582 182.305 117.388C182.305 117.679 182.305 117.97 182.305 118.26C182.305 118.841 182.693 120.681 183.468 123.781C184.242 126.88 185.502 128.817 187.245 129.592C188.988 130.367 190.248 130.173 191.022 129.011C191.797 127.849 192.185 125.524 192.185 122.037C192.185 118.551 191.894 115.839 191.313 113.902C190.732 111.965 190.151 110.802 189.57 110.415C189.279 110.221 188.988 110.027 188.698 109.834C188.601 110.027 188.504 110.221 188.407 110.415ZM92.8113 113.611C93.1987 114.967 93.1987 116.226 92.8113 117.388C92.6175 117.97 92.4238 118.551 92.2301 119.132C92.5207 119.132 92.8113 119.132 93.1018 119.132C93.6829 119.132 94.0704 118.454 94.2641 117.098C94.4578 115.742 94.1672 114.483 93.3924 113.32C93.005 112.739 92.6175 112.158 92.2301 111.577C92.4238 112.255 92.6175 112.933 92.8113 113.611ZM100.657 113.03C101.238 113.611 101.431 114.483 101.238 115.645C101.044 116.807 101.141 117.485 101.528 117.679C101.722 117.776 101.916 117.873 102.109 117.97C102.206 117.292 102.303 116.614 102.4 115.936C102.594 114.58 102.206 113.611 101.238 113.03C100.753 112.739 100.269 112.449 99.7848 112.158C100.075 112.449 100.366 112.739 100.657 113.03ZM193.928 115.354C194.315 116.323 195.478 117.485 197.415 118.841C199.352 120.197 201.386 120.778 203.517 120.585C205.647 120.391 207.391 119.81 208.747 118.841C209.425 118.357 210.103 117.873 210.781 117.388C210.587 117.195 210.393 117.001 210.2 116.807C209.812 116.42 209.037 116.71 207.875 117.679C206.713 118.648 205.163 119.132 203.226 119.132C201.289 119.132 199.158 118.26 196.834 116.517C195.671 115.645 194.509 114.773 193.347 113.902C193.541 114.386 193.734 114.87 193.928 115.354ZM173.588 118.26C170.876 120.004 168.455 120.778 166.324 120.585C164.193 120.391 162.547 119.81 161.385 118.841C160.222 117.873 159.351 117.582 158.77 117.97C158.479 118.163 158.188 118.357 157.898 118.551C158.866 119.132 159.835 119.713 160.804 120.294C162.741 121.456 164.871 122.037 167.196 122.037C169.521 122.037 171.942 121.263 174.46 119.713C176.978 118.163 178.334 117.098 178.528 116.517C178.625 116.226 178.722 115.936 178.819 115.645C178.625 115.645 178.431 115.645 178.237 115.645C177.85 115.645 176.3 116.517 173.588 118.26ZM216.011 117.388C216.883 118.163 217.754 118.938 218.626 119.713C220.369 121.263 221.241 123.393 221.241 126.105C221.241 128.817 220.757 130.948 219.788 132.498C219.304 133.273 218.82 134.047 218.335 134.822C218.045 134.629 217.754 134.435 217.464 134.241C216.883 133.854 216.495 133.176 216.302 132.207C216.108 131.239 216.011 128.527 216.011 124.071C216.011 121.844 216.011 119.616 216.011 117.388ZM105.596 123.781C106.565 124.653 107.533 125.524 108.502 126.396C110.439 128.139 111.698 129.689 112.279 131.045C112.57 131.723 112.86 132.401 113.151 133.079C111.892 132.595 110.633 132.11 109.373 131.626C106.855 130.658 105.596 129.108 105.596 126.977C105.596 125.912 105.596 124.846 105.596 123.781ZM149.181 124.071C149.568 124.265 150.343 127.461 151.505 133.66C152.087 136.759 152.668 139.859 153.249 142.958C152.377 142.668 151.505 142.377 150.634 142.086C148.89 141.505 147.438 140.44 146.275 138.89C145.113 137.341 144.532 135.307 144.532 132.788C144.532 130.27 145.21 128.139 146.566 126.396C147.922 124.653 148.794 123.878 149.181 124.071ZM120.124 129.011C121.965 129.398 123.805 129.786 125.645 130.173C129.326 130.948 132.231 131.82 134.362 132.788C136.493 133.757 137.558 135.113 137.558 136.856C137.558 138.6 136.88 140.827 135.524 143.539C134.846 144.895 134.168 146.251 133.49 147.607C136.299 147.801 139.108 147.995 141.917 148.188C147.534 148.576 150.44 150.125 150.634 152.837C150.827 155.549 150.731 157.39 150.343 158.358C150.149 158.842 149.956 159.327 149.762 159.811C150.537 159.811 151.312 159.811 152.087 159.811C153.636 159.811 154.799 161.07 155.573 163.588C156.348 166.107 157.898 167.559 160.222 167.947C162.547 168.334 164.29 168.334 165.453 167.947C166.615 167.559 168.165 168.141 170.102 169.69C172.039 171.24 173.201 179.569 173.588 194.679C173.976 209.788 174.944 222.186 176.494 231.871C178.044 241.557 177.559 248.24 175.041 251.92C173.782 253.76 172.523 255.601 171.264 257.441C170.586 256.279 169.908 255.116 169.23 253.954C167.874 251.63 166.034 245.625 163.709 235.939C161.385 226.254 160.319 221.217 160.513 220.83C160.61 220.636 160.707 220.442 160.804 220.249C162.934 224.413 165.065 228.578 167.196 232.743C171.458 241.072 173.879 245.237 174.46 245.237C174.751 245.237 175.041 245.237 175.332 245.237C172.91 240.879 170.489 236.52 168.068 232.162C163.225 223.445 162.256 216.374 165.162 210.95C168.068 205.527 167.777 200.2 164.29 194.969C160.804 189.739 160.416 184.896 163.128 180.441C165.84 175.986 167.196 173.371 167.196 172.596C167.196 172.208 167.196 171.821 167.196 171.434C166.905 171.627 166.615 171.821 166.324 172.015C165.743 172.402 164.193 174.92 161.675 179.569C159.157 184.218 159.641 189.061 163.128 194.098C166.615 199.134 166.905 204.364 164 209.788C162.547 212.5 161.094 215.212 159.641 217.924C158.866 212.5 158.092 207.076 157.317 201.652C155.767 190.805 154.992 183.734 154.992 180.441C154.992 177.148 151.602 171.918 144.822 164.751C138.043 157.583 134.362 153.128 133.781 151.385C133.2 149.641 132.328 147.995 131.166 146.445C130.004 144.895 128.551 143.442 126.807 142.086C125.064 140.73 123.514 138.212 122.158 134.532C121.48 132.692 120.802 130.851 120.124 129.011ZM221.822 129.592C223.178 130.851 224.534 132.11 225.89 133.37C227.246 134.629 228.602 135.888 229.958 137.147C228.505 137.244 227.052 137.341 225.6 137.437C224.147 137.534 222.694 137.631 221.241 137.728C221.629 138.89 222.016 140.053 222.403 141.215C222.791 142.377 223.178 143.539 223.566 144.702C222.888 144.702 222.21 144.702 221.532 144.702C220.854 144.702 220.176 144.702 219.498 144.702C219.595 143.442 219.691 142.183 219.788 140.924C219.982 138.406 219.885 136.856 219.498 136.275C219.11 135.694 219.401 134.435 220.369 132.498C220.854 131.529 221.338 130.561 221.822 129.592ZM196.543 135.403C196.834 135.403 197.124 135.403 197.415 135.403C197.318 135.888 197.221 136.372 197.124 136.856C196.931 137.825 196.156 138.503 194.8 138.89C194.122 139.084 193.444 139.278 192.766 139.471C192.669 138.987 192.572 138.503 192.475 138.019C192.281 137.05 192.766 136.372 193.928 135.985C195.09 135.597 195.962 135.403 196.543 135.403ZM104.434 135.985C105.79 136.566 107.146 137.147 108.502 137.728C109.858 138.309 111.214 138.89 112.57 139.471C111.214 139.084 109.858 138.697 108.502 138.309C105.79 137.534 104.434 136.953 104.434 136.566C104.434 136.372 104.434 136.178 104.434 135.985ZM189.279 137.728C189.376 138.212 189.473 138.697 189.57 139.181C189.763 140.149 189.57 140.924 188.988 141.505C188.407 142.086 187.632 142.377 186.664 142.377C185.695 142.377 185.114 142.086 184.92 141.505C184.727 140.924 185.405 140.149 186.954 139.181C187.729 138.697 188.504 138.212 189.279 137.728ZM85.8377 140.634C86.6125 140.634 87.3874 140.634 88.1622 140.634C88.1622 140.827 88.1622 141.021 88.1622 141.215C88.1622 141.408 88.1622 141.602 88.1622 141.796C87.0968 141.796 86.0314 141.796 84.966 141.796C83.9006 141.796 82.8352 141.796 81.7698 141.796C82.0603 141.602 82.3509 141.408 82.6415 141.215C83.2226 140.827 84.288 140.634 85.8377 140.634ZM201.483 141.215C201.676 141.215 201.87 141.215 202.064 141.215C202.064 141.796 202.064 142.377 202.064 142.958C202.064 144.12 201.289 144.798 199.739 144.992C198.964 145.089 198.19 145.186 197.415 145.283C197.512 144.895 197.608 144.508 197.705 144.12C197.899 143.346 198.48 142.668 199.449 142.086C200.417 141.505 201.095 141.215 201.483 141.215ZM181.724 141.796C181.821 142.28 181.918 142.764 182.015 143.249C182.209 144.217 182.112 144.895 181.724 145.283C181.337 145.67 180.465 145.961 179.109 146.154C177.753 146.348 176.882 146.251 176.494 145.864C176.3 145.67 176.107 145.476 175.913 145.283C176.882 144.702 177.85 144.12 178.819 143.539C179.787 142.958 180.756 142.377 181.724 141.796ZM207.585 142.086C208.166 142.28 208.456 142.764 208.456 143.539C208.456 143.927 208.456 144.314 208.456 144.702C207.778 144.702 207.1 144.702 206.422 144.702C205.744 144.702 205.066 144.702 204.388 144.702C204.776 144.217 205.163 143.733 205.551 143.249C206.325 142.28 207.003 141.893 207.585 142.086ZM68.6943 142.668C70.3409 142.764 71.9874 142.861 73.6339 142.958C71.7937 143.055 69.9534 143.152 68.1132 143.249C66.2729 143.346 64.4327 143.442 62.5925 143.539C62.7862 143.346 62.9799 143.152 63.1736 142.958C63.561 142.571 65.4012 142.474 68.6943 142.668ZM194.219 143.249C194.8 143.442 195.09 143.927 195.09 144.702C195.09 145.476 194.122 146.154 192.185 146.736C191.216 147.026 190.248 147.317 189.279 147.607C189.376 147.22 189.473 146.832 189.57 146.445C189.763 145.67 190.441 144.895 191.603 144.12C192.766 143.346 193.637 143.055 194.219 143.249ZM102.4 145.864C106.468 145.864 109.664 146.154 111.989 146.736C113.151 147.026 114.313 147.317 115.475 147.607C114.797 148.963 114.119 150.319 113.441 151.675C112.085 154.387 111.117 157.293 110.536 160.392C110.245 161.942 109.955 163.491 109.664 165.041C109.955 164.944 110.245 164.847 110.536 164.751C111.117 164.557 111.989 162.232 113.151 157.777C114.313 153.322 115.185 150.61 115.766 149.641C116.347 148.673 116.928 148.188 117.509 148.188C118.09 148.188 118.478 148.673 118.672 149.641C118.865 150.61 118.09 152.063 116.347 154C114.604 155.937 113.441 158.649 112.86 162.135C112.279 165.622 111.504 168.141 110.536 169.69C109.567 171.24 109.083 173.274 109.083 175.792C109.083 178.31 109.761 180.732 111.117 183.056C112.473 185.381 113.732 186.834 114.894 187.415C116.056 187.996 116.734 188.771 116.928 189.739C117.122 190.708 118.09 192.064 119.834 193.807C121.577 195.551 123.224 197.003 124.773 198.166C126.323 199.328 127.292 199.715 127.679 199.328C127.873 199.134 128.067 198.94 128.26 198.747C127.97 198.553 127.679 198.359 127.389 198.166C127.098 197.972 126.807 197.778 126.517 197.584C127.001 197.584 127.485 197.584 127.97 197.584C128.454 197.584 128.938 197.584 129.422 197.584C129.422 198.069 129.422 198.553 129.422 199.037C129.422 199.522 129.422 200.006 129.422 200.49C128.841 200.49 128.26 200.49 127.679 200.49C126.517 200.49 125.064 199.812 123.321 198.456C122.449 197.778 121.577 197.1 120.706 196.422C120.609 196.713 120.512 197.003 120.415 197.294C120.221 197.875 121.093 198.844 123.03 200.2C124.967 201.556 126.614 202.234 127.97 202.234C129.326 202.234 130.294 203.686 130.875 206.592C131.456 209.498 131.844 212.21 132.038 214.728C132.231 217.246 131.747 219.086 130.585 220.249C129.422 221.411 127.776 221.701 125.645 221.12C123.514 220.539 121.965 221.12 120.996 222.864C120.512 223.735 120.028 224.607 119.543 225.479C118.768 224.898 117.994 224.316 117.219 223.735C115.669 222.573 114.507 222.089 113.732 222.283C112.957 222.476 112.085 223.638 111.117 225.769C110.633 226.835 110.148 227.9 109.664 228.966C107.436 225.479 105.209 221.992 102.981 218.505C98.5257 211.532 97.0729 207.076 98.6226 205.139C100.172 203.202 101.141 200.587 101.528 197.294C101.722 195.647 101.916 194.001 102.109 192.354C101.916 192.451 101.722 192.548 101.528 192.645C101.141 192.839 100.657 194.582 100.075 197.875C99.4943 201.168 98.5257 203.396 97.1697 204.558C96.4917 205.139 95.8138 205.72 95.1358 206.301C95.7169 205.623 96.298 204.945 96.8792 204.267C98.0414 202.911 98.8163 200.393 99.2037 196.713C99.5911 193.032 100.269 190.127 101.238 187.996C102.206 185.865 102.497 183.25 102.109 180.151C101.722 177.051 99.4943 173.177 95.4263 168.528C91.3584 163.879 88.3559 161.167 86.4188 160.392C84.4817 159.617 83.5132 158.842 83.5132 158.068C83.5132 157.68 83.5132 157.293 83.5132 156.905C83.8037 156.905 84.0943 156.905 84.3849 156.905C84.966 156.905 86.5157 157.68 89.0339 159.23C90.293 160.005 91.5521 160.78 92.8113 161.554C92.4238 160.973 92.0364 160.392 91.649 159.811C90.8741 158.649 89.3245 157.583 86.9999 156.615C84.6754 155.646 83.5132 154.387 83.5132 152.837C83.5132 151.288 85.644 149.738 89.9056 148.188C94.1672 146.639 98.332 145.864 102.4 145.864ZM173.588 145.864C173.685 146.639 173.782 147.414 173.879 148.188C174.073 149.738 173.685 150.61 172.717 150.803C171.748 150.997 170.973 150.61 170.392 149.641C170.102 149.157 169.811 148.673 169.521 148.188C170.198 147.801 170.876 147.414 171.554 147.026C172.232 146.639 172.91 146.251 173.588 145.864ZM186.664 146.445C187.245 146.445 187.632 146.736 187.826 147.317C188.02 147.898 187.148 148.673 185.211 149.641C184.242 150.125 183.274 150.61 182.305 151.094C182.402 150.61 182.499 150.125 182.596 149.641C182.79 148.673 183.371 147.898 184.339 147.317C185.308 146.736 186.083 146.445 186.664 146.445ZM190.732 148.769C191.022 148.769 191.313 148.769 191.603 148.769C191.603 149.835 191.603 150.9 191.603 151.966C191.603 153.031 191.603 154.097 191.603 155.162C190.732 155.065 189.86 154.968 188.988 154.871C187.245 154.678 186.18 154.774 185.792 155.162C185.405 155.549 185.017 158.358 184.63 163.588C184.242 168.818 183.661 171.627 182.887 172.015C182.499 172.208 182.112 172.402 181.724 172.596C181.821 169.981 181.918 167.366 182.015 164.751C182.112 162.135 182.209 159.52 182.305 156.905C181.724 157.196 181.143 157.486 180.562 157.777C179.4 158.358 178.334 158.164 177.366 157.196C176.882 156.712 176.397 156.227 175.913 155.743C178.237 154.581 180.562 153.419 182.887 152.256C187.536 149.932 190.151 148.769 190.732 148.769ZM167.196 149.932C167.293 150.513 167.39 151.094 167.487 151.675C167.68 152.837 167.39 153.709 166.615 154.29C165.84 154.871 165.162 155.065 164.581 154.871C164 154.678 163.612 154.29 163.419 153.709C163.225 153.128 163.806 152.353 165.162 151.385C165.84 150.9 166.518 150.416 167.196 149.932ZM124.192 151.094C124.87 151.675 125.548 152.256 126.226 152.837C127.582 154 128.648 155.549 129.422 157.486C130.197 159.424 131.166 160.683 132.328 161.264C133.49 161.845 134.943 164.363 136.687 168.818C138.43 173.274 139.495 178.504 139.883 184.509C140.27 190.514 140.173 194.679 139.592 197.003C139.302 198.166 139.011 199.328 138.721 200.49C138.43 199.909 138.139 199.328 137.849 198.747C137.268 197.584 137.268 196.422 137.849 195.26C138.139 194.679 138.43 194.098 138.721 193.517C138.236 193.904 137.752 194.291 137.268 194.679C136.783 195.066 136.299 195.454 135.815 195.841C136.202 194.195 136.59 192.548 136.977 190.901C137.365 189.255 137.752 187.608 138.139 185.962C137.849 185.962 137.558 185.962 137.268 185.962C136.977 185.962 136.687 185.962 136.396 185.962C136.396 186.737 136.396 187.512 136.396 188.286C136.396 189.836 136.009 191.192 135.234 192.354C134.846 192.935 134.459 193.517 134.072 194.098C134.265 192.354 134.459 190.611 134.653 188.867C135.04 185.381 135.621 182.959 136.396 181.603C137.171 180.247 137.558 178.31 137.558 175.792C137.558 173.274 137.074 171.046 136.105 169.109C135.137 167.172 133.975 165.719 132.619 164.751C131.263 163.782 129.907 161.942 128.551 159.23C127.195 156.518 126.033 154.774 125.064 154C124.095 153.225 123.708 152.547 123.902 151.966C123.999 151.675 124.095 151.385 124.192 151.094ZM118.962 152.256C119.059 152.547 119.156 152.837 119.253 153.128C119.446 153.709 120.124 153.903 121.287 153.709C122.449 153.515 123.321 153.709 123.902 154.29C124.483 154.871 125.451 156.324 126.807 158.649C127.485 159.811 128.163 160.973 128.841 162.135C127.389 161.942 125.936 161.748 124.483 161.554C121.577 161.167 119.059 161.554 116.928 162.717C115.863 163.298 114.797 163.879 113.732 164.46C114.023 163.104 114.313 161.748 114.604 160.392C115.185 157.68 116.056 155.646 117.219 154.29C117.8 153.612 118.381 152.934 118.962 152.256ZM109.083 157.777C108.695 159.23 108.308 160.683 107.921 162.135C108.502 160.973 109.083 159.811 109.664 158.649C110.826 156.324 111.407 154.871 111.407 154.29C111.407 154 111.407 153.709 111.407 153.419C111.214 153.419 111.02 153.419 110.826 153.419C110.439 153.419 109.858 154.871 109.083 157.777ZM75.3773 156.324C75.4742 156.808 75.571 157.293 75.6679 157.777C75.8616 158.746 75.571 159.714 74.7962 160.683C74.0214 161.651 73.1497 163.976 72.1811 167.656C71.2126 171.337 70.7283 173.564 70.7283 174.339C70.7283 174.727 70.7283 175.114 70.7283 175.501C71.0188 175.405 71.3094 175.308 71.6 175.211C72.1811 175.017 72.8591 172.886 73.6339 168.818C74.4088 164.751 75.1836 162.329 75.9585 161.554C76.3459 161.167 76.7333 160.78 77.1207 160.392C76.6364 161.748 76.1522 163.104 75.6679 164.46C74.6993 167.172 73.9245 171.143 73.3434 176.373C73.0528 178.988 72.7622 181.603 72.4717 184.218C72.0843 183.25 71.6968 182.281 71.3094 181.313C70.5346 179.376 70.1472 176.664 70.1472 173.177C70.1472 171.434 70.1472 169.69 70.1472 167.947C69.9534 167.947 69.7597 167.947 69.566 167.947C69.3723 167.947 69.1786 167.947 68.9849 167.947C69.0817 170.465 69.1786 172.983 69.2755 175.501C69.4692 180.538 69.9534 183.637 70.7283 184.8C71.5031 185.962 72.0843 186.446 72.4717 186.252C72.6654 186.156 72.8591 186.059 73.0528 185.962C73.5371 187.027 74.0214 188.093 74.5056 189.158C75.4742 191.289 76.5396 192.742 77.7019 193.517C78.8641 194.291 79.8327 195.551 80.6075 197.294C81.3823 199.037 82.4478 200.587 83.8037 201.943C85.1597 203.299 86.5157 204.267 87.8716 204.849C89.2276 205.43 89.9056 205.914 89.9056 206.301C89.9056 206.495 89.9056 206.689 89.9056 206.883C89.4213 206.786 88.937 206.689 88.4528 206.592C87.4842 206.398 85.1597 204.752 81.4792 201.652C77.7987 198.553 75.7647 197.1 75.3773 197.294C75.1836 197.391 74.9899 197.488 74.7962 197.584C76.5396 199.134 78.283 200.684 80.0264 202.234C83.5132 205.333 86.1282 207.173 87.8716 207.754C89.615 208.335 92.327 212.5 96.0075 220.249C97.8477 224.123 99.688 227.997 101.528 231.871C98.8163 231.581 96.1043 231.29 93.3924 230.999C87.9685 230.418 84.1911 229.547 82.0603 228.384C79.9295 227.222 77.605 224.994 75.0868 221.701C72.5685 218.408 70.4377 216.568 68.6943 216.181C66.9509 215.793 65.3044 215.115 63.7547 214.147C62.205 213.178 61.2365 211.241 60.8491 208.335C60.4616 205.43 60.8491 203.589 62.0113 202.815C63.1736 202.04 63.4641 199.715 62.883 195.841C62.3019 191.967 62.1082 187.996 62.3019 183.928C62.4956 179.86 63.1736 176.083 64.3358 172.596C65.4981 169.109 66.8541 166.203 68.4038 163.879C69.9534 161.554 71.5031 159.714 73.0528 158.358C73.8276 157.68 74.6025 157.002 75.3773 156.324ZM81.4792 156.324C81.7698 156.324 82.0603 156.324 82.3509 156.324C82.3509 156.905 82.3509 157.486 82.3509 158.068C82.3509 159.23 82.1572 160.295 81.7698 161.264C81.3823 162.232 80.8981 162.813 80.3169 163.007C80.0264 163.104 79.7358 163.201 79.4452 163.298C79.1547 162.329 78.8641 161.361 78.5735 160.392C77.9924 158.455 78.1861 157.293 79.1547 156.905C80.1232 156.518 80.8981 156.324 81.4792 156.324ZM95.7169 163.007C97.2666 165.235 98.8163 167.463 100.366 169.69C100.463 169.4 100.56 169.109 100.657 168.818C100.85 168.237 100.269 166.881 98.9131 164.751C97.5572 162.62 95.9106 160.683 93.9735 158.939C93.005 158.068 92.0364 157.196 91.0679 156.324C92.6175 158.552 94.1672 160.78 95.7169 163.007ZM86.1282 161.554C87.8716 162.329 89.3245 163.491 90.4867 165.041C91.0679 165.816 91.649 166.591 92.2301 167.366C90.5836 167.366 88.937 167.366 87.2905 167.366C83.9974 167.366 81.3823 167.947 79.4452 169.109C77.5081 170.271 76.3459 171.24 75.9585 172.015C75.7647 172.402 75.571 172.79 75.3773 173.177C75.7647 171.53 76.1522 169.884 76.5396 168.237C76.927 166.591 77.3144 164.944 77.7019 163.298C78.283 163.588 78.8641 163.879 79.4452 164.169C80.0264 164.46 80.6075 164.751 81.1886 165.041C81.5761 164.266 81.9635 163.491 82.3509 162.717C83.1257 161.167 84.3849 160.78 86.1282 161.554ZM123.03 162.717C125.742 162.717 127.873 163.104 129.422 163.879C130.972 164.654 132.522 166.397 134.072 169.109C135.621 171.821 136.396 174.049 136.396 175.792C136.396 177.535 135.912 179.473 134.943 181.603C133.975 183.734 132.425 185.478 130.294 186.834C128.163 188.19 126.033 188.964 123.902 189.158C121.771 189.352 119.834 189.061 118.09 188.286C116.347 187.512 114.604 185.768 112.86 183.056C111.117 180.344 110.245 177.923 110.245 175.792C110.245 173.661 110.536 171.918 111.117 170.562C111.698 169.206 112.57 167.85 113.732 166.494C114.894 165.138 116.056 164.169 117.219 163.588C118.381 163.007 120.318 162.717 123.03 162.717ZM90.1962 169.109C93.8767 169.884 96.2012 170.756 97.1697 171.724C98.1383 172.693 99.01 174.049 99.7848 175.792C100.56 177.535 101.044 179.473 101.238 181.603C101.431 183.734 101.238 185.574 100.657 187.124C100.075 188.674 99.2037 190.127 98.0414 191.483C96.8792 192.839 95.3295 194.001 93.3924 194.969C91.4553 195.938 89.4213 196.422 87.2905 196.422C85.1597 196.422 83.3194 196.035 81.7698 195.26C80.2201 194.485 78.8641 193.517 77.7019 192.354C76.5396 191.192 75.6679 189.836 75.0868 188.286C74.5056 186.737 74.1182 184.896 73.9245 182.766C73.7308 180.635 74.0214 178.698 74.7962 176.954C75.571 175.211 76.5396 173.661 77.7019 172.305C78.8641 170.949 80.3169 169.884 82.0603 169.109C83.8037 168.334 86.5157 168.334 90.1962 169.109ZM174.17 172.596C175.719 172.886 177.269 173.177 178.819 173.468C181.918 174.049 185.405 174.049 189.279 173.468C191.216 173.177 193.153 172.886 195.09 172.596C195.284 175.695 195.478 178.795 195.671 181.894C196.059 188.093 196.834 194.776 197.996 201.943C199.158 209.11 196.543 217.827 190.151 228.094C186.954 233.227 183.758 238.36 180.562 243.494C179.69 238.748 178.819 234.002 177.947 229.256C176.204 219.764 175.138 207.948 174.751 193.807C174.557 186.737 174.363 179.666 174.17 172.596ZM132.909 186.543C133.006 187.415 133.103 188.286 133.2 189.158C133.394 190.901 132.812 192.451 131.456 193.807C130.1 195.163 128.26 195.647 125.936 195.26C123.611 194.873 121.868 194.001 120.706 192.645C120.124 191.967 119.543 191.289 118.962 190.611C120.221 190.611 121.48 190.611 122.739 190.611C125.258 190.611 127.582 189.933 129.713 188.577C130.778 187.899 131.844 187.221 132.909 186.543ZM112.279 191.192C113.248 192.742 113.732 194.195 113.732 195.551C113.732 196.906 113.248 197.681 112.279 197.875C111.311 198.069 110.342 197.778 109.373 197.003C108.405 196.228 107.727 196.035 107.34 196.422C107.146 196.616 106.952 196.81 106.758 197.003C107.34 197.391 107.921 197.778 108.502 198.166C109.664 198.94 110.729 199.328 111.698 199.328C112.667 199.328 113.538 198.94 114.313 198.166C115.088 197.391 115.475 196.422 115.475 195.26C115.475 194.098 114.701 192.742 113.151 191.192C112.376 190.417 111.601 189.642 110.826 188.867C111.311 189.642 111.795 190.417 112.279 191.192ZM141.626 189.449C142.014 190.127 142.401 190.805 142.788 191.483C143.563 192.839 143.854 194.582 143.66 196.713C143.466 198.844 142.692 200.49 141.336 201.652C140.658 202.234 139.98 202.815 139.302 203.396C139.689 201.071 140.077 198.747 140.464 196.422C140.851 194.098 141.239 191.773 141.626 189.449ZM97.4603 193.517C97.5572 194.388 97.654 195.26 97.7509 196.132C97.9446 197.875 97.3634 199.812 96.0075 201.943C94.6515 204.074 92.9081 204.849 90.7773 204.267C88.6465 203.686 86.7094 202.524 84.966 200.781C83.2226 199.037 82.3509 197.972 82.3509 197.584C82.3509 197.391 82.3509 197.197 82.3509 197.003C83.9006 197.1 85.4503 197.197 86.9999 197.294C90.0993 197.488 92.6175 196.906 94.5546 195.551C95.5232 194.873 96.4917 194.195 97.4603 193.517ZM132.619 194.679C133.2 194.679 133.975 195.357 134.943 196.713C135.912 198.069 136.88 200.974 137.849 205.43C138.817 209.885 139.108 216.762 138.721 226.06C138.527 230.709 138.333 235.358 138.139 240.007C138.43 239.91 138.721 239.813 139.011 239.716C139.592 239.523 139.883 238.845 139.883 237.682C139.883 237.101 139.883 236.52 139.883 235.939C140.27 236.036 140.658 236.133 141.045 236.23C141.82 236.423 142.595 236.908 143.37 237.682C144.144 238.457 144.629 239.62 144.822 241.169C145.016 242.719 144.338 244.559 142.788 246.69C141.239 248.821 139.205 250.564 136.687 251.92C134.168 253.276 133.006 254.923 133.2 256.86C133.394 258.797 131.456 260.25 127.389 261.218C125.355 261.703 123.321 262.187 121.287 262.671C121.19 261.896 121.093 261.121 120.996 260.347C120.802 258.797 120.318 257.635 119.543 256.86C118.768 256.085 116.928 255.601 114.023 255.407C111.117 255.213 109.47 254.923 109.083 254.535C108.695 254.148 108.308 251.533 107.921 246.69C107.533 241.847 104.724 234.583 99.4943 224.898C94.2641 215.212 91.649 209.594 91.649 208.045C91.649 207.27 91.649 206.495 91.649 205.72C92.4238 206.301 93.1987 206.883 93.9735 207.464C95.5232 208.626 98.9131 213.662 104.143 222.573C106.758 227.028 109.373 231.484 111.989 235.939C112.279 234.874 112.57 233.808 112.86 232.743C113.151 231.677 113.441 230.612 113.732 229.547C113.441 229.547 113.151 229.547 112.86 229.547C112.279 229.547 111.795 230.031 111.407 230.999C111.214 231.484 111.02 231.968 110.826 232.452C110.826 231.871 110.826 231.29 110.826 230.709C110.826 229.547 111.214 228.094 111.989 226.35C112.763 224.607 113.538 223.735 114.313 223.735C115.088 223.735 115.863 224.123 116.638 224.898C117.412 225.672 118.381 227.028 119.543 228.966C120.124 229.934 120.706 230.903 121.287 231.871C121.48 231.677 121.674 231.484 121.868 231.29C122.255 230.903 122.061 230.031 121.287 228.675C120.512 227.319 120.609 225.769 121.577 224.026C122.546 222.283 123.514 221.508 124.483 221.701C125.451 221.895 126.42 222.476 127.389 223.445C128.357 224.413 129.229 225.672 130.004 227.222C130.778 228.772 131.456 229.45 132.038 229.256C132.619 229.062 133.006 226.254 133.2 220.83C133.394 215.406 133.006 210.079 132.038 204.849C131.069 199.618 130.778 196.616 131.166 195.841C131.553 195.066 132.038 194.679 132.619 194.679ZM99.7848 204.558C99.2037 205.72 98.6226 206.883 98.0414 208.045C98.332 208.045 98.6226 208.045 98.9131 208.045C99.4943 208.045 100.172 207.561 100.947 206.592C101.722 205.623 102.206 204.461 102.4 203.105C102.497 202.427 102.594 201.749 102.69 201.071C102.497 201.071 102.303 201.071 102.109 201.071C101.722 201.071 100.947 202.234 99.7848 204.558ZM114.894 203.977C112.57 205.527 110.536 208.239 108.792 212.113C107.921 214.05 107.049 215.987 106.177 217.924C106.468 217.827 106.758 217.73 107.049 217.633C107.63 217.44 108.695 215.6 110.245 212.113C111.795 208.626 113.441 206.301 115.185 205.139C116.928 203.977 118.575 203.493 120.124 203.686C121.674 203.88 122.933 205.042 123.902 207.173C124.87 209.304 125.645 210.466 126.226 210.66C126.517 210.757 126.807 210.854 127.098 210.95C126.711 209.885 126.323 208.82 125.936 207.754C125.161 205.623 124.289 204.171 123.321 203.396C122.352 202.621 121.287 202.137 120.124 201.943C118.962 201.749 117.219 202.427 114.894 203.977ZM79.7358 206.011C80.3169 206.979 81.1886 207.754 82.3509 208.335C83.5132 208.917 84.7723 209.11 86.1282 208.917C86.8062 208.82 87.4842 208.723 88.1622 208.626C86.6125 207.948 85.0628 207.27 83.5132 206.592C81.9635 205.914 80.4138 205.236 78.8641 204.558C79.1547 205.042 79.4452 205.527 79.7358 206.011ZM116.347 207.754C115.378 208.335 114.604 209.11 114.023 210.079C113.441 211.047 113.248 211.725 113.441 212.113C113.538 212.306 113.635 212.5 113.732 212.694C114.216 212.113 114.701 211.532 115.185 210.95C116.153 209.788 117.316 209.013 118.672 208.626C119.35 208.432 120.028 208.239 120.706 208.045C120.221 207.851 119.737 207.657 119.253 207.464C118.284 207.076 117.316 207.173 116.347 207.754ZM131.747 220.249C131.844 221.023 131.941 221.798 132.038 222.573C132.231 224.123 132.134 225.285 131.747 226.06C131.553 226.447 131.36 226.835 131.166 227.222C130.778 226.447 130.391 225.672 130.004 224.898C129.229 223.348 129.326 222.186 130.294 221.411C130.778 221.023 131.263 220.636 131.747 220.249Z" fill="currentColor" fill-rule="nonzero" opacity="1" stroke="none"/>
</g>
</svg>
