<?xml version="1.0" encoding="UTF-8" standalone="no"?>
<svg height="100%" stroke-miterlimit="10" style="fill-rule:nonzero;clip-rule:evenodd;stroke-linecap:round;stroke-linejoin:round;" version="1.1" viewBox="0 0 57.1263 56.9446" width="100%" xml:space="preserve" xmlns="http://www.w3.org/2000/svg" xmlns:xlink="http://www.w3.org/1999/xlink">
<defs/>
<clipPath id="ArtboardFrame">
<rect height="56.9446" width="57.1263" x="0" y="0"/>
</clipPath>
<g clip-path="url(#ArtboardFrame)" id="Слой-2" visibility="hidden">
<text fill="#000000" font-family="ArialRoundedMTBold" font-size="64" opacity="1" stroke="none" text-anchor="start" transform="matrix(1 0 0 1 14.6118 0)" x="0" y="0">
<tspan textLength="38.0312" x="0" y="61">4</tspan>
</text>
<text fill="#000000" font-family="ArialRoundedMTBold" font-size="64" opacity="1" stroke="none" text-anchor="start" transform="matrix(1 0 0 1 124.357 0)" x="0" y="0">
<tspan textLength="38.0312" x="0" y="61">4</tspan>
</text>
</g>
<g clip-path="url(#ArtboardFrame)" id="Слой-3">
<g opacity="1">
<path d="M23.1015 53.2668C22.9429 52.9496 22.8785 52.9783 22.6425 52.7423C22.915 52.3335 24.1014 52.7684 24.4785 53.0701C25.5688 53.9424 28.2438 54.4726 29.7244 54.5783C32.2511 54.7588 33.6905 53.428 36.0195 53.0046C37.8601 52.6699 39.7698 52.9507 41.5932 52.5455C42.8199 52.2729 42.9279 51.6824 44.0194 51.0374C44.3399 50.848 44.7652 51.021 45.1342 50.9718C46.1408 50.8376 47.442 50.4868 48.2817 49.857C49.9042 48.6402 51.2585 47.2223 51.626 45.2013C51.7759 44.3769 51.7701 43.5622 52.085 42.7751C52.6376 41.3935 53.9624 40.4526 54.1833 38.9063C54.3502 37.7381 53.9312 36.5 54.1833 35.3653C54.4979 33.9499 55.5604 33.1447 55.5604 31.562C55.5604 30.7227 54.7735 29.9795 54.7735 29.2014C54.7735 28.6497 55.019 28.1339 54.9046 27.562C54.7237 26.6574 54.0799 25.9026 53.8555 25.0047C53.5184 23.6565 53.921 22.4323 53.921 21.0703C53.921 19.0801 52.0177 17.3181 50.6424 16.2178C51.9088 13.685 50.6951 10.828 48.8719 9.00474C48.2729 8.40573 47.502 8.11462 46.9703 7.43097C46.4865 6.80902 46.4017 6.10795 46.1178 5.39819C45.4155 3.6425 43.7154 2.54971 41.9211 2.25067C41.1772 2.12669 40.3427 2.19314 39.626 1.98837C38.5302 1.67527 37.437 0.828295 36.4785 0.349034C34.5889-0.595785 32.0263 0.676902 30.0523 0.676902C27.5685 0.676902 25.6327-0.4641 22.9048 0.217887C21.632 0.536077 20.5385 1.191 19.5605 2.05395C18.9776 2.56826 18.2979 3.61551 17.4622 3.82443C14.6125 4.53684 11.7482 5.07942 9.59336 7.23425C8.30506 8.52255 8.49656 10.6638 7.42943 12.0867C6.7894 12.9401 5.39571 13.7954 5.13436 14.8408C4.72212 16.4897 5.14598 18.2427 4.67534 19.8899C4.46372 20.6306 3.81143 21.1817 3.62617 21.9227C3.25654 23.4012 2.77371 24.7177 2.77371 26.3161C2.77371 28.2199 3.75731 29.9296 3.75731 31.8243C3.75731 33.0856 2.70246 34.1106 2.57699 35.3653C2.44808 36.6544 2.70588 37.3691 3.49502 38.3161C3.75351 38.6263 4.30512 39.1303 4.41305 39.562C4.72034 40.7911 4.4434 42.5314 5.2655 43.6275C6.07771 44.7105 7.07324 44.9763 7.95402 45.857C8.3016 46.2046 8.05145 47.7574 8.54418 48.4144C9.43085 49.5966 10.1698 49.6037 11.1671 50.316C11.5743 50.6069 11.9511 51.2967 12.2819 51.6275C12.7993 52.1449 13.7809 52.1927 14.4458 52.4144C16.441 53.0795 17.024 53.7259 19.495 53.7259C19.9883 53.7259 22.9529 53.4155 23.1015 53.2668Z" fill="#a3d056" fill-rule="nonzero" opacity="1" stroke="none"/>
<path d="M26.5113 24.808C26.9949 24.3244 27.4475 23.4811 28.3474 24.0211C28.573 24.1564 28.7659 24.4402 29.0031 24.5457C31.7752 25.7777 29.2871 29.9736 26.7736 29.1358C26.1754 28.9364 25.822 28.6386 25.331 28.2178C25.3966 28.1194 25.3966 28.1194 25.4621 28.0211C26.0156 28.1594 26.7983 28.4553 27.2326 28.0211C26.1219 26.9103 24.6753 26.2731 24.6753 24.4801C24.6753 24.0444 24.9472 23.5055 25.1998 23.1686C26.7138 21.15 28.1772 19.5989 31.0359 20.7424C32.7902 21.4441 34.0803 23.1122 34.4457 24.9391C34.5572 25.4967 34.4056 26.6039 34.7736 26.9719C35.1931 26.5524 35.1014 24.8682 35.1014 24.4145C35.1014 22.4173 33.8494 20.1918 32.2162 19.1031C28.567 16.6702 24.4433 19.3584 22.5113 22.5785C20.8423 25.3602 21.0934 29.8588 24.1507 31.6932C25.2545 32.3555 26.6231 32.48 27.8884 32.48C28.6114 32.48 29.7778 32.1449 30.3802 31.6932C31.2978 31.0049 32.6332 30.1566 32.9375 28.9391C33.6566 26.0628 33.4933 21.9199 29.5933 21.5948C27.8541 21.4499 26.4056 21.8886 26.1179 23.7588C26.0283 24.3412 26.0366 24.4915 26.5113 24.808Z" fill="#89be59" fill-rule="nonzero" opacity="1" stroke="none"/>
<path d="M33.6588 17.4637C34.0834 18.3128 36.3936 20.8005 36.0851 21.726C35.7395 21.3805 35.4056 21.0912 34.9703 20.8735C34.9047 20.9391 34.9047 20.9391 34.8392 21.0047C35.277 21.8804 35.5451 24.4647 36.0195 24.9391C36.0851 24.8735 36.0851 24.8735 36.1506 24.808C37.4554 25.4603 37.2782 29.2157 37.0031 30.3161C36.909 30.6925 36.334 31.7454 36.6096 32.021C36.7408 31.9227 36.7408 31.9227 36.8719 31.8243C36.9375 31.8899 36.9375 31.8899 37.0031 31.9555C36.6579 32.6458 36.4869 33.193 35.8883 33.7915C34.8686 34.8112 33.3427 35.0913 32.2818 36.1522C31.4156 37.0184 31.3837 38.3161 29.79 38.3161C28.3005 38.3161 29.7402 36.5274 29.6588 36.2833C29.6179 36.1603 28.87 36.221 29.0687 35.8899C29.0916 35.8518 30.1944 34.904 29.5933 34.8407C28.5662 34.7326 26.7767 34.9094 25.9212 34.0538C25.4297 34.5453 21.4383 33.6444 23.8228 35.2341C23.7572 35.2997 23.7572 35.2997 23.6917 35.3653C22.9484 34.9936 21.9472 34.9323 21.331 34.3161C21.0751 34.572 21.3378 34.7431 20.9376 34.9718C20.2415 35.3696 19.1623 34.3578 19.0359 33.7259C18.9892 33.4924 19.0994 32.6208 18.9704 32.48C18.1046 31.5356 16.7998 30.2894 16.4786 29.0047C16.3789 28.606 16.0455 28.1902 15.954 27.8243C15.8115 27.2544 15.9293 26.5538 15.495 26.1194C15.4513 26.1631 15.3665 26.1888 15.3638 26.2506C15.322 27.2114 15.345 28.1742 15.3638 29.1358C15.4129 31.6371 17.1521 34.2683 18.8392 35.9554C19.3 36.4162 20.6713 37.0584 20.872 37.6604C21.2681 37.6604 23.2985 37.4634 22.4458 38.3161C22.8492 38.7195 24.3453 38.9189 24.9376 39.0374C27.5892 39.5677 29.878 39.5834 32.0195 38.0538C32.9032 37.4226 33.5573 36.6471 34.3146 35.8899C34.3491 35.8553 34.3978 35.8147 34.4457 35.8243C34.938 35.9228 34.5117 36.8301 34.9703 37.1358C36.0397 36.0664 37.2249 34.9124 38.3801 33.9882C38.7873 33.6625 39.0822 32.0228 39.2326 31.4964C39.6974 29.8695 39.524 28.5008 39.7572 26.7752C39.7737 26.6526 39.932 26.6003 40.0195 26.5129C39.5698 25.8384 39.9803 25.0967 39.5604 24.6768C39.1138 25.1235 39.4293 25.3588 39.4293 26.185C39.4293 26.7998 38.483 29.6887 38.0523 30.1194C37.5969 29.664 37.997 28.5649 38.1178 28.0211C38.4716 26.429 39.4242 24.0815 38.0523 22.7096C38.1178 22.644 38.1178 22.644 38.1834 22.5785C38.5212 22.9163 38.74 23.3233 39.0359 23.6932C39.1342 23.5948 39.1342 23.5948 39.2326 23.4965C39.3309 23.5948 39.3309 23.5948 39.4293 23.6932C39.6205 23.502 39.5177 23.154 39.626 22.9063C39.7127 22.7081 39.9522 22.6181 40.085 22.4473C40.2499 22.2354 39.6228 21.6196 39.5604 21.4637C39.0229 20.1199 37.5406 18.6518 36.2162 17.8572C35.5405 17.4517 34.2847 16.8379 33.6588 17.4637Z" fill="#89be59" fill-rule="nonzero" opacity="1" stroke="none"/>
<path d="M24.3474 19.3653C24.5769 19.6276 24.5769 19.6276 24.8064 19.8899C27.6092 18.0214 30.9172 17.8041 33.3965 20.2834C34.3788 21.2657 34.7987 23.0232 34.9047 24.3489C34.9396 24.7852 35.1487 25.3509 34.8392 25.6604C34.5125 25.3337 34.4468 24.3188 34.249 23.8243C33.6484 22.3229 31.9882 20.5267 30.249 20.4145C28.125 20.2775 25.5526 20.9709 24.9376 23.4309C24.8586 23.7466 24.5142 24.1292 24.4785 24.4145C24.2949 25.8837 25.978 27.2939 26.9703 27.9555C26.4204 28.5055 25.4596 27.5646 25.0687 27.9555C26.4425 30.0162 29.9734 29.5967 30.249 26.8407C30.272 26.6104 30.0353 23.3823 28.9375 24.4801C29.1434 24.7888 29.5661 25.4252 29.2654 25.726C29.0117 25.4722 28.5358 24.8551 28.0851 24.7424C27.431 24.5789 26.6735 24.9098 26.249 24.4145C26.0523 24.185 26.1914 23.7556 26.249 23.4965C26.6098 21.8731 28.0498 21.6604 29.5277 21.6604C30.2633 21.6604 31.0848 22.1205 31.6261 22.5785C33.9736 24.5648 33.7463 28.5238 31.6261 30.644C29.3936 32.8764 25.3409 32.949 23.1015 30.7096C22.137 29.7451 22.0329 28.5992 21.7245 27.3653C21.5036 26.4821 21.4972 25.1968 21.9212 24.3489C20.3229 22.7507 20.5441 25.8806 20.5441 26.9719C20.5441 28.474 21.3174 29.8827 22.1835 31.0374C22.5407 30.6802 23.2955 31.4728 23.6261 31.6932C24.8832 32.5313 26.4911 33.2962 28.0195 33.3981C31.0385 33.5993 32.9791 31.1822 34.7736 28.9391C35.106 29.1607 34.9191 29.3469 35.167 29.5948C36.4999 28.262 36.2199 25.0849 35.8228 23.4965C35.6802 22.9264 34.9895 21.6685 35.167 21.1358C35.5724 21.4061 35.9167 21.7293 36.2818 22.0539C36.589 21.7466 36.1234 21.0814 35.9539 20.7424C35.3375 19.5096 34.3593 18.1826 33.4621 17.1359C32.3242 17.8945 32.1646 18.0646 31.6261 16.808C31.4666 16.4359 30.8238 16.4452 31.1015 15.89C30.7113 15.4998 29.6087 15.9941 29.1343 16.1522C27.3529 16.746 25.5883 17.9177 24.3474 19.3653Z" fill="#4e6e31" fill-rule="nonzero" opacity="1" stroke="none"/>
<path d="M26.249 8.54572C25.2929 9.5019 27.0311 9.93229 26.8392 10.3162C26.4534 11.0879 24.4555 10.7868 23.8228 11.1031C22.9732 11.5279 22.6812 12.5069 22.0523 13.1359C21.6042 13.584 21.2135 12.9895 20.872 13.1359C20.7523 13.1872 20.2244 13.4497 20.0851 13.5293C19.5577 13.8307 19.4825 15.1019 19.1671 15.6277C18.581 16.6045 17.8566 16.8943 17.1999 17.6604C16.2315 18.7902 15.8228 21.6936 15.8228 23.0375C15.8228 23.4918 16.0959 24.2071 15.7573 24.5457C15.3204 24.1088 15.2002 23.1199 14.8392 22.5785C13.7992 23.6185 14.2253 25.9143 14.2491 27.103C14.2503 27.1648 14.3365 27.1905 14.3802 27.2342C14.4458 27.1686 14.4458 27.1686 14.5114 27.103C14.8802 27.3489 14.602 27.7388 14.5769 28.1522C14.5439 28.6981 14.4724 29.246 14.5114 29.7915C14.5213 29.9311 14.7397 29.9836 14.7737 30.1194C15.0348 31.1639 15.3522 32.5738 16.0196 33.4637C17.0287 34.8091 17.7593 36.3335 19.3638 37.1358C19.74 37.3239 20.619 37.7822 20.9376 37.4636C20.2293 36.7554 19.2576 36.2426 18.5114 35.4964C16.9466 33.9316 15.9863 31.8213 15.6261 29.6604C15.4869 28.8252 15.4679 28.0619 15.495 27.1686C15.4968 27.1068 15.5824 27.0812 15.6261 27.0374C15.8617 27.273 15.7104 27.487 15.8228 27.8243C16.1811 28.8992 16.8212 29.9449 17.4622 30.9063C17.8213 30.5472 20.1203 32.4449 20.872 31.6932C20.3358 31.1569 19.7562 30.73 19.2982 30.1194C18.7701 30.3835 18.0315 28.948 17.79 28.5456C16.8543 26.9861 16.3002 24.856 16.8064 23.1686C16.8643 22.9756 16.7951 22.7209 16.9376 22.5785C17.2556 22.8965 17.1313 22.7379 17.331 23.0375C17.648 22.7205 17.6161 21.8036 17.6589 21.3326C17.7557 20.2675 18.2693 19.0627 18.7081 18.185C19.2059 17.1894 20.3089 16.1985 21.1999 15.5621C21.6038 15.2735 22.3337 15.03 22.6425 14.6441C22.9706 14.2339 21.7126 14.5844 21.5933 14.6441C21.5277 14.5785 21.5277 14.5785 21.4622 14.5129C21.8157 14.1594 23.726 12.3833 24.413 13.0703C24.8438 12.7471 25.0692 12.327 25.5933 12.1523C25.5933 11.5874 27.3775 11.1501 27.8228 10.9719C29.5289 10.2895 32.0075 10.2614 33.5933 10.5785C34.2073 10.7013 35.4115 11.392 35.8228 10.7752C36.0221 10.8749 36.0657 10.7945 36.2162 10.6441C35.5085 9.93638 31.3469 10.001 30.6424 9.92277C30.3572 9.89107 29.0923 10.0776 28.872 9.85719C29.2933 9.43582 27.846 8.28343 27.3638 8.28343C26.9642 8.28343 26.6204 8.7314 26.249 8.54572Z" fill="#60a041" fill-rule="nonzero" opacity="1" stroke="none"/>
<path d="M22.5113 17.3326C22.2181 17.0394 22.5373 15.9691 22.7081 15.6277C22.0667 14.9863 20.2735 17.3451 19.7572 18.1195C19.0418 19.1926 18.3263 20.7669 18.2491 22.1194C18.2077 22.8425 18.5645 23.7712 18.0523 24.2834C17.8884 24.1194 17.8884 24.1194 17.7245 23.9555C17.0731 24.6069 17.4386 26.0908 17.6589 26.9719C18.2821 29.4648 20.2286 32.4145 23.0359 32.4145C23.3944 32.4145 23.6016 31.9738 23.8884 31.7587C23.5723 31.4427 22.655 30.6049 22.1835 30.8407C21.3391 29.9963 20.9829 28.6437 20.8064 27.4965C20.228 23.7365 22.0877 20.248 24.6753 17.6604C25.7395 16.5962 27.1197 16.1714 28.2818 15.2998C28.1507 15.1686 28.1507 15.1686 28.0195 15.0375C27.1422 15.9148 27.0481 14.4629 26.6425 14.3818C26.2296 14.2992 23.7808 16.1546 23.4949 16.4145C23.1631 16.7162 22.8392 17.0266 22.5113 17.3326Z" fill="#89be59" fill-rule="nonzero" opacity="1" stroke="none"/>
<path d="M12.2819 36.939C11.8546 37.3663 12.0305 38.6822 11.036 38.1849C10.7552 38.4657 10.7012 38.3886 10.4458 38.644C12.9496 41.1478 15.214 43.5198 18.3146 45.0702C18.6013 44.7835 18.1758 44.4306 18.7081 44.2177C19.518 43.8937 19.4653 44.9369 18.9704 45.2669C19.7321 46.0286 21.9209 46.1381 22.9048 46.1849C24.2416 46.2486 25.4037 46.1193 26.708 46.1193C27.4603 46.1193 28.9885 46.2772 29.8556 45.9882C30.3424 45.8259 30.7853 45.3951 31.2982 45.2669C32.1469 45.0547 33.5477 45.378 34.1178 44.8079C33.6813 44.3713 32.9806 44.9821 32.5441 44.5456C32.4785 44.6111 32.4785 44.6111 32.4129 44.6767C32.2401 44.5039 31.9287 44.6048 31.6916 44.5456C31.3183 44.4522 31.6497 44.25 31.3638 44.0866C30.9196 43.8327 27.8157 44.2177 27.2982 44.2177C25.9315 44.2177 24.3068 43.7384 23.0359 43.103C22.5078 42.8389 21.2591 42.4283 21.0687 41.8571C20.4105 41.8571 19.7644 41.5749 19.1015 41.5292C18.6213 41.4961 18.1403 41.4636 17.6589 41.4636C17.3622 41.4636 16.9053 41.749 16.6097 41.6603C16.4913 41.6248 16.4647 41.4371 16.3474 41.398C15.8057 41.2175 15.2259 41.7192 14.7737 41.2669C15.1789 40.4565 16.2414 40.6516 16.8064 40.0866C16.4227 39.7029 15.7646 39.5139 15.2983 39.2341C14.1845 38.5658 13.214 37.8712 12.2819 36.939Z" fill="#89be59" fill-rule="nonzero" opacity="1" stroke="none"/>
<path d="M33.79 14.4473C34.3427 15.2764 37.2311 15.2068 38.249 16.0211C38.6918 16.3754 39.0734 17.1639 38.6424 17.5949C38.9726 17.9251 38.7198 18.5247 39.1014 18.9063C39.5223 18.4855 39.1144 17.6475 39.5604 17.2014C40.3357 17.9767 41.5901 18.1819 42.5113 19.1031C42.7484 19.3402 42.6423 19.6929 42.7735 19.9555C42.3723 20.3568 41.7066 19.1853 41.1342 19.2998C40.9371 19.3392 40.949 19.8784 40.8063 20.0211C41.6256 20.8404 44.2425 23.9292 42.9047 25.267C42.4076 24.7698 42.3979 23.7766 41.8555 23.2342C41.5068 23.5829 42.1969 25.166 42.249 25.6604C42.4219 27.3032 42.1834 28.8636 42.1834 30.5128C42.1834 31.1011 42.7063 32.4178 42.4457 32.9391C42.8119 33.3053 42.7679 33.7859 43.167 34.185C43.9199 33.6203 43.1612 32.0901 43.2326 31.2342C43.4208 28.9752 43.2133 26.1772 43.9539 23.9555C45.0737 25.0753 45.2822 27.1705 45.6588 28.6768C45.7751 29.142 45.5447 29.743 45.9211 30.1194C48.367 27.6735 45.4232 25.7674 44.8719 23.5621C44.6548 22.6937 45.1345 22.5168 45.0686 21.726C44.9872 20.7489 43.9854 19.6907 43.5604 18.8408C43.626 18.7752 43.626 18.7752 43.6916 18.7096C44.1738 19.1918 44.4379 19.9722 45.003 20.349C45.2573 20.0947 44.6235 15.9038 44.2162 15.4965C43.8535 15.8592 43.6515 16.0964 43.3637 16.4801C42.5023 15.6187 41.4365 15.3222 40.544 14.5785C39.9261 15.1965 39.8281 13.9528 39.4949 14.1195C39.3697 14.1821 39.3672 14.4089 39.2326 14.4473C39.0244 14.5068 38.3964 14.2861 38.1834 14.2506C36.9524 14.0454 34.7784 13.4589 33.79 14.4473Z" fill="#89be59" fill-rule="nonzero" opacity="1" stroke="none"/>
<path d="M40.0195 22.3817C39.7835 22.6177 39.5865 22.9134 39.4949 23.2342C39.4348 23.4444 39.1248 23.4731 38.9703 23.6276C38.7824 23.8155 39.5446 24.8398 39.5604 24.9391C39.633 25.3923 39.5207 25.8589 39.5604 26.3161C39.5752 26.4862 39.8472 26.5107 39.9539 26.644C40.267 27.0353 40.5892 28.0706 40.6096 28.6112C40.6492 29.6599 40.6752 30.7093 40.6752 31.7587C40.6752 32.9234 39.9485 33.8787 39.6916 34.9063C39.5513 35.4676 39.7463 36.2067 39.626 36.8079C39.1743 39.0667 37.3641 41.337 35.2326 42.2505C34.6843 42.4855 33.2105 43.3103 32.6752 42.7751C32.9375 42.5128 32.9375 42.5128 33.1998 42.2505C32.8258 41.8765 31.6832 42.4751 31.167 42.5784C29.5224 42.9073 27.7879 43.0303 26.1179 43.103C24.854 43.1579 23.4678 42.5987 22.249 42.2505C21.9249 42.1579 21.241 41.8159 21.0031 42.0538C21.577 42.9145 24.4543 43.797 25.4621 44.021C26.7113 44.2986 27.9502 44.4217 29.2654 44.2833C30.1029 44.1951 30.8321 43.7592 31.6916 43.6931C32.2583 43.6495 32.8418 43.5698 33.3965 43.6931C33.4196 43.6982 33.9734 43.8971 33.9867 43.8898C35.3194 43.1629 36.4315 42.4923 37.8555 41.9226C39.2129 41.3797 40.3419 36.2779 42.0522 37.9882C41.8775 38.3378 41.4558 38.5847 41.1998 38.8407C40.8101 39.2304 40.8663 40.6468 41.5932 40.2833C43.0034 39.5782 43.1263 37.1132 43.2981 35.8243C43.3425 35.4914 43.6087 34.8234 43.3637 34.5784C42.943 34.9992 40.9823 37.5741 39.9539 36.5456C40.3692 36.1303 40.7934 35.7237 41.1998 35.2997C41.4613 35.0268 41.8899 34.5972 41.6588 34.2505C41.5692 34.3252 40.6969 35.1682 40.544 34.7095C40.4133 34.3172 40.9131 33.9097 41.0031 33.5948C41.2153 32.852 41.3585 31.9458 41.4621 31.1686C41.691 29.4519 41.584 27.8155 41.1342 26.3161C40.762 25.0754 41.0323 23.3946 40.0195 22.3817Z" fill="#60a041" fill-rule="nonzero" opacity="1" stroke="none"/>
<path d="M36.1506 24.6768C35.6947 25.1328 36.0255 26.6797 35.8883 27.3653C35.4578 29.5178 34.173 31.4689 32.1506 32.48C31.6185 32.7461 30.7176 33.3045 30.1179 33.0046C29.6169 33.5056 28.6876 33.3325 28.0851 33.3325C26.9983 33.3325 25.8255 32.7601 24.872 32.2833C24.7383 32.2165 23.9971 31.6327 23.8884 31.6932C23.7122 31.791 23.5824 31.9555 23.4294 32.0866C23.3638 32.021 23.3638 32.021 23.2982 31.9555C23.1999 32.0538 23.1999 32.0538 23.1015 32.1522C23.7929 33.535 26.132 34.4577 27.5605 34.7751C28.1409 34.9041 29.2182 34.7279 29.5933 35.103C29.4 35.3606 28.8424 35.8669 28.9375 36.1522C29.0983 36.6343 30.0309 35.9997 30.3802 36.3489C31.1651 35.9564 31.5391 34.781 32.2818 34.2505C33.141 33.6368 34.4505 33.8523 35.167 33.1358C34.33 32.2988 35.2666 31.5986 35.6916 32.8735C36.0388 32.6999 36.4374 32.3508 36.6752 32.0866C36.7642 31.9878 36.6096 31.8261 36.6096 31.6932C36.6096 31.4007 36.919 30.8726 37.0031 30.5784C37.4124 29.1457 37.9396 25.5713 36.1506 24.6768Z" fill="#a3d056" fill-rule="nonzero" opacity="1" stroke="none"/>
<path d="M18.5769 37.3981C18.5114 37.4636 18.5114 37.4636 18.4458 37.5292C18.851 38.3397 19.4655 39.2582 20.2163 39.7587C20.0627 39.9122 20.1409 39.8959 19.954 39.8899C19.32 39.8694 18.6866 39.8243 18.0523 39.8243C17.3474 39.8243 16.7351 40.0976 16.0851 40.2833C15.8129 40.3611 14.5345 40.9428 14.6425 41.2669C14.8749 41.9642 18.3868 41.5948 19.0359 41.5948C20.2156 41.5948 21.456 42.127 22.5769 42.4472C23.7039 42.7692 24.8636 42.9533 25.9867 43.2341C27.272 43.5554 30.2509 42.9877 31.6261 42.6439C32.9749 42.3067 34.1397 41.7769 35.2982 41.0046C35.6666 40.759 36.4436 40.4451 36.0195 40.021C35.0319 40.5148 34.1572 40.9889 33.1342 41.398C32.5122 41.6469 31.7546 41.6289 31.167 41.9226C31.1015 41.8571 31.1015 41.8571 31.0359 41.7915C31.2886 41.5388 32.299 40.4973 31.8883 40.0866C29.4003 41.7453 27.0144 41.6713 24.0851 40.939C23.3692 40.7601 22.3981 40.6082 21.79 40.1521C20.6526 39.2991 19.5986 38.4198 18.5769 37.3981Z" fill="#c6e773" fill-rule="nonzero" opacity="1" stroke="none"/>
<path d="M25.9867 11.6932C26.1813 11.8878 26.8121 13.102 25.8556 12.6769C25.621 12.5726 25.5663 12.2564 25.3966 12.0867C25.181 12.1945 25.3368 12.0993 25.1343 12.2834C24.9766 12.4267 22.7052 14.817 23.4294 15.2998C23.5415 15.3746 25.7457 14.1372 26.1179 13.9883C26.4589 13.8519 27.552 13.2205 27.8884 13.3326C28.1802 13.4299 28.2577 13.7513 28.6097 13.5949C29.0721 13.3894 28.6724 13.1373 29.0687 12.9391C30.1006 12.4232 32.276 12.4146 33.2654 12.4146C33.6594 12.4146 34.0527 12.451 34.4457 12.4801C35.0279 12.5233 37.3301 13.3335 37.7244 12.9391C35.9445 9.37929 28.8311 9.79699 25.9867 11.6932Z" fill="#89be59" fill-rule="nonzero" opacity="1" stroke="none"/>
<path d="M21.6589 38.9718C21.3957 39.235 21.0192 39.2181 20.7409 39.4964C22.4002 41.1558 27.5037 42.0188 29.4621 41.5292C30.285 41.3235 30.9611 40.8476 31.6261 40.3489C31.7244 40.4144 31.7244 40.4144 31.8228 40.48C31.7135 40.6986 31.6042 40.9172 31.4949 41.1358C31.8369 41.4777 34.5487 39.1588 34.3801 38.3161C34.368 38.2555 34.3076 38.2045 34.249 38.1849C33.8143 38.0401 33.5803 37.8441 33.2654 37.5292C33.8031 36.7227 34.0955 37.0558 34.8392 36.8079C34.8392 34.5372 33.4687 36.6701 32.6097 37.5292C32.216 37.9229 31.404 38.5027 30.8392 38.644C30.273 38.7855 29.6024 39.2107 29.0687 39.2997C26.9819 39.6475 23.7285 40.0066 21.6589 38.9718Z" fill="#4e6e31" fill-rule="nonzero" opacity="1" stroke="none"/>
<path d="M15.6261 43.7587C15.5387 43.715 15.4513 43.6713 15.3638 43.6275C14.985 44.0063 15.7855 44.6465 16.0196 44.939C15.7309 45.2999 15.8594 45.3248 15.6917 45.6603C15.9228 45.8914 16.4415 46.6154 16.8064 46.2505C16.719 46.1193 16.6316 45.9882 16.5441 45.857C16.6097 45.7915 16.6097 45.7915 16.6753 45.7259C17.0687 46.0866 17.0687 46.0866 17.4622 46.4472C16.6334 47.2759 17.9158 47.8952 18.6425 47.1685C19.0397 47.5657 19.7695 47.5538 20.2818 47.7587C22.3501 48.586 24.9672 48.8369 27.2982 48.5456C27.6341 48.5036 31.1303 47.8458 30.5113 47.1029C29.9564 46.4371 28.45 46.911 27.6916 47.0374C25.4542 47.4103 24.7139 46.9959 22.9048 46.5784C22.6206 46.5128 22.2585 46.5878 22.0523 46.3816C22.1835 46.2505 22.1835 46.2505 22.3146 46.1193C21.7903 45.5951 19.2943 45.7876 18.5114 45.0046C18.3097 45.1054 18.4209 45.0431 18.1835 45.2013C18.2163 45.2669 18.2163 45.2669 18.2491 45.3325C17.5986 45.983 17.1023 45.027 16.4786 44.6111C16.6425 44.4144 16.6425 44.4144 16.8064 44.2177C16.495 43.9062 15.995 43.3898 15.6261 43.7587Z" fill="#c6e773" fill-rule="nonzero" opacity="1" stroke="none"/>
<path d="M15.8884 8.87359C17.1585 10.1437 15.8911 9.71808 15.6917 10.3162C15.5764 10.6621 15.8291 10.8282 15.6917 11.1031C15.8786 11.29 15.7885 11.1828 15.954 11.431C17.3237 10.0613 17.3712 8.70563 19.6261 8.48015C20.0606 8.43669 20.4123 8.34832 20.7409 8.67687C20.2009 9.21678 19.3388 9.22649 18.8392 9.72604C19.0888 10.2252 18.2126 10.9355 18.6425 11.3654C19.3035 10.7044 20.1417 11.251 21.0031 10.9064C22.1735 10.4382 21.967 9.09404 22.6425 8.28343C22.7699 8.13054 23.156 8.00328 23.2326 7.82441C23.3904 7.45643 22.8871 7.34777 22.7081 7.16868C23.3001 6.47802 24.3432 6.19031 24.872 5.52934C25.0085 5.35866 24.6238 5.16812 24.4785 5.00475C24.3738 4.88689 24.2153 4.30514 24.0851 4.28344C23.5119 4.18792 22.2216 4.60065 21.9212 5.20147C21.4811 6.08157 21.8182 6.44167 20.9376 7.23425C20.7166 7.43316 19.6065 7.59754 19.4294 7.56212C19.2748 7.53121 19.192 7.27753 19.0359 7.29983C17.376 7.53696 17.1541 7.68703 15.8884 8.87359Z" fill="#89be59" fill-rule="nonzero" opacity="1" stroke="none"/>
<path d="M18.2491 15.6277C17.6155 16.2612 15.5061 17.7638 15.2327 18.4473C14.7175 19.7352 15.1828 21.7103 14.1179 22.7752C13.7901 23.103 13.2622 22.9074 12.872 23.0375C12.872 25.4606 12.3982 27.7575 12.9376 30.185C13.0319 30.6095 13.0803 31.2457 13.3966 31.562C13.8686 31.0901 13.5169 29.9825 13.5933 29.3325C13.662 28.7491 14.4458 27.457 14.4458 27.1686C14.4458 26.1192 14.3802 25.0705 14.3802 24.0211C14.3802 23.6335 14.4862 23.0627 14.7737 22.7752C15.3171 23.1375 15.1274 24.3644 15.7573 24.7424C16.1423 24.9734 16.0005 22.2174 16.0196 21.9883C16.1357 20.5945 16.5749 18.4166 17.5933 17.3981C17.3297 16.8708 18.7438 16.1224 18.2491 15.6277Z" fill="#89be59" fill-rule="nonzero" opacity="1" stroke="none"/>
<path d="M37.7244 21.9227C37.6588 21.9883 37.6588 21.9883 37.5932 22.0539C38.2173 23.3021 38.8086 24.3507 38.5768 25.8571C38.389 27.0784 37.1185 29.8414 38.0523 30.7751C38.6819 30.1455 38.7302 27.6054 39.4949 26.8407C39.5492 26.895 39.7676 30.0434 39.2982 30.5128C39.5828 31.0821 38.1934 34.0994 37.8555 34.7751C37.687 35.1123 37.079 35.8347 37.3965 36.1522C37.9283 35.8863 38.2896 36.3594 38.5768 36.7423C40.6996 34.6195 40.8063 31.5466 40.8063 28.6768C40.8063 28.0743 40.3569 26.7144 39.8227 26.4473C39.7244 26.5456 39.7244 26.5456 39.626 26.644C39.1957 26.2137 39.539 25.1381 39.4293 24.4801C39.27 23.5245 38.3306 22.5963 37.7244 21.9227Z" fill="#a3d056" fill-rule="nonzero" opacity="1" stroke="none"/>
<path d="M26.9703 15.89C26.4794 16.3809 25.7427 16.6835 25.1998 17.1359C24.1547 18.0068 20.6988 21.7832 20.9376 23.6932C20.9689 23.9441 21.6562 24.255 21.8556 24.4145C22.1361 24.134 22.1549 23.4786 22.3802 23.103C23.0388 22.0054 23.7388 20.6454 24.872 19.8899C24.7408 19.7151 24.6097 19.5402 24.4785 19.3653C25.8908 17.9531 27.2379 16.9592 29.0687 16.349C29.6523 16.1544 30.4325 16.1344 30.9703 15.89C31.1571 15.8051 31.2578 15.5304 31.4949 15.4965C31.9924 15.4254 31.757 15.6464 32.0851 15.6932C34.5902 16.0511 36.6631 16.1268 38.708 17.6604C39.2285 17.14 38.2679 16.755 37.8555 16.4801C36.8113 15.784 35.4565 15.2989 34.1834 15.1031C33.2909 14.9658 32.4974 14.9064 31.5605 14.9064C30.5758 14.9064 29.4561 15.2629 28.5441 15.6277C28.2769 15.7345 27.6463 16.2087 27.3638 16.1522C27.291 16.1377 27.0294 15.949 26.9703 15.89Z" fill="#9fba94" fill-rule="nonzero" opacity="1" stroke="none"/>
<path d="M28.5441 13.5293C29.0073 13.9925 30.1724 13.4931 30.7736 13.4637C31.4726 13.4296 32.1722 13.3982 32.8719 13.3982C32.9652 13.3982 33.0865 13.5471 33.1342 13.5949C32.7153 14.0138 31.6982 14.0801 31.1015 14.2506C29.6767 14.6577 28.2043 15.1329 26.9703 15.9555C27.0572 16.0858 27.308 16.3301 27.4949 16.2834C28.8797 15.9372 29.9817 15.1948 31.4949 15.1031C34.2305 14.9373 36.6075 15.5866 38.708 17.267C39.4535 16.77 38.6774 16.1756 38.249 15.89C37.0615 15.0983 35.0374 15.4324 34.0523 14.4473C34.761 13.7386 37.811 14.623 38.249 14.185C37.9695 13.9056 37.1235 13.3964 36.7408 13.3326C36.6339 13.3148 35.2906 13.5218 34.9703 13.2014C35.258 12.9137 35.6041 13.0267 35.9539 12.6769C35.5315 12.2545 33.8021 12.39 33.331 12.349C32.7895 12.3019 29.6262 12.3226 28.9375 12.8736C28.6476 13.1055 28.8049 13.2685 28.5441 13.5293Z" fill="#568645" fill-rule="nonzero" opacity="1" stroke="none"/>
<path d="M10.7081 13.7916C10.9358 13.9434 11.14 14.0171 11.3638 14.185C11.787 13.7619 11.5865 13.9315 12.2163 13.7916C12.336 13.765 12.8174 12.8105 12.9376 12.6769C13.3601 12.2074 15.055 10.6862 15.2327 9.85719C15.2741 9.66365 15.1127 9.45735 15.1671 9.26703C15.1771 9.23195 16.4111 8.48208 16.5441 8.349C16.2513 7.90972 18.8222 6.25065 17.5277 6.25065C15.463 6.25065 12.5253 9.53884 11.6261 11.0375C11.2724 11.6271 11.1346 12.3977 10.7737 12.9391C10.601 13.1982 10.1279 13.0305 10.0524 13.3326C9.93339 13.8085 10.3422 14.1575 10.7081 13.7916Z" fill="#c6e773" fill-rule="nonzero" opacity="1" stroke="none"/>
<path d="M39.8227 21.5293C39.7244 21.6276 39.7244 21.6276 39.626 21.726C40.9374 24.3489 41.6407 27.6549 41.4621 30.5128C41.4022 31.4713 40.2764 34.5022 40.544 35.0374C40.787 34.916 41.6103 34.3902 41.7244 34.4473C43.2193 32.9523 42.2645 30.7235 42.3145 28.8735C42.3509 27.5278 42.6963 23.0734 41.0686 21.9883C40.7512 21.7767 40.1867 21.7112 39.8227 21.5293Z" fill="#4e6e31" fill-rule="nonzero" opacity="1" stroke="none"/>
<path d="M39.7572 34.9718C39.2355 35.4935 38.6263 36.438 38.4457 37.0702C38.3731 37.3242 38.0811 37.1298 37.9211 37.2669C37.6104 37.5332 37.3282 37.8009 37.0031 38.0538C36.237 38.6496 35.7425 39.6131 35.1014 40.4144C35.3794 40.6924 35.5315 40.3634 35.8228 40.2177C35.8883 40.2833 35.8883 40.2833 35.9539 40.3489C35.0752 41.2275 33.6097 41.4471 32.9375 42.1194C33.0031 42.1849 33.0031 42.1849 33.0687 42.2505C31.6079 43.7113 34.5581 42.9406 35.1014 42.5784C36.6191 41.5666 38.0606 40.4006 39.0359 38.7751C39.2946 38.3438 39.3115 37.7254 39.4949 37.2669C39.6918 36.7746 40.164 35.3787 39.7572 34.9718Z" fill="#4e6e31" fill-rule="nonzero" opacity="1" stroke="none"/>
<path d="M22.7736 49.2013C23.1785 49.6061 23.8138 49.6436 24.3474 49.857C24.7753 50.0282 24.863 50.2564 25.2654 50.5783C25.9036 51.0888 27.2408 51.1726 28.0195 51.5619C28.9216 50.6598 25.2114 50.5552 25.6589 49.6603C25.7859 49.4063 26.8614 49.6298 27.1015 49.7259C28.0072 50.0882 30.7575 50.9383 31.2326 49.9882C30.9 49.6555 30.8443 49.4031 30.5113 49.0701C31.0146 48.5669 32.1296 48.8045 32.8064 48.6111C33.8098 48.3244 34.5778 47.561 35.2982 46.8406C35.3539 46.7849 35.4293 46.7227 35.4293 46.6439C35.4293 46.1954 34.1416 46.61 33.9211 46.6439C33.3661 46.7293 32.399 46.6157 31.9539 46.9718C31.3524 47.453 31.0584 48.353 30.249 48.6767C28.5361 49.3619 26.5602 49.1401 24.7408 49.0701C24.4286 49.0581 23.1796 48.7953 22.7736 49.2013Z" fill="#89be59" fill-rule="nonzero" opacity="1" stroke="none"/>
<path d="M14.1835 34.1194C14.2819 34.0538 14.2819 34.0538 14.3802 33.9882C11.9212 29.0701 12.0121 22.4257 15.1015 17.7916C14.9596 17.6497 14.682 17.1227 14.4458 17.2014C13.6048 17.4818 12.3488 21.5893 12.1507 22.3817C11.2508 25.9815 11.5935 31.0977 14.1835 34.1194Z" fill="#f7fbf0" fill-rule="nonzero" opacity="1" stroke="none"/>
<path d="M56.8063 27.8899C56.8719 27.8243 56.8719 27.8243 56.9374 27.7588C55.9288 25.7415 56.9378 24.6059 57.0686 22.7752C57.1316 21.8925 57.2002 21.2683 56.9374 20.4801C56.8314 20.162 56.5786 19.9083 56.544 19.5621C56.4447 18.569 56.8928 17.7771 56.085 17.0703C54.8733 16.01 54.5768 18.6519 54.5768 19.1031C54.5768 19.963 55.4306 20.6305 55.4948 21.5293C55.7086 24.5223 54.8036 25.6369 56.8063 27.8899Z" fill="#89be59" fill-rule="nonzero" opacity="1" stroke="none"/>
<path d="M11.1015 32.48C10.7428 32.8388 10.4869 34.8162 10.7737 35.103C11.1422 34.9187 12.1706 36.8664 12.413 37.1358C13.0853 37.8827 15.5455 40.0027 16.7409 40.1521C17.6538 40.2663 19.0779 39.9554 19.8884 39.9554C20.4186 39.9554 20.1526 40.1502 20.413 39.8899C19.8045 39.1597 18.9695 39.6273 18.0523 39.3653C16.5847 38.9459 15.3533 37.9523 14.4458 36.7423C13.9701 36.9802 13.4102 35.9586 13.1343 35.6276C12.3052 34.6327 11.7849 33.5051 11.1015 32.48Z" fill="#60a041" fill-rule="nonzero" opacity="1" stroke="none"/>
<path d="M13.5933 2.11952C12.5141 2.33537 11.7568 2.77577 10.9704 3.56214C10.6019 3.93067 10.54 4.51712 10.1835 4.87361C9.41849 5.63863 8.52332 6.21984 7.95402 7.16868C7.66371 7.65252 6.91911 9.34687 7.29828 9.72604C7.55759 9.46674 7.5568 8.94545 7.7573 8.6113C8.37729 7.57798 9.19959 6.61806 10.2491 5.98836C10.6339 5.75746 11.048 5.72003 11.4294 5.52934C11.9486 5.26975 12.1931 4.56794 12.8065 4.41459C13.8215 4.16083 14.9621 4.42283 15.7573 3.62771C16.3927 2.99225 15.3777 2.34273 13.5933 2.11952Z" fill="#89be59" fill-rule="nonzero" opacity="1" stroke="none"/>
<path d="M38.1178 33.9882C37.0531 35.053 36.0618 36.1059 34.9047 37.0702C35.4176 38.0959 34.4875 37.839 34.249 38.3161C33.778 39.2581 33.2698 39.8199 32.4129 40.6767C32.0935 40.9962 31.628 40.9371 31.3638 41.2013C31.1054 41.4597 31.0025 41.7263 30.708 41.9226C31.0345 42.4124 34.7119 41.1319 35.2982 40.5456C35.2654 40.48 35.2654 40.48 35.2326 40.4144C35.5415 40.1055 36.8001 38.8344 36.4129 38.4472C36.1752 38.5661 35.982 38.6627 35.7572 38.7751C35.6916 38.7095 35.6916 38.7095 35.626 38.644C35.9313 38.0335 37.3661 36.6626 37.4621 36.0866C37.5051 35.8288 37.461 35.6291 37.6588 35.3653C37.851 35.109 38.3614 34.2319 38.1178 33.9882Z" fill="#60a041" fill-rule="nonzero" opacity="1" stroke="none"/>
<path d="M14.7737 16.8736C15.1318 16.5154 15.4404 16.0893 15.7573 15.6932C15.593 15.529 15.5281 15.5952 15.3638 15.4309C16.6311 14.1637 16.5857 12.5137 17.5933 11.1031C18.5578 9.75277 19.8022 9.74665 20.872 8.67687C19.0535 6.8584 16.5625 10.1484 15.8884 11.4965C15.6799 11.9136 14.8775 12.453 14.8392 12.8736C14.7858 13.4617 14.8074 14.0545 14.7737 14.6441C14.7519 15.0245 14.4714 16.5713 14.7737 16.8736Z" fill="#c6e773" fill-rule="nonzero" opacity="1" stroke="none"/>
<path d="M31.6261 56.8078C32.2233 57.4051 34.9167 55.8719 35.6916 55.5619C37.6528 54.7774 39.6429 55.3652 41.6588 55.3652C42.5965 55.3652 43.4135 54.6789 44.085 54.1193C43.7789 53.8132 41.6441 54.2078 41.0686 54.1193C40.4337 54.0216 39.8094 53.7687 39.167 53.7259C36.1362 53.5238 35.6892 54.606 33.331 56.0209C32.8403 56.3153 32.0024 56.4315 31.6261 56.8078Z" fill="#89be59" fill-rule="nonzero" opacity="1" stroke="none"/>
<path d="M17.3966 30.8407C17.6825 31.4125 18.4759 32.2153 18.9048 32.6112C18.9369 32.6408 18.9968 32.6307 19.0359 32.6112C19.5123 32.373 19.9061 32.1607 20.413 32.6112C21.2088 33.3186 20.9717 33.5006 21.2654 34.3817C21.4239 34.8569 23.6881 35.3963 24.1507 35.6276C24.2162 35.562 24.2162 35.562 24.2818 35.4964C23.9481 35.1627 23.5919 34.8863 23.2326 34.5784C23.8336 33.677 25.224 34.8821 25.9212 34.185C25.4464 33.7102 23.7115 32.4572 23.2326 32.2178C22.9582 32.0806 22.6214 32.2833 22.3146 32.2833C21.7356 32.2833 21.3019 31.6276 20.8064 31.6276C20.3007 31.6276 20.0308 31.7188 19.5605 31.562C19.0394 31.3883 17.8154 30.4219 17.3966 30.8407Z" fill="#4e6e31" fill-rule="nonzero" opacity="1" stroke="none"/>
<path d="M18.7081 18.0539C17.9432 18.8187 17.7295 20.7221 17.4622 21.7916C17.3879 22.0888 17.5184 22.3255 17.2655 22.5785C17.0342 22.3472 17.1517 22.4232 16.9376 22.3162C16.5683 22.6854 16.887 22.5864 16.6753 23.1686C15.993 25.0449 16.8345 27.2435 17.9212 28.8735C18.22 29.3218 18.7023 30.3836 19.2982 30.185C18.5866 28.7616 17.7211 27.6017 17.6589 25.9227C17.637 25.3325 17.3069 24.5698 17.7245 24.1522C17.9125 24.2776 17.9894 24.4486 18.1835 24.5457C18.7408 23.9884 18.2939 22.9728 18.3146 22.185C18.3588 20.5078 20.0047 19.3505 18.7081 18.0539Z" fill="#4e6e31" fill-rule="nonzero" opacity="1" stroke="none"/>
<path d="M23.2982 15.0375C23.0466 15.2891 22.6515 15.4318 22.5113 15.7588C22.473 15.8483 22.064 17.8551 22.5113 17.4637C23.8873 16.2597 25.0295 15.3522 26.5769 14.5785C26.8644 14.4347 26.9919 13.8912 27.2982 13.8572C28.0381 13.775 28.521 14.5361 27.9539 15.1031C28.1619 15.3111 28.146 15.4188 28.413 15.3654C29.2336 15.2012 32.8933 14.0982 33.331 13.6605C33.2432 13.5434 33.071 13.273 32.8719 13.267C32.1947 13.2465 31.5166 13.2501 30.8392 13.267C30.1901 13.2832 29.3756 13.6742 28.7408 13.5949C28.4273 13.5557 28.2368 13.2773 27.9539 13.1359C27.6922 13.005 26.331 13.7178 26.0523 13.8572C25.5335 14.1166 23.7157 15.455 23.2982 15.0375Z" fill="#60a041" fill-rule="nonzero" opacity="1" stroke="none"/>
<path d="M31.6261 25.726C31.3805 25.9716 31.5173 25.8934 31.2326 25.9883C31.2326 26.9765 29.1175 30.2094 28.1507 29.726C27.7954 30.0812 27.2115 29.9878 26.7736 30.2506C30.0087 33.4856 34.0137 27.7726 31.6261 25.726Z" fill="#a3d056" fill-rule="nonzero" opacity="1" stroke="none"/>
<path d="M43.8227 23.5621C43.472 23.9127 43.7572 24.5219 43.7572 25.0047C43.7572 26.6679 43.2822 28.5137 43.167 30.185C43.1245 30.8016 42.966 30.5742 43.2326 30.8407C43.3887 30.6845 43.3678 30.5969 43.4293 30.3817C43.5552 29.941 43.6334 29.4489 43.8227 29.0702C44.1467 28.4222 44.8719 29.4293 44.8719 29.7915C44.8719 30.1998 44.3415 30.8349 44.7408 31.2342C45.1453 30.8296 45.6984 30.548 45.9866 30.0538C46.1529 29.7689 45.7754 28.9032 45.7244 28.5456C45.5786 27.5251 44.757 24.0292 43.8227 23.5621Z" fill="#60a041" fill-rule="nonzero" opacity="1" stroke="none"/>
<path d="M39.6916 10.9719C39.5932 11.0703 39.5932 11.0703 39.4949 11.1687C39.9375 12.0539 41.0201 12.4211 41.5277 13.267C41.927 13.9326 41.6181 14.9968 42.1834 15.5621C42.5862 15.2936 42.4875 14.5185 42.6424 14.0539C42.9726 14.3841 43.6537 15.5436 44.2162 15.1686C44.0244 14.881 44.1323 15.035 43.8883 14.7096C44.4309 14.167 45.281 15.0407 45.5932 15.4309C46.4008 14.8926 44.3779 13.3046 44.085 13.0703C43.5528 12.6445 42.9946 12.2422 42.5113 11.7588C42.359 11.6066 42.1156 11.0414 41.9211 10.9719C41.2133 10.7192 40.4109 11.3316 39.6916 10.9719Z" fill="#c6e773" fill-rule="nonzero" opacity="1" stroke="none"/>
<path d="M1.98683 21.5293C1.65848 21.8576 1.61928 23.2023 1.39667 23.7588C0.801902 25.2457-0.148471 26.7335 0.0196247 28.4145C0.138289 29.6011 1.1266 30.3687 1.72454 31.3653C2.22189 32.1942 2.09776 33.1609 2.51142 33.9882C2.75138 33.7483 2.87246 33.1481 2.90486 32.8079C3.11811 30.5688 1.38705 29.7513 1.19995 27.6932C1.09606 26.5504 2.5823 22.1247 1.98683 21.5293Z" fill="#89be59" fill-rule="nonzero" opacity="1" stroke="none"/>
<path d="M14.5114 26.9719C12.6694 28.8138 13.3412 31.7512 14.1835 33.8571C14.3712 34.3264 16.1668 36.3328 16.7409 35.7587C15.7687 33.8143 15.1845 32.0908 14.6425 29.9227C14.6206 29.8352 14.8723 27.1361 14.5114 26.9719Z" fill="#4e6e31" fill-rule="nonzero" opacity="1" stroke="none"/>
<path d="M30.9047 15.8244C31.4695 16.9538 31.7681 18.719 33.4621 17.267C33.5933 17.3981 33.5933 17.3981 33.7244 17.5293C34.5476 16.706 35.6009 17.8209 36.3473 18.1195C36.6929 18.2577 36.9366 17.6613 37.1998 17.3981C37.1561 17.3107 37.1124 17.2233 37.0687 17.1359C37.2616 16.9429 37.4003 17.0665 37.5932 16.8736C36.3404 15.6208 33.6178 15.8686 32.0851 15.5621C31.7492 15.4949 31.9984 15.2934 31.4949 15.3654C31.2719 15.3972 31.0175 15.7116 30.9047 15.8244Z" fill="#60a041" fill-rule="nonzero" opacity="1" stroke="none"/>
<path d="M37.1342 31.2342C36.7779 31.5904 36.1841 32.9558 35.626 32.6768C34.8072 33.4956 33.4545 33.2563 32.4785 33.9882C31.607 34.6419 31.1563 35.7221 30.3146 36.2833C30.6576 36.7978 31.2481 37.0201 31.6261 37.3981C32.165 37.0388 32.5155 36.0496 33.0031 35.562C34.0678 34.4973 35.6979 34.5034 36.6096 33.1358C36.8556 32.7669 37.4579 31.5578 37.1342 31.2342Z" fill="#c4de52" fill-rule="nonzero" opacity="1" stroke="none"/>
<path d="M40.8063 45.7259C40.8719 45.7915 40.8719 45.7915 40.9375 45.857C43.3478 44.6519 43.8495 42.7872 44.9375 40.6112C44.6228 40.2965 43.6876 40.631 43.2981 40.7423C41.0348 41.389 41.6143 44.1099 40.8063 45.7259Z" fill="#89be59" fill-rule="nonzero" opacity="1" stroke="none"/>
<path d="M8.28189 33.1358C8.07434 33.3433 7.58873 33.4074 7.495 33.5948C7.09375 34.3973 7.36386 35.3861 7.36386 36.2833C7.36386 36.7302 10.0232 38.319 10.5114 38.7095C10.7465 38.4744 10.7835 38.5686 11.1015 38.2505C10.8315 37.9805 10.747 37.5559 11.036 37.2669C10.7528 36.7006 10.594 36.6938 9.9868 36.0866C9.28742 35.3872 8.88323 33.5367 8.28189 33.1358Z" fill="#73b544" fill-rule="nonzero" opacity="1" stroke="none"/>
<path d="M40.3473 45.9882C39.3421 46.3233 38.5015 46.5226 37.7244 47.2997C37.0168 48.0073 36.9337 48.777 35.9539 49.2669C35.6224 48.9353 36.1266 48.5215 35.8228 48.2177C34.8113 49.2292 33.673 49.8616 32.4785 50.5783C32.1861 50.7538 32.4183 51.1631 32.1506 51.4308C32.5424 51.8226 33.852 51.2645 34.3801 51.1685C36.0375 50.8672 36.5972 49.3449 37.7244 48.2177C38.2677 47.6744 38.9123 47.5813 39.5604 47.3652C39.9596 47.2322 40.5961 46.3614 40.3473 45.9882Z" fill="#89be59" fill-rule="nonzero" opacity="1" stroke="none"/>
<path d="M56.3473 35.6276C56.0916 35.8832 56.2205 37.8089 56.0194 38.5128C55.4383 40.5466 53.7974 41.9658 53.1342 43.9554C52.9653 44.4621 52.5774 45.7593 52.9374 46.1193C53.3605 45.6963 53.6855 44.7022 54.0522 44.1521C55.4968 41.9852 57.4257 39.5951 56.8063 36.8079C56.7241 36.4382 56.6169 35.8972 56.3473 35.6276Z" fill="#89be59" fill-rule="nonzero" opacity="1" stroke="none"/>
<path d="M48.7407 41.7259C46.8804 42.7268 45.405 43.8928 44.8063 45.9882C44.6718 46.4591 44.5858 47.0254 44.2817 47.4308C44.095 47.6797 43.5083 48.0883 43.5604 48.3488C43.5869 48.4813 43.7301 48.6444 43.8883 48.5456C44.9976 47.8522 45.3473 46.7969 46.0522 45.857C46.695 45 47.5284 44.3809 48.2817 43.6275C48.6747 43.2346 49.3471 41.3997 48.7407 41.7259Z" fill="#c6e773" fill-rule="nonzero" opacity="1" stroke="none"/>
<path d="M11.8229 14.8408C11.2271 15.4365 10.3625 19.6954 10.4458 20.6112C10.4863 21.0567 11.1973 20.3755 11.2327 20.349C11.6397 20.6203 11.1765 20.9485 11.495 21.267C11.1679 21.5941 11.4082 23.6064 11.8884 24.0866C12.0234 23.9517 12.4668 21.1896 12.413 21.1358C12.0006 21.4658 12.012 21.3519 11.5606 21.2014C12.3347 20.4272 11.7358 19.0174 11.7573 17.9227C11.7651 17.5216 11.9871 17.2008 12.1507 16.8736C11.8013 16.5242 11.5921 15.3994 12.0196 14.9719C11.9212 14.9064 11.9212 14.9064 11.8229 14.8408Z" fill="#89be59" fill-rule="nonzero" opacity="1" stroke="none"/>
<path d="M43.4949 1.79165C43.7491 2.04589 44.2557 2.00154 44.6096 2.11952C45.311 2.35332 45.9163 2.70492 46.4457 3.23427C47.9435 4.73213 48.0788 6.79648 49.8555 8.21785C49.9538 8.15228 49.9538 8.15228 50.0522 8.08671C48.0909 6.12539 49.1825 2.77094 45.5276 1.85722C44.9628 1.71601 43.8997 1.38677 43.4949 1.79165Z" fill="#89be59" fill-rule="nonzero" opacity="1" stroke="none"/>
<path d="M52.4129 9.72604C50.9657 10.5602 52.4097 12.5577 52.6096 13.8572C52.7145 14.5393 52.4784 15.0851 52.4784 15.7588C52.4784 16.1458 52.8526 16.913 53.2653 17.0047C54.4916 17.2772 53.8198 16.0468 53.7899 15.6277C53.7342 14.8479 53.8812 13.9216 53.5932 13.2014C53.369 12.6411 52.8229 12.2188 52.6751 11.6277C52.5394 11.0848 52.8017 9.50192 52.4129 9.72604Z" fill="#89be59" fill-rule="nonzero" opacity="1" stroke="none"/>
<path d="M43.8227 5.66049C43.6479 5.83535 43.4526 5.99197 43.2981 6.18508C43.2636 6.22826 43.6077 7.05897 43.626 7.16868C43.784 8.11654 43.6158 9.58471 44.3473 10.3162C44.746 9.91747 44.3462 9.39924 44.7408 9.00474C45.6095 9.87351 46.1866 10.9185 47.167 11.7588C47.8074 11.1184 46.5939 10.6668 46.1834 10.1195C45.5176 9.23178 45.5621 8.10038 45.003 7.16868C44.6663 6.60749 44.2137 6.18184 43.8227 5.66049Z" fill="#c6e773" fill-rule="nonzero" opacity="1" stroke="none"/>
<path d="M40.2162 19.2342C40.0522 19.3981 40.0522 19.3981 39.8883 19.5621C40.1373 20.0601 41.2612 21.5376 41.0031 22.0539C41.403 22.4538 41.4618 23.3215 41.9867 23.4965C41.9867 23.9747 42.5844 25.209 42.9047 25.5293C43.21 25.3257 43.1875 24.8409 43.2326 24.4801C43.464 22.6284 42.0538 21.3234 40.9375 20.0211C40.4435 19.4447 40.6865 19.7046 40.2162 19.2342Z" fill="#c6e773" fill-rule="nonzero" opacity="1" stroke="none"/>
<path d="M21.3966 14.8408C21.6786 14.6998 22.0188 14.6608 22.3146 14.5129C22.3802 14.5785 22.3802 14.5785 22.4458 14.6441C21.6832 15.4066 20.2682 15.7205 19.7572 16.7424C20.0851 17.0703 20.0851 17.0703 20.413 17.3981C20.7022 17.1089 22.0397 15.0904 22.7081 15.7588C23.5089 14.958 23.7914 13.9865 24.4785 13.0703C23.8412 12.2205 21.0103 14.2614 21.3966 14.8408Z" fill="#4e6e31" fill-rule="nonzero" opacity="1" stroke="none"/>
<path d="M11.6917 31.3653C11.4336 31.6234 11.036 32.1574 11.036 32.5456C11.036 33.3513 13.9748 36.7363 14.3802 36.939C14.4458 36.8735 14.4458 36.8735 14.5114 36.8079C14.4066 36.5983 14.3666 36.5866 14.4458 36.3489C14.687 36.3489 14.7132 36.4749 14.9048 36.2833C13.4438 34.8223 12.9334 32.9174 11.6917 31.3653Z" fill="#4e6e31" fill-rule="nonzero" opacity="1" stroke="none"/>
<path d="M7.95402 38.1194C7.28044 38.7929 9.80986 42.1588 10.3147 42.7095C10.6386 43.0629 10.9593 43.4197 11.2983 43.7587C11.6202 44.0806 12.0129 44.6834 12.413 44.2833C10.854 42.7242 9.92116 39.1029 7.95402 38.1194Z" fill="#89be59" fill-rule="nonzero" opacity="1" stroke="none"/>
<path d="M46.3145 38.1194C45.3649 38.4359 45.2226 39.1914 45.9211 39.8899C45.0568 41.6184 47.9539 42.7318 47.9539 40.2177C47.9539 39.8524 47.4081 39.6649 47.2325 39.4308C46.9056 38.9949 47.7082 38.7178 46.3145 38.1194Z" fill="#f7fbf0" fill-rule="nonzero" opacity="1" stroke="none"/>
<path d="M31.9539 45.0702C32.1738 45.5099 32.1434 46.9453 32.2162 46.9718C33.098 47.2924 35.4564 46.7866 35.8883 45.9226C35.404 45.4383 32.3494 44.6747 31.9539 45.0702Z" fill="#60a041" fill-rule="nonzero" opacity="1" stroke="none"/>
<path d="M19.5605 32.1522C17.8991 32.4622 19.212 35.1686 20.6753 35.1686C20.9623 35.1686 21.1932 34.9392 21.331 34.7095C22.0364 33.534 20.4157 31.9926 19.5605 32.1522Z" fill="#a3d056" fill-rule="nonzero" opacity="1" stroke="none"/>
<path d="M50.1178 34.8407C49.7503 35.0244 49.7423 35.3973 49.462 35.6932C48.3631 36.8531 47.696 37.3922 46.9047 38.4472C47.1573 38.8262 46.9684 39.8243 47.5604 39.8243C47.7149 39.8243 48.3134 38.7833 48.4129 38.644C48.8783 37.9924 51.039 35.7619 50.1178 34.8407Z" fill="#c6e773" fill-rule="nonzero" opacity="1" stroke="none"/>
<path d="M38.0523 8.08671C37.9539 8.18507 37.9539 8.18507 37.8555 8.28343C38.6718 9.91588 39.3882 10.4035 41.3965 10.3162C41.4583 10.3135 41.5 10.2404 41.5277 10.1851C41.6307 9.97903 41.2936 9.6466 41.1998 9.52932C40.2993 8.40378 39.7199 8.15228 38.0523 8.08671Z" fill="#89be59" fill-rule="nonzero" opacity="1" stroke="none"/>
<path d="M14.7737 12.6769C13.921 13.5295 13.0192 17.8076 13.6589 18.4473C14.8892 17.6271 14.7683 15.9509 14.8392 14.7096C14.8638 14.2806 15.151 13.0542 14.7737 12.6769Z" fill="#60a041" fill-rule="nonzero" opacity="1" stroke="none"/>
<path d="M34.9047 28.7424C34.0048 29.1923 33.3063 30.6031 32.6097 31.2997C31.8631 32.0463 30.9766 32.4977 30.1179 33.0702C30.5749 33.5272 31.2428 33.0323 31.6916 32.8079C32.7848 32.2613 36.2138 30.0514 34.9047 28.7424Z" fill="#89be59" fill-rule="nonzero" opacity="1" stroke="none"/>
<path d="M38.1834 14.3818C38.5513 14.3818 38.964 14.4114 39.2982 14.5785C39.485 14.3916 39.395 14.4988 39.5604 14.2506C39.8604 14.5506 40.1163 15.1374 40.6096 14.6441C39.9513 13.3274 38.6701 13.0047 37.3309 13.0047C36.956 13.0047 36.279 12.4482 35.9539 12.5457C35.8764 12.569 34.7346 13.1235 34.8392 13.3326C35.0283 13.7108 37.8111 13.2648 38.1834 14.3818Z" fill="#60a041" fill-rule="nonzero" opacity="1" stroke="none"/>
<path d="M13.5933 45.0046C13.426 45.172 13.3332 45.1019 13.1343 45.2013C12.8834 44.9504 12.9423 44.2177 12.3474 44.2177C11.2248 44.2177 11.7505 45.4395 12.6097 45.7259C12.6097 48.0244 15.6942 46.5144 13.5278 45.0702C13.7225 44.8754 13.9625 44.8977 14.1835 44.6767C15.4929 43.3673 11.3186 43.4881 13.5933 45.0046Z" fill="#f7fbf0" fill-rule="nonzero" opacity="1" stroke="none"/>
<path d="M39.5604 16.6768C39.1732 17.0641 39.4006 17.6154 39.2326 18.1195C39.0196 18.7585 38.5677 18.6668 38.4457 18.9719C38.4213 19.0328 38.4109 19.113 38.4457 19.1686C38.7355 19.6324 39.322 19.7171 39.6916 20.0867C40.1177 20.5128 40.431 21.0601 40.8063 21.5293C41.3646 20.971 39.728 20.0162 40.2162 19.3653C40.6062 19.6254 40.361 19.4372 40.8719 20.0211C40.9762 19.9516 41.1735 19.7588 41.1998 19.6276C41.2133 19.5599 41.1614 19.4945 41.1342 19.4309C40.9765 19.0629 40.8453 19.1923 40.544 18.8408C40.0311 18.2423 40.0952 17.2116 39.5604 16.6768Z" fill="#a3d056" fill-rule="nonzero" opacity="1" stroke="none"/>
<path d="M14.1835 13.5293C12.3922 15.3206 12.4801 15.0566 12.6753 17.5949C12.7111 18.0608 12.6072 18.6415 12.9376 18.9719C13.1681 18.8566 13.5826 18.476 13.5933 18.185C13.6136 17.639 13.5763 17.0919 13.5933 16.5457C13.6077 16.0861 14.3432 13.689 14.1835 13.5293Z" fill="#c6e773" fill-rule="nonzero" opacity="1" stroke="none"/>
<path d="M5.33108 46.7751C5.66299 46.5261 5.59222 46.4484 5.92124 46.1193C5.59319 45.6819 5.13274 45.3964 4.74092 45.0046C4.26459 44.5283 4.29773 43.7513 3.75731 43.3653C3.10676 42.9006 2.60135 43.8973 2.77371 44.4144C3.14979 45.5427 4.40404 46.157 5.33108 46.7751Z" fill="#a3d056" fill-rule="nonzero" opacity="1" stroke="none"/>
<path d="M21.6589 39.0374C21.9914 39.3699 24.6526 39.6022 25.1343 39.6276C25.724 39.6586 26.3142 39.6931 26.9048 39.6931C27.3506 39.6931 27.901 39.7461 28.2162 39.4308C28.5485 39.597 28.9394 39.5601 29.1998 39.2997C29.1561 39.256 29.1304 39.1713 29.0687 39.1685C28.1297 39.1268 27.1887 39.187 26.249 39.1685C25.8464 39.1607 22.5772 38.2195 22.5113 38.2505C22.1614 38.4152 21.9806 38.8229 21.6589 39.0374Z" fill="#60a041" fill-rule="nonzero" opacity="1" stroke="none"/>
<path d="M3.42945 13.9883C1.91084 14.7476 3.07521 17.3839 3.23273 18.644C3.27819 19.0077 3.12056 19.581 3.36387 19.8244C4.2589 18.9293 3.62617 16.9964 3.62617 15.89C3.62617 14.9633 4.59842 14.8294 3.42945 13.9883Z" fill="#89be59" fill-rule="nonzero" opacity="1" stroke="none"/>
<path d="M21.0687 35.8243C20.6269 36.0452 20.2508 36.7184 20.9376 37.0046C21.3201 37.164 21.8295 36.8997 22.249 37.0046C23.073 37.2106 25.2955 39.1385 26.1835 38.2505C25.8093 37.8764 24.9745 37.9668 24.4785 37.5948C23.8015 37.087 22.9155 35.8899 21.0687 35.8243Z" fill="#c6e773" fill-rule="nonzero" opacity="1" stroke="none"/>
<path d="M36.9375 17.1359C36.9812 17.2233 37.0249 17.3107 37.0687 17.3981C36.7408 17.726 36.7408 17.726 36.4129 18.0539C36.8636 18.7299 37.7205 19.1246 38.249 19.7588C38.4785 19.5621 38.4785 19.5621 38.708 19.3653C38.3713 18.8603 39.5031 18.7519 38.9047 17.726C38.5133 17.055 37.5122 16.5611 36.9375 17.1359Z" fill="#4e6e31" fill-rule="nonzero" opacity="1" stroke="none"/>
<path d="M18.8392 9.72604C17.7066 9.91189 17.0489 11.4676 16.7409 12.5457C16.669 12.7972 16.195 14.246 17.0032 13.9227C17.7943 13.6063 19.3315 9.64526 18.8392 9.72604Z" fill="#60a041" fill-rule="nonzero" opacity="1" stroke="none"/>
<path d="M15.1015 9.85719C13.9835 10.9752 12.8404 12.4123 12.1507 13.7916C12.4903 14.1312 12.3388 13.955 12.6097 14.3162C14.6198 13.3112 14.2014 11.6587 15.4294 10.1851C15.2655 10.0211 15.2655 10.0211 15.1015 9.85719Z" fill="#89be59" fill-rule="nonzero" opacity="1" stroke="none"/>
<path d="M29.8556 36.021C28.7295 36.4578 28.6493 38.4472 30.1834 38.4472C30.569 38.4472 31.875 37.6075 31.6916 37.3325C31.3996 36.8945 30.8953 36.6433 30.5113 36.2833C30.2678 36.055 30.1468 35.9081 29.8556 36.021Z" fill="#c6e773" fill-rule="nonzero" opacity="1" stroke="none"/>
<path d="M14.3802 17.2014C14.595 17.4877 14.7556 17.5053 14.9704 17.7916C15.5769 17.3367 15.9578 16.5148 16.4786 15.9555C17.2993 15.074 17.9237 14.5201 18.7736 13.7916C18.3968 13.2263 17.6208 13.9743 17.2655 14.2506C16.1576 15.1122 15.2172 16.0854 14.3802 17.2014Z" fill="#e2f0d7" fill-rule="nonzero" opacity="1" stroke="none"/>
<path d="M2.90486 39.7587C1.36169 40.1738 2.65364 43.0796 3.56059 42.5128C4.56009 41.8881 4.09039 39.4398 2.90486 39.7587Z" fill="#89be59" fill-rule="nonzero" opacity="1" stroke="none"/>
<path d="M5.92124 45.9882C5.48288 46.4265 5.61577 46.4248 5.33108 46.7095C5.67608 47.0545 6.12236 47.0611 6.44583 47.4308C6.70738 47.7297 6.68846 48.2997 6.83927 48.6767C7.14611 49.4438 7.72078 49.9741 8.28189 50.5783C8.38025 50.5128 8.38025 50.5128 8.47861 50.4472C7.4911 49.4597 7.83858 48.4615 7.42943 47.2341C7.17714 46.4772 6.48348 46.363 5.92124 45.9882Z" fill="#89be59" fill-rule="nonzero" opacity="1" stroke="none"/>
<path d="M12.1507 16.7424C10.9769 17.9162 12.5416 20.0893 11.3638 21.267C11.8098 21.7129 12.0615 21.124 12.4786 21.3326C12.8465 20.9646 12.4363 20.9426 12.413 20.6112C12.3319 19.4556 12.4333 18.2941 12.413 17.1359C12.408 16.8502 12.3528 16.8771 12.1507 16.7424Z" fill="#60a041" fill-rule="nonzero" opacity="1" stroke="none"/>
<path d="M40.2162 17.5949C39.0415 18.0016 42.3263 20.3669 42.7735 20.2178C43.1188 20.1027 42.8224 19.3031 42.6424 19.1031C42.0302 18.4228 41.0585 17.3032 40.2162 17.5949Z" fill="#4e6e31" fill-rule="nonzero" opacity="1" stroke="none"/>
<path d="M38.249 19.6932C38.8072 20.4375 39.2151 21.0768 39.6916 21.7916C40.0945 21.3887 40.8237 22.3644 41.1998 21.9883C40.7603 21.1093 39.2335 18.7087 38.249 19.6932Z" fill="#568645" fill-rule="nonzero" opacity="1" stroke="none"/>
<path d="M26.249 7.49655C26.5441 7.79163 26.5441 7.79163 26.8392 8.08671C27.7034 7.65462 29.8339 7.78049 30.1179 7.49655C29.3609 5.98254 27.2424 6.75154 26.249 7.49655Z" fill="#c6e773" fill-rule="nonzero" opacity="1" stroke="none"/>
<path d="M1.65896 18.2506C0.615808 18.4575 1.09037 20.6112 2.18355 20.6112C3.08828 20.6112 3.07761 17.9692 1.65896 18.2506Z" fill="#89be59" fill-rule="nonzero" opacity="1" stroke="none"/>
<path d="M26.5769 24.9391C27.7575 24.3488 28.7127 25.142 29.3966 26.0538C29.9884 25.462 28.881 24.1034 28.3474 23.8899C28.0625 23.776 27.7361 23.8243 27.4293 23.8243C26.9748 23.8243 26.3237 24.5592 26.5769 24.9391Z" fill="#f7fbf0" fill-rule="nonzero" opacity="1" stroke="none"/>
<path d="M29.0031 50.3816C27.7124 50.5056 27.7674 52.5438 29.331 52.2832C30.5866 52.074 29.7164 50.3131 29.0031 50.3816Z" fill="#f7fbf0" fill-rule="nonzero" opacity="1" stroke="none"/>
<path d="M50.9702 31.4309C49.8194 31.6601 50.3522 33.2669 51.4292 33.2669C52.4322 33.2669 52.5248 31.1212 50.9702 31.4309Z" fill="#f7fbf0" fill-rule="nonzero" opacity="1" stroke="none"/>
<path d="M37.1342 36.2833C36.847 36.5706 34.9716 38.9063 35.7572 38.9063C36.4434 38.9063 37.5108 37.7404 37.9867 37.3325C37.6372 36.983 37.4439 36.593 37.1342 36.2833Z" fill="#a3d056" fill-rule="nonzero" opacity="1" stroke="none"/>
<path d="M32.1506 2.38181C31.016 2.6775 31.4867 4.35038 32.6752 4.1523C33.8981 3.94849 33.0829 2.13887 32.1506 2.38181Z" fill="#f7fbf0" fill-rule="nonzero" opacity="1" stroke="none"/>
<path d="M46.4457 52.021C45.5308 52.1405 44.496 53.8793 46.1834 53.7259C47.1257 53.6402 47.7914 51.8451 46.4457 52.021Z" fill="#89be59" fill-rule="nonzero" opacity="1" stroke="none"/>
<path d="M32.0195 7.62769C29.2073 8.85093 35.3802 9.39826 33.6588 8.02113C33.4668 7.8675 33.1047 7.81703 32.8719 7.75884C32.5715 7.68374 32.3139 7.49965 32.0195 7.62769Z" fill="#e1eb60" fill-rule="nonzero" opacity="1" stroke="none"/>
<path d="M31.6261 15.6932C30.5973 15.8901 31.7971 16.4454 31.8228 16.6768C31.8639 17.0472 31.6803 17.5401 32.2818 17.6604C32.795 17.7631 33.5773 17.3006 33.2654 16.6768C32.9802 16.1065 32.6662 16.3078 32.2162 16.2178C31.989 16.1724 31.9043 15.64 31.6261 15.6932Z" fill="#f7fbf0" fill-rule="nonzero" opacity="1" stroke="none"/>
<path d="M34.0523 36.6768C32.3393 37.0999 33.3454 38.5624 34.5769 38.3161C35.6622 38.099 35.0564 36.4287 34.0523 36.6768Z" fill="#e1eb60" fill-rule="nonzero" opacity="1" stroke="none"/>
<path d="M24.413 6.84081C23.4943 7.24786 23.7385 8.98601 25.0031 8.48015C26.1449 8.02345 25.2294 6.47907 24.413 6.84081Z" fill="#f7fbf0" fill-rule="nonzero" opacity="1" stroke="none"/>
<path d="M33.8556 4.28344C32.9167 4.46021 33.1297 5.98836 34.1834 5.98836C35.3138 5.98836 35.246 4.02167 33.8556 4.28344Z" fill="#f7fbf0" fill-rule="nonzero" opacity="1" stroke="none"/>
<path d="M27.2982 13.726C26.2468 13.9959 26.6241 15.4913 27.7572 15.3654C28.8649 15.2423 28.1895 13.4972 27.2982 13.726Z" fill="#f7fbf0" fill-rule="nonzero" opacity="1" stroke="none"/>
<path d="M39.2326 42.1194C38.5815 42 37.9895 43.6424 39.0359 43.7587C40.4896 43.9202 40.3593 42.3259 39.2326 42.1194Z" fill="#f7fbf0" fill-rule="nonzero" opacity="1" stroke="none"/>
<path d="M19.8228 16.6768C18.6649 17.8348 18.4624 17.7181 19.2982 18.9719C19.7589 18.5112 20.1153 17.8775 20.4786 17.3326C20.1507 17.0047 20.1507 17.0047 19.8228 16.6768Z" fill="#568645" fill-rule="nonzero" opacity="1" stroke="none"/>
<path d="M41.7899 46.6439C40.7899 46.9053 41.1016 48.4472 42.249 48.2177C43.2657 48.0143 42.6067 46.4305 41.7899 46.6439Z" fill="#f7fbf0" fill-rule="nonzero" opacity="1" stroke="none"/>
<path d="M31.4949 50.1193C30.3878 50.3716 30.9479 51.6931 31.9539 51.6931C32.7504 51.6931 32.6771 49.8499 31.4949 50.1193Z" fill="#f7fbf0" fill-rule="nonzero" opacity="1" stroke="none"/>
<path d="M19.6917 42.6439C18.918 43.0314 19.1735 44.2177 20.2163 44.2177C20.4041 44.2177 20.765 43.8167 20.8064 43.7587C21.2882 43.0843 20.089 42.4449 19.6917 42.6439Z" fill="#f7fbf0" fill-rule="nonzero" opacity="1" stroke="none"/>
<path d="M15.495 8.80802C15.3008 8.90346 15.1275 9.07095 15.036 9.26703C14.2902 10.865 17.8938 10.4239 16.0851 8.87359C15.9288 8.73959 15.6371 8.73819 15.495 8.80802Z" fill="#f7fbf0" fill-rule="nonzero" opacity="1" stroke="none"/>
<path d="M16.7409 44.1521C16.1478 44.7452 16.5431 44.8616 17.2655 45.4636C17.7699 45.8839 18.8284 45.5457 18.3802 44.8734C17.9666 45.0802 17.1071 44.3353 16.7409 44.1521Z" fill="#a3d056" fill-rule="nonzero" opacity="1" stroke="none"/>
<path d="M22.3802 52.5455C22.6222 52.7876 22.863 53.08 23.1015 53.398C23.7033 53.1974 24.4433 53.6955 24.872 53.2668C24.409 52.8039 22.8786 52.0471 22.3802 52.5455Z" fill="#89be59" fill-rule="nonzero" opacity="1" stroke="none"/>
<path d="M37.5277 35.9554C36.5532 36.2502 37.5901 37.6947 38.3145 37.3325C39.1658 36.9069 38.0966 35.7833 37.5277 35.9554Z" fill="#f7fbf0" fill-rule="nonzero" opacity="1" stroke="none"/>
<path d="M31.6261 4.41459C31.4117 4.452 31.1015 4.74347 31.1015 5.00475C31.1015 5.51517 31.7018 6.06898 32.2162 5.72606C32.9772 5.21871 32.3431 4.28946 31.6261 4.41459Z" fill="#f7fbf0" fill-rule="nonzero" opacity="1" stroke="none"/>
<path d="M11.2327 37.0046C10.2347 37.2764 10.9471 38.8471 11.6917 38.3817C12.5036 37.8742 11.9789 36.8014 11.2327 37.0046Z" fill="#f7fbf0" fill-rule="nonzero" opacity="1" stroke="none"/>
<path d="M11.7573 13.6605C11.0161 14.031 11.279 14.5592 11.7573 15.0375C12.5188 14.6567 12.9117 14.5482 11.7573 13.6605Z" fill="#f7fbf0" fill-rule="nonzero" opacity="1" stroke="none"/>
<path d="M4.93764 12.0211C4.50323 12.0798 3.51233 13.5643 4.67534 13.3982C5.3986 13.2948 5.98829 11.8793 4.93764 12.0211Z" fill="#89be59" fill-rule="nonzero" opacity="1" stroke="none"/>
<path d="M43.9539 28.8079C43.3522 29.0884 43.9575 30.4787 44.7408 30.185C45.5769 29.8714 44.441 28.5808 43.9539 28.8079Z" fill="#f7fbf0" fill-rule="nonzero" opacity="1" stroke="none"/>
<path d="M18.7081 44.0866C17.9734 44.2617 18.2104 45.47 19.0359 45.3325C19.9658 45.1775 19.4291 43.9147 18.7081 44.0866Z" fill="#e2f0d7" fill-rule="nonzero" opacity="1" stroke="none"/>
<path d="M7.56058 32.4145C6.79024 32.6103 7.18659 33.7044 7.95402 33.5948C8.81182 33.4723 8.22698 32.2451 7.56058 32.4145Z" fill="#f7fbf0" fill-rule="nonzero" opacity="1" stroke="none"/>
<path d="M49.9866 30.185C49.1912 30.3965 49.5499 31.7128 50.3145 31.3653C51.0657 31.0239 50.6128 30.0185 49.9866 30.185Z" fill="#f7fbf0" fill-rule="nonzero" opacity="1" stroke="none"/>
<path d="M50.4456 41.7259C49.7598 41.8783 49.9925 42.9062 50.7079 42.9062C51.4766 42.9062 51.2132 41.5554 50.4456 41.7259Z" fill="#f7fbf0" fill-rule="nonzero" opacity="1" stroke="none"/>
<path d="M26.0523 11.6277C25.5597 11.5622 25.057 12.6084 25.8556 12.808C26.7866 13.0407 26.7161 11.7159 26.0523 11.6277Z" fill="#e2f0d7" fill-rule="nonzero" opacity="1" stroke="none"/>
<path d="M37.1342 4.08672C36.4063 4.27193 36.5871 5.31711 37.3965 5.20147C38.1205 5.09805 37.7625 3.92685 37.1342 4.08672Z" fill="#f7fbf0" fill-rule="nonzero" opacity="1" stroke="none"/>
<path d="M37.1342 9.85719C35.6226 11.0849 38.3328 11.2051 37.8555 10.2506C37.6806 9.90067 37.3815 9.6564 37.1342 9.85719Z" fill="#f7fbf0" fill-rule="nonzero" opacity="1" stroke="none"/>
<path d="M23.2982 8.48015C22.5677 8.51686 22.5903 9.66047 23.3638 9.66047C24.2284 9.66047 23.8373 8.45305 23.2982 8.48015Z" fill="#f7fbf0" fill-rule="nonzero" opacity="1" stroke="none"/>
<path d="M35.167 32.021C34.601 31.9065 34.3384 32.8188 35.0359 33.1358C35.511 33.3518 36.247 32.2395 35.167 32.021Z" fill="#c6e773" fill-rule="nonzero" opacity="1" stroke="none"/>
<path d="M10.3147 22.8407C9.65321 22.9554 9.76799 24.0138 10.5114 23.8899C11.1908 23.7767 10.8935 22.7404 10.3147 22.8407Z" fill="#f7fbf0" fill-rule="nonzero" opacity="1" stroke="none"/>
<path d="M41.7899 4.08672C41.2083 4.3323 41.6034 5.53428 42.1834 5.07033C42.6949 4.66113 42.3528 3.84909 41.7899 4.08672Z" fill="#f7fbf0" fill-rule="nonzero" opacity="1" stroke="none"/>
<path d="M7.42943 22.5785C6.98219 22.7541 7.14051 23.9032 7.82287 23.5621C8.6617 23.1426 7.91824 22.3864 7.42943 22.5785Z" fill="#f7fbf0" fill-rule="nonzero" opacity="1" stroke="none"/>
<path d="M16.413 36.1522C16.269 36.2084 16.1857 36.3627 16.0851 36.48C15.3639 37.3215 18.0884 37.2433 16.8064 36.2177C16.6756 36.1131 16.5721 36.0901 16.413 36.1522Z" fill="#f7fbf0" fill-rule="nonzero" opacity="1" stroke="none"/>
</g>
</g>
</svg>
